<svg xmlns="http://www.w3.org/2000/svg" xmlns:xlink="http://www.w3.org/1999/xlink" version="1.2" width="141.42mm" height="100mm" viewBox="0 0 141.42 100" stroke="none" fill="#000000" stroke-width="0.3" font-size="3.88">
<defs>
  <marker id="arrow" markerWidth="15" markerHeight="7" refX="5" refY="3.5" orient="auto" markerUnits="strokeWidth">
    <path d="M0,0 L15,3.5 L0,7 z" stroke="context-stroke" fill="context-stroke"></path>
  </marker>
</defs>
<g stroke-width="0.42" fill="#000000" fill-opacity="0.000" stroke="#D3D3D3" id="img-0cc3cd2c-1">
  <g transform="translate(92.35,23.91)">
    <path fill="none" d="M-16.99,-14.38 L16.99,14.38 " class="primitive"></path>
  </g>
  <g transform="translate(94.17,43.05)">
    <path fill="none" d="M-19.35,-33.28 L19.35,33.28 " class="primitive"></path>
  </g>
  <g transform="translate(105.65,33.3)">
    <path fill="none" d="M-3.97,-4.85 L3.97,4.85 " class="primitive"></path>
  </g>
  <g transform="translate(88.63,53.67)">
    <path fill="none" d="M11.37,-25.09 L-11.37,25.09 " class="primitive"></path>
  </g>
  <g transform="translate(90.51,59.29)">
    <path fill="none" d="M9.67,-30.67 L-9.67,30.67 " class="primitive"></path>
  </g>
  <g transform="translate(97.45,40.31)">
    <path fill="none" d="M2.83,-11.69 L-2.83,11.69 " class="primitive"></path>
  </g>
  <g transform="translate(90.99,46.21)">
    <path fill="none" d="M8.94,-17.65 L-8.94,17.65 " class="primitive"></path>
  </g>
  <g transform="translate(57.56,32.71)">
    <path fill="none" d="M41.02,-5.28 L-41.02,5.28 " class="primitive"></path>
  </g>
  <g transform="translate(82.18,23.16)">
    <path fill="none" d="M16.46,3.58 L-16.46,-3.58 " class="primitive"></path>
  </g>
  <g transform="translate(59.85,28.26)">
    <path fill="none" d="M38.7,-1.03 L-38.7,1.03 " class="primitive"></path>
  </g>
  <g transform="translate(56.21,37.29)">
    <path fill="none" d="M42.44,-9.66 L-42.44,9.66 " class="primitive"></path>
  </g>
  <g transform="translate(74.44,19.3)">
    <path fill="none" d="M24.28,7.3 L-24.28,-7.3 " class="primitive"></path>
  </g>
  <g transform="translate(93.65,59.79)">
    <path fill="none" d="M15.96,-19.1 L-15.96,19.1 " class="primitive"></path>
  </g>
  <g transform="translate(78.5,32.06)">
    <path fill="none" d="M30.19,6.91 L-30.19,-6.91 " class="primitive"></path>
  </g>
  <g transform="translate(73.62,27.52)">
    <path fill="none" d="M35.16,11.29 L-35.16,-11.29 " class="primitive"></path>
  </g>
  <g transform="translate(85.52,52.41)">
    <path fill="none" d="M23.46,-12.12 L-23.46,12.12 " class="primitive"></path>
  </g>
  <g transform="translate(120.15,45.78)">
    <path fill="none" d="M-7.97,-5.34 L7.97,5.34 " class="primitive"></path>
  </g>
  <g transform="translate(88.97,65.54)">
    <path fill="none" d="M20.65,-24.85 L-20.65,24.85 " class="primitive"></path>
  </g>
  <g transform="translate(96.01,52.33)">
    <path fill="none" d="M13.36,-11.76 L-13.36,11.76 " class="primitive"></path>
  </g>
  <g transform="translate(63.26,52.63)">
    <path fill="none" d="M45.47,-12.66 L-45.47,12.66 " class="primitive"></path>
  </g>
  <g transform="translate(114.46,32.64)">
    <path fill="none" d="M-3.02,5.41 L3.02,-5.41 " class="primitive"></path>
  </g>
  <g transform="translate(87.2,29.28)">
    <path fill="none" d="M21.69,9.37 L-21.69,-9.37 " class="primitive"></path>
  </g>
  <g transform="translate(112.51,46.07)">
    <path fill="none" d="M-1.44,-5.2 L1.44,5.2 " class="primitive"></path>
  </g>
  <g transform="translate(64.87,34.38)">
    <path fill="none" d="M43.75,4.82 L-43.75,-4.82 " class="primitive"></path>
  </g>
  <g transform="translate(118.71,50.5)">
    <path fill="none" d="M-7.09,-9.77 L7.09,9.77 " class="primitive"></path>
  </g>
  <g transform="translate(70.91,60.31)">
    <path fill="none" d="M38.09,-20.01 L-38.09,20.01 " class="primitive"></path>
  </g>
  <g transform="translate(104.67,26.4)">
    <path fill="none" d="M5.36,11.62 L-5.36,-11.62 " class="primitive"></path>
  </g>
  <g transform="translate(61.48,52.43)">
    <path fill="none" d="M14.4,26.36 L-14.4,-26.36 " class="primitive"></path>
  </g>
  <g transform="translate(78.51,85.78)">
    <path fill="none" d="M-1.4,-4.19 L1.4,4.19 " class="primitive"></path>
  </g>
  <g transform="translate(103.13,66.15)">
    <path fill="none" d="M-24.84,13.13 L24.84,-13.13 " class="primitive"></path>
  </g>
  <g transform="translate(85.45,66.81)">
    <path fill="none" d="M-7.94,12.02 L7.94,-12.02 " class="primitive"></path>
  </g>
  <g transform="translate(51.98,51.11)">
    <path fill="none" d="M23.57,27.79 L-23.57,-27.79 " class="primitive"></path>
  </g>
  <g transform="translate(100.72,56.93)">
    <path fill="none" d="M-22.86,22.05 L22.86,-22.05 " class="primitive"></path>
  </g>
  <g transform="translate(59.11,76.32)">
    <path fill="none" d="M15.52,3.4 L-15.52,-3.4 " class="primitive"></path>
  </g>
  <g transform="translate(44.81,68.4)">
    <path fill="none" d="M29.96,11.08 L-29.96,-11.08 " class="primitive"></path>
  </g>
  <g transform="translate(80.16,50.5)">
    <path fill="none" d="M-3.36,28.19 L3.36,-28.19 " class="primitive"></path>
  </g>
  <g transform="translate(73.53,56.35)">
    <path fill="none" d="M2.9,22.35 L-2.9,-22.35 " class="primitive"></path>
  </g>
  <g transform="translate(54.55,57.56)">
    <path fill="none" d="M20.89,21.39 L-20.89,-21.39 " class="primitive"></path>
  </g>
  <g transform="translate(53.89,80.68)">
    <path fill="none" d="M20.66,-0.47 L-20.66,0.47 " class="primitive"></path>
  </g>
  <g transform="translate(102.39,61.46)">
    <path fill="none" d="M-24.31,17.65 L24.31,-17.65 " class="primitive"></path>
  </g>
  <g transform="translate(64.17,59.67)">
    <path fill="none" d="M11.63,19.15 L-11.63,-19.15 " class="primitive"></path>
  </g>
  <g transform="translate(52.21,64.07)">
    <path fill="none" d="M22.89,15.09 L-22.89,-15.09 " class="primitive"></path>
  </g>
  <g transform="translate(41.45,20.16)">
    <path fill="none" d="M3.62,3.37 L-3.62,-3.37 " class="primitive"></path>
  </g>
  <g transform="translate(52.19,52.29)">
    <path fill="none" d="M-5.55,-26.13 L5.55,26.13 " class="primitive"></path>
  </g>
  <g transform="translate(72.5,19.04)">
    <path fill="none" d="M-24.18,5.23 L24.18,-5.23 " class="primitive"></path>
  </g>
  <g transform="translate(37.06,36.34)">
    <path fill="none" d="M8.25,-10.35 L-8.25,10.35 " class="primitive"></path>
  </g>
  <g transform="translate(48.47,40.51)">
    <path fill="none" d="M-11.24,-23.5 L11.24,23.5 " class="primitive"></path>
  </g>
  <g transform="translate(79.36,42.89)">
    <path fill="none" d="M-41.25,-26.29 L41.25,26.29 " class="primitive"></path>
  </g>
  <g transform="translate(31.95,18.84)">
    <path fill="none" d="M3.13,-2.19 L-3.13,2.19 " class="primitive"></path>
  </g>
  <g transform="translate(77.4,20.74)">
    <path fill="none" d="M-38.79,-4.87 L38.79,4.87 " class="primitive"></path>
  </g>
  <g transform="translate(80.69,24.66)">
    <path fill="none" d="M-42.12,-8.63 L42.12,8.63 " class="primitive"></path>
  </g>
  <g transform="translate(61.65,12.57)">
    <path fill="none" d="M-23.03,2.79 L23.03,-2.79 " class="primitive"></path>
  </g>
  <g transform="translate(81.66,38.6)">
    <path fill="none" d="M-43.4,-22.12 L43.4,22.12 " class="primitive"></path>
  </g>
  <g transform="translate(24.17,31.51)">
    <path fill="none" d="M11.38,-14.6 L-11.38,14.6 " class="primitive"></path>
  </g>
  <g transform="translate(62.96,27.26)">
    <path fill="none" d="M-24.63,-10.87 L24.63,10.87 " class="primitive"></path>
  </g>
  <g transform="translate(45.29,53.05)">
    <path fill="none" d="M-8.39,-35.98 L8.39,35.98 " class="primitive"></path>
  </g>
  <g transform="translate(33.46,38.75)">
    <path fill="none" d="M2.9,-21.67 L-2.9,21.67 " class="primitive"></path>
  </g>
  <g transform="translate(97.35,84.55)">
    <path fill="none" d="M-15.15,6.12 L15.15,-6.12 " class="primitive"></path>
  </g>
  <g transform="translate(73.83,91.53)">
    <path fill="none" d="M4.48,-0.09 L-4.48,0.09 " class="primitive"></path>
  </g>
  <g transform="translate(101.27,80.78)">
    <path fill="none" d="M-19.19,9.76 L19.19,-9.76 " class="primitive"></path>
  </g>
  <g transform="translate(75.54,70.61)">
    <path fill="none" d="M4.52,19.34 L-4.52,-19.34 " class="primitive"></path>
  </g>
  <g transform="translate(86.56,90)">
    <path fill="none" d="M-4.18,0.95 L4.18,-0.95 " class="primitive"></path>
  </g>
  <g transform="translate(92.63,87.89)">
    <path fill="none" d="M-10.3,2.96 L10.3,-2.96 " class="primitive"></path>
  </g>
  <g transform="translate(61.2,88.87)">
    <path fill="none" d="M17.15,2.27 L-17.15,-2.27 " class="primitive"></path>
  </g>
  <g transform="translate(87.74,83.67)">
    <path fill="none" d="M-6.18,6.51 L6.18,-6.51 " class="primitive"></path>
  </g>
  <g transform="translate(93.77,78.56)">
    <path fill="none" d="M-12.14,11.66 L12.14,-11.66 " class="primitive"></path>
  </g>
  <g transform="translate(67.2,90.94)">
    <path fill="none" d="M11.11,0.39 L-11.11,-0.39 " class="primitive"></path>
  </g>
  <g transform="translate(65.53,57.61)">
    <path fill="none" d="M-4.27,6.46 L4.27,-6.46 " class="primitive"></path>
  </g>
  <g transform="translate(38.12,65.62)">
    <path fill="none" d="M20.18,-0.2 L-20.18,0.2 " class="primitive"></path>
  </g>
  <g transform="translate(59.21,72.63)">
    <path fill="none" d="M0.93,-5.77 L-0.93,5.77 " class="primitive"></path>
  </g>
  <g transform="translate(72.03,43.12)">
    <path fill="none" d="M-10.93,20.9 L10.93,-20.9 " class="primitive"></path>
  </g>
  <g transform="translate(122,52.42)">
    <path fill="none" d="M5.56,-0.21 L-5.56,0.21 " class="primitive"></path>
  </g>
  <g transform="translate(108.18,30.83)">
    <path fill="none" d="M20.24,20.1 L-20.24,-20.1 " class="primitive"></path>
  </g>
  <g transform="translate(81.06,43.54)">
    <path fill="none" d="M46.56,8.23 L-46.56,-8.23 " class="primitive"></path>
  </g>
  <g transform="translate(90.68,45.65)">
    <path fill="none" d="M36.93,6.14 L-36.93,-6.14 " class="primitive"></path>
  </g>
  <g transform="translate(88.94,31.77)">
    <path fill="none" d="M38.99,19.51 L-38.99,-19.51 " class="primitive"></path>
  </g>
  <g transform="translate(109.59,81.03)">
    <path fill="none" d="M3.25,-2.3 L-3.25,2.3 " class="primitive"></path>
  </g>
  <g transform="translate(63.66,67.17)">
    <path fill="none" d="M48.66,10.11 L-48.66,-10.11 " class="primitive"></path>
  </g>
  <g transform="translate(40.88,64.96)">
    <path fill="none" d="M25.19,25.5 L-25.19,-25.5 " class="primitive"></path>
  </g>
  <g transform="translate(80,90.13)">
    <path fill="none" d="M-10.68,1.29 L10.68,-1.29 " class="primitive"></path>
  </g>
  <g transform="translate(54.63,89)">
    <path fill="none" d="M10.64,2.25 L-10.64,-2.25 " class="primitive"></path>
  </g>
  <g transform="translate(82.89,62.88)">
    <path fill="none" d="M-11.05,-11.83 L11.05,11.83 " class="primitive"></path>
  </g>
  <g transform="translate(31.53,59.8)">
    <path fill="none" d="M-13.84,5.33 L13.84,-5.33 " class="primitive"></path>
  </g>
  <g transform="translate(70.5,49.93)">
    <path fill="none" d="M46.05,-23.21 L-46.05,23.21 " class="primitive"></path>
  </g>
  <g transform="translate(67.17,80.54)">
    <path fill="none" d="M23.66,7.46 L-23.66,-7.46 " class="primitive"></path>
  </g>
  <g transform="translate(110.45,65.67)">
    <path fill="none" d="M-16.72,21.63 L16.72,-21.63 " class="primitive"></path>
  </g>
  <g transform="translate(62.25,13.74)">
    <path fill="none" d="M1.08,3.96 L-1.08,-3.96 " class="primitive"></path>
  </g>
  <g transform="translate(87.56,30.52)">
    <path fill="none" d="M25.44,21.07 L-25.44,-21.07 " class="primitive"></path>
  </g>
  <g transform="translate(63.1,47.52)">
    <path fill="none" d="M-42.24,-17.44 L42.24,17.44 " class="primitive"></path>
  </g>
  <g transform="translate(64.45,23.86)">
    <path fill="none" d="M-43.33,5.23 L43.33,-5.23 " class="primitive"></path>
  </g>
  <g transform="translate(108.49,42.05)">
    <path fill="none" d="M-1.26,22.19 L1.26,-22.19 " class="primitive"></path>
  </g>
  <g transform="translate(77.07,26.68)">
    <path fill="none" d="M5.32,-4.69 L-5.32,4.69 " class="primitive"></path>
  </g>
  <g transform="translate(108.05,50.25)">
    <path fill="none" d="M17.12,10.38 L-17.12,-10.38 " class="primitive"></path>
  </g>
  <g transform="translate(58.82,43.15)">
    <path fill="none" d="M10.35,-9.45 L-10.35,9.45 " class="primitive"></path>
  </g>
  <g transform="translate(50.4,47.2)">
    <path fill="none" d="M18.59,-13.62 L-18.59,13.62 " class="primitive"></path>
  </g>
  <g transform="translate(46.6,53.26)">
    <path fill="none" d="M22.53,-19.59 L-22.53,19.59 " class="primitive"></path>
  </g>
</g>
<g stroke-width="0.42" stroke="#D3D3D3" id="img-0cc3cd2c-2">
</g>
<g font-size="4" stroke="#000000" stroke-opacity="0.000" fill="#000000" id="img-0cc3cd2c-3">
</g>
<g stroke-width="0" stroke="#000000" stroke-opacity="0.000" fill="#40E0D0" id="img-0cc3cd2c-4">
  <g transform="translate(74.02,8.4)">
    <circle cx="0" cy="0" r="2" class="primitive"></circle>
  </g>
  <g transform="translate(100.63,27.18)">
    <circle cx="0" cy="0" r="2" class="primitive"></circle>
  </g>
  <g transform="translate(110.67,39.42)">
    <circle cx="0" cy="0" r="2" class="primitive"></circle>
  </g>
  <g transform="translate(76.62,80.16)">
    <circle cx="0" cy="0" r="2" class="primitive"></circle>
  </g>
  <g transform="translate(46.33,24.7)">
    <circle cx="0" cy="0" r="2" class="primitive"></circle>
  </g>
  <g transform="translate(36.56,15.62)">
    <circle cx="0" cy="0" r="2" class="primitive"></circle>
  </g>
  <g transform="translate(80.4,91.4)">
    <circle cx="0" cy="0" r="2" class="primitive"></circle>
  </g>
  <g transform="translate(60.38,65.4)">
    <circle cx="0" cy="0" r="2" class="primitive"></circle>
  </g>
  <g transform="translate(129.64,52.13)">
    <circle cx="0" cy="0" r="2" class="primitive"></circle>
  </g>
  <g transform="translate(114.31,77.7)">
    <circle cx="0" cy="0" r="2" class="primitive"></circle>
  </g>
  <g transform="translate(94.28,53.45)">
    <circle cx="0" cy="0" r="2" class="primitive"></circle>
  </g>
  <g transform="translate(67.26,91.67)">
    <circle cx="0" cy="0" r="2" class="primitive"></circle>
  </g>
  <g transform="translate(81.35,65.24)">
    <circle cx="0" cy="0" r="2" class="primitive"></circle>
  </g>
  <g transform="translate(122.15,70.17)">
    <circle cx="0" cy="0" r="2" class="primitive"></circle>
  </g>
  <g transform="translate(70.69,49.82)">
    <circle cx="0" cy="0" r="2" class="primitive"></circle>
  </g>
  <g transform="translate(27.34,22.06)">
    <circle cx="0" cy="0" r="2" class="primitive"></circle>
  </g>
  <g transform="translate(14.49,38.25)">
    <circle cx="0" cy="0" r="2" class="primitive"></circle>
  </g>
  <g transform="translate(15.86,65.83)">
    <circle cx="0" cy="0" r="2" class="primitive"></circle>
  </g>
  <g transform="translate(118.25,25.86)">
    <circle cx="0" cy="0" r="2" class="primitive"></circle>
  </g>
  <g transform="translate(92.73,88.6)">
    <circle cx="0" cy="0" r="2" class="primitive"></circle>
  </g>
  <g transform="translate(104.86,84.37)">
    <circle cx="0" cy="0" r="2" class="primitive"></circle>
  </g>
  <g transform="translate(124.81,33.7)">
    <circle cx="0" cy="0" r="2" class="primitive"></circle>
  </g>
  <g transform="translate(63.73,19.14)">
    <circle cx="0" cy="0" r="2" class="primitive"></circle>
  </g>
  <g transform="translate(114.35,52.71)">
    <circle cx="0" cy="0" r="2" class="primitive"></circle>
  </g>
  <g transform="translate(19.06,29.34)">
    <circle cx="0" cy="0" r="2" class="primitive"></circle>
  </g>
  <g transform="translate(41.99,86.33)">
    <circle cx="0" cy="0" r="2" class="primitive"></circle>
  </g>
  <g transform="translate(86.73,9.53)">
    <circle cx="0" cy="0" r="2" class="primitive"></circle>
  </g>
  <g transform="translate(58.05,79.87)">
    <circle cx="0" cy="0" r="2" class="primitive"></circle>
  </g>
  <g transform="translate(41.6,72.48)">
    <circle cx="0" cy="0" r="2" class="primitive"></circle>
  </g>
  <g transform="translate(95.09,75.94)">
    <circle cx="0" cy="0" r="2" class="primitive"></circle>
  </g>
  <g transform="translate(60.77,8.33)">
    <circle cx="0" cy="0" r="2" class="primitive"></circle>
  </g>
  <g transform="translate(13,56.64)">
    <circle cx="0" cy="0" r="2" class="primitive"></circle>
  </g>
  <g transform="translate(107.14,65.71)">
    <circle cx="0" cy="0" r="2" class="primitive"></circle>
  </g>
  <g transform="translate(83.69,20.84)">
    <circle cx="0" cy="0" r="2" class="primitive"></circle>
  </g>
  <g transform="translate(126.75,61.59)">
    <circle cx="0" cy="0" r="2" class="primitive"></circle>
  </g>
  <g transform="translate(11.79,47.4)">
    <circle cx="0" cy="0" r="2" class="primitive"></circle>
  </g>
  <g transform="translate(70.44,32.53)">
    <circle cx="0" cy="0" r="2" class="primitive"></circle>
  </g>
  <g transform="translate(32.48,34.95)">
    <circle cx="0" cy="0" r="2" class="primitive"></circle>
  </g>
  <g transform="translate(89.35,38.91)">
    <circle cx="0" cy="0" r="2" class="primitive"></circle>
  </g>
  <g transform="translate(54.01,90.48)">
    <circle cx="0" cy="0" r="2" class="primitive"></circle>
  </g>
  <g transform="translate(109.83,18.39)">
    <circle cx="0" cy="0" r="2" class="primitive"></circle>
  </g>
  <g transform="translate(31.15,81.2)">
    <circle cx="0" cy="0" r="2" class="primitive"></circle>
  </g>
  <g transform="translate(128.16,42.75)">
    <circle cx="0" cy="0" r="2" class="primitive"></circle>
  </g>
  <g transform="translate(47.2,53.76)">
    <circle cx="0" cy="0" r="2" class="primitive"></circle>
  </g>
  <g transform="translate(98.67,13.38)">
    <circle cx="0" cy="0" r="2" class="primitive"></circle>
  </g>
  <g transform="translate(51.72,39.17)">
    <circle cx="0" cy="0" r="2" class="primitive"></circle>
  </g>
  <g transform="translate(30.36,61.88)">
    <circle cx="0" cy="0" r="2" class="primitive"></circle>
  </g>
  <g transform="translate(48.25,11.42)">
    <circle cx="0" cy="0" r="2" class="primitive"></circle>
  </g>
  <g transform="translate(27.79,47.97)">
    <circle cx="0" cy="0" r="2" class="primitive"></circle>
  </g>
  <g transform="translate(22.76,73.99)">
    <circle cx="0" cy="0" r="2" class="primitive"></circle>
  </g>
</g>
<g font-size="4" stroke="#000000" stroke-opacity="0.000" fill="#000000" id="img-0cc3cd2c-5">
</g>
</svg>