<svg xmlns="http://www.w3.org/2000/svg" xmlns:xlink="http://www.w3.org/1999/xlink" width="600" height="400" viewBox="0 0 2400 1600">
<defs>
  <clipPath id="clip800">
    <rect x="0" y="0" width="2400" height="1600"></rect>
  </clipPath>
</defs>
<path clip-path="url(#clip800)" d="M0 1600 L2400 1600 L2400 0 L0 0  Z" fill="#ffffff" fill-rule="evenodd" fill-opacity="1"></path>
<defs>
  <clipPath id="clip801">
    <rect x="188" y="47" width="2166" height="1440"></rect>
  </clipPath>
</defs>
<path clip-path="url(#clip800)" d="M251.372 1423.18 L2352.76 1423.18 L2352.76 47.2441 L251.372 47.2441  Z" fill="#ffffff" fill-rule="evenodd" fill-opacity="1"></path>
<defs>
  <clipPath id="clip802">
    <rect x="251" y="47" width="2102" height="1377"></rect>
  </clipPath>
</defs>
<polyline clip-path="url(#clip802)" style="stroke:#000000; stroke-linecap:round; stroke-linejoin:round; stroke-width:2; stroke-opacity:0.1; fill:none" points="251.372,1423.18 251.372,47.2441 "></polyline>
<polyline clip-path="url(#clip802)" style="stroke:#000000; stroke-linecap:round; stroke-linejoin:round; stroke-width:2; stroke-opacity:0.1; fill:none" points="671.649,1423.18 671.649,47.2441 "></polyline>
<polyline clip-path="url(#clip802)" style="stroke:#000000; stroke-linecap:round; stroke-linejoin:round; stroke-width:2; stroke-opacity:0.1; fill:none" points="1091.93,1423.18 1091.93,47.2441 "></polyline>
<polyline clip-path="url(#clip802)" style="stroke:#000000; stroke-linecap:round; stroke-linejoin:round; stroke-width:2; stroke-opacity:0.1; fill:none" points="1512.2,1423.18 1512.2,47.2441 "></polyline>
<polyline clip-path="url(#clip802)" style="stroke:#000000; stroke-linecap:round; stroke-linejoin:round; stroke-width:2; stroke-opacity:0.1; fill:none" points="1932.48,1423.18 1932.48,47.2441 "></polyline>
<polyline clip-path="url(#clip802)" style="stroke:#000000; stroke-linecap:round; stroke-linejoin:round; stroke-width:2; stroke-opacity:0.1; fill:none" points="2352.76,1423.18 2352.76,47.2441 "></polyline>
<polyline clip-path="url(#clip802)" style="stroke:#000000; stroke-linecap:round; stroke-linejoin:round; stroke-width:2; stroke-opacity:0.1; fill:none" points="251.372,219.43 2352.76,219.43 "></polyline>
<polyline clip-path="url(#clip802)" style="stroke:#000000; stroke-linecap:round; stroke-linejoin:round; stroke-width:2; stroke-opacity:0.1; fill:none" points="251.372,1378.78 2352.76,1378.78 "></polyline>
<polyline clip-path="url(#clip800)" style="stroke:#000000; stroke-linecap:round; stroke-linejoin:round; stroke-width:4; stroke-opacity:1; fill:none" points="251.372,1423.18 2352.76,1423.18 "></polyline>
<polyline clip-path="url(#clip800)" style="stroke:#000000; stroke-linecap:round; stroke-linejoin:round; stroke-width:4; stroke-opacity:1; fill:none" points="251.372,1423.18 251.372,1404.28 "></polyline>
<polyline clip-path="url(#clip800)" style="stroke:#000000; stroke-linecap:round; stroke-linejoin:round; stroke-width:4; stroke-opacity:1; fill:none" points="671.649,1423.18 671.649,1404.28 "></polyline>
<polyline clip-path="url(#clip800)" style="stroke:#000000; stroke-linecap:round; stroke-linejoin:round; stroke-width:4; stroke-opacity:1; fill:none" points="1091.93,1423.18 1091.93,1404.28 "></polyline>
<polyline clip-path="url(#clip800)" style="stroke:#000000; stroke-linecap:round; stroke-linejoin:round; stroke-width:4; stroke-opacity:1; fill:none" points="1512.2,1423.18 1512.2,1404.28 "></polyline>
<polyline clip-path="url(#clip800)" style="stroke:#000000; stroke-linecap:round; stroke-linejoin:round; stroke-width:4; stroke-opacity:1; fill:none" points="1932.48,1423.18 1932.48,1404.28 "></polyline>
<polyline clip-path="url(#clip800)" style="stroke:#000000; stroke-linecap:round; stroke-linejoin:round; stroke-width:4; stroke-opacity:1; fill:none" points="2352.76,1423.18 2352.76,1404.28 "></polyline>
<path clip-path="url(#clip800)" d="M251.372 1454.1 Q247.761 1454.1 245.932 1457.66 Q244.127 1461.2 244.127 1468.33 Q244.127 1475.44 245.932 1479.01 Q247.761 1482.55 251.372 1482.55 Q255.006 1482.55 256.812 1479.01 Q258.641 1475.44 258.641 1468.33 Q258.641 1461.2 256.812 1457.66 Q255.006 1454.1 251.372 1454.1 M251.372 1450.39 Q257.182 1450.39 260.238 1455 Q263.317 1459.58 263.317 1468.33 Q263.317 1477.06 260.238 1481.67 Q257.182 1486.25 251.372 1486.25 Q245.562 1486.25 242.483 1481.67 Q239.428 1477.06 239.428 1468.33 Q239.428 1459.58 242.483 1455 Q245.562 1450.39 251.372 1450.39 Z" fill="#000000" fill-rule="nonzero" fill-opacity="1"></path><path clip-path="url(#clip800)" d="M616.175 1481.64 L623.814 1481.64 L623.814 1455.28 L615.503 1456.95 L615.503 1452.69 L623.767 1451.02 L628.443 1451.02 L628.443 1481.64 L636.082 1481.64 L636.082 1485.58 L616.175 1485.58 L616.175 1481.64 Z" fill="#000000" fill-rule="nonzero" fill-opacity="1"></path><path clip-path="url(#clip800)" d="M655.526 1454.1 Q651.915 1454.1 650.087 1457.66 Q648.281 1461.2 648.281 1468.33 Q648.281 1475.44 650.087 1479.01 Q651.915 1482.55 655.526 1482.55 Q659.161 1482.55 660.966 1479.01 Q662.795 1475.44 662.795 1468.33 Q662.795 1461.2 660.966 1457.66 Q659.161 1454.1 655.526 1454.1 M655.526 1450.39 Q661.336 1450.39 664.392 1455 Q667.471 1459.58 667.471 1468.33 Q667.471 1477.06 664.392 1481.67 Q661.336 1486.25 655.526 1486.25 Q649.716 1486.25 646.637 1481.67 Q643.582 1477.06 643.582 1468.33 Q643.582 1459.58 646.637 1455 Q649.716 1450.39 655.526 1450.39 Z" fill="#000000" fill-rule="nonzero" fill-opacity="1"></path><path clip-path="url(#clip800)" d="M685.688 1454.1 Q682.077 1454.1 680.248 1457.66 Q678.443 1461.2 678.443 1468.33 Q678.443 1475.44 680.248 1479.01 Q682.077 1482.55 685.688 1482.55 Q689.322 1482.55 691.128 1479.01 Q692.957 1475.44 692.957 1468.33 Q692.957 1461.2 691.128 1457.66 Q689.322 1454.1 685.688 1454.1 M685.688 1450.39 Q691.498 1450.39 694.554 1455 Q697.633 1459.58 697.633 1468.33 Q697.633 1477.06 694.554 1481.67 Q691.498 1486.25 685.688 1486.25 Q679.878 1486.25 676.799 1481.67 Q673.744 1477.06 673.744 1468.33 Q673.744 1459.58 676.799 1455 Q679.878 1450.39 685.688 1450.39 Z" fill="#000000" fill-rule="nonzero" fill-opacity="1"></path><path clip-path="url(#clip800)" d="M715.85 1454.1 Q712.239 1454.1 710.41 1457.66 Q708.605 1461.2 708.605 1468.33 Q708.605 1475.44 710.41 1479.01 Q712.239 1482.55 715.85 1482.55 Q719.484 1482.55 721.29 1479.01 Q723.119 1475.44 723.119 1468.33 Q723.119 1461.2 721.29 1457.66 Q719.484 1454.1 715.85 1454.1 M715.85 1450.39 Q721.66 1450.39 724.716 1455 Q727.794 1459.58 727.794 1468.33 Q727.794 1477.06 724.716 1481.67 Q721.66 1486.25 715.85 1486.25 Q710.04 1486.25 706.961 1481.67 Q703.906 1477.06 703.906 1468.33 Q703.906 1459.58 706.961 1455 Q710.04 1450.39 715.85 1450.39 Z" fill="#000000" fill-rule="nonzero" fill-opacity="1"></path><path clip-path="url(#clip800)" d="M1040.54 1481.64 L1056.86 1481.64 L1056.86 1485.58 L1034.91 1485.58 L1034.91 1481.64 Q1037.57 1478.89 1042.16 1474.26 Q1046.76 1469.61 1047.94 1468.27 Q1050.19 1465.74 1051.07 1464.01 Q1051.97 1462.25 1051.97 1460.56 Q1051.97 1457.8 1050.03 1456.07 Q1048.11 1454.33 1045 1454.33 Q1042.81 1454.33 1040.35 1455.09 Q1037.92 1455.86 1035.14 1457.41 L1035.14 1452.69 Q1037.97 1451.55 1040.42 1450.97 Q1042.88 1450.39 1044.91 1450.39 Q1050.28 1450.39 1053.48 1453.08 Q1056.67 1455.77 1056.67 1460.26 Q1056.67 1462.39 1055.86 1464.31 Q1055.07 1466.2 1052.97 1468.8 Q1052.39 1469.47 1049.29 1472.69 Q1046.19 1475.88 1040.54 1481.64 Z" fill="#000000" fill-rule="nonzero" fill-opacity="1"></path><path clip-path="url(#clip800)" d="M1076.67 1454.1 Q1073.06 1454.1 1071.23 1457.66 Q1069.43 1461.2 1069.43 1468.33 Q1069.43 1475.44 1071.23 1479.01 Q1073.06 1482.55 1076.67 1482.55 Q1080.31 1482.55 1082.11 1479.01 Q1083.94 1475.44 1083.94 1468.33 Q1083.94 1461.2 1082.11 1457.66 Q1080.31 1454.1 1076.67 1454.1 M1076.67 1450.39 Q1082.48 1450.39 1085.54 1455 Q1088.62 1459.58 1088.62 1468.33 Q1088.62 1477.06 1085.54 1481.67 Q1082.48 1486.25 1076.67 1486.25 Q1070.86 1486.25 1067.78 1481.67 Q1064.73 1477.06 1064.73 1468.33 Q1064.73 1459.58 1067.78 1455 Q1070.86 1450.39 1076.67 1450.39 Z" fill="#000000" fill-rule="nonzero" fill-opacity="1"></path><path clip-path="url(#clip800)" d="M1106.83 1454.1 Q1103.22 1454.1 1101.39 1457.66 Q1099.59 1461.2 1099.59 1468.33 Q1099.59 1475.44 1101.39 1479.01 Q1103.22 1482.55 1106.83 1482.55 Q1110.47 1482.55 1112.27 1479.01 Q1114.1 1475.44 1114.1 1468.33 Q1114.1 1461.2 1112.27 1457.66 Q1110.47 1454.1 1106.83 1454.1 M1106.83 1450.39 Q1112.64 1450.39 1115.7 1455 Q1118.78 1459.58 1118.78 1468.33 Q1118.78 1477.06 1115.7 1481.67 Q1112.64 1486.25 1106.83 1486.25 Q1101.02 1486.25 1097.94 1481.67 Q1094.89 1477.06 1094.89 1468.33 Q1094.89 1459.58 1097.94 1455 Q1101.02 1450.39 1106.83 1450.39 Z" fill="#000000" fill-rule="nonzero" fill-opacity="1"></path><path clip-path="url(#clip800)" d="M1136.99 1454.1 Q1133.38 1454.1 1131.56 1457.66 Q1129.75 1461.2 1129.75 1468.33 Q1129.75 1475.44 1131.56 1479.01 Q1133.38 1482.55 1136.99 1482.55 Q1140.63 1482.55 1142.43 1479.01 Q1144.26 1475.44 1144.26 1468.33 Q1144.26 1461.2 1142.43 1457.66 Q1140.63 1454.1 1136.99 1454.1 M1136.99 1450.39 Q1142.81 1450.39 1145.86 1455 Q1148.94 1459.58 1148.94 1468.33 Q1148.94 1477.06 1145.86 1481.67 Q1142.81 1486.25 1136.99 1486.25 Q1131.18 1486.25 1128.11 1481.67 Q1125.05 1477.06 1125.05 1468.33 Q1125.05 1459.58 1128.11 1455 Q1131.18 1450.39 1136.99 1450.39 Z" fill="#000000" fill-rule="nonzero" fill-opacity="1"></path><path clip-path="url(#clip800)" d="M1470.88 1466.95 Q1474.24 1467.66 1476.11 1469.93 Q1478.01 1472.2 1478.01 1475.53 Q1478.01 1480.65 1474.49 1483.45 Q1470.98 1486.25 1464.49 1486.25 Q1462.32 1486.25 1460 1485.81 Q1457.71 1485.39 1455.26 1484.54 L1455.26 1480.02 Q1457.2 1481.16 1459.52 1481.74 Q1461.83 1482.32 1464.36 1482.32 Q1468.75 1482.32 1471.05 1480.58 Q1473.36 1478.84 1473.36 1475.53 Q1473.36 1472.48 1471.21 1470.77 Q1469.08 1469.03 1465.26 1469.03 L1461.23 1469.03 L1461.23 1465.19 L1465.44 1465.19 Q1468.89 1465.19 1470.72 1463.82 Q1472.55 1462.43 1472.55 1459.84 Q1472.55 1457.18 1470.65 1455.77 Q1468.78 1454.33 1465.26 1454.33 Q1463.34 1454.33 1461.14 1454.75 Q1458.94 1455.16 1456.3 1456.04 L1456.3 1451.88 Q1458.96 1451.14 1461.28 1450.77 Q1463.61 1450.39 1465.67 1450.39 Q1471 1450.39 1474.1 1452.83 Q1477.2 1455.23 1477.2 1459.35 Q1477.2 1462.22 1475.56 1464.21 Q1473.92 1466.18 1470.88 1466.95 Z" fill="#000000" fill-rule="nonzero" fill-opacity="1"></path><path clip-path="url(#clip800)" d="M1496.88 1454.1 Q1493.27 1454.1 1491.44 1457.66 Q1489.63 1461.2 1489.63 1468.33 Q1489.63 1475.44 1491.44 1479.01 Q1493.27 1482.55 1496.88 1482.55 Q1500.51 1482.55 1502.32 1479.01 Q1504.15 1475.44 1504.15 1468.33 Q1504.15 1461.2 1502.32 1457.66 Q1500.51 1454.1 1496.88 1454.1 M1496.88 1450.39 Q1502.69 1450.39 1505.74 1455 Q1508.82 1459.58 1508.82 1468.33 Q1508.82 1477.06 1505.74 1481.67 Q1502.69 1486.25 1496.88 1486.25 Q1491.07 1486.25 1487.99 1481.67 Q1484.93 1477.06 1484.93 1468.33 Q1484.93 1459.58 1487.99 1455 Q1491.07 1450.39 1496.88 1450.39 Z" fill="#000000" fill-rule="nonzero" fill-opacity="1"></path><path clip-path="url(#clip800)" d="M1527.04 1454.1 Q1523.43 1454.1 1521.6 1457.66 Q1519.79 1461.2 1519.79 1468.33 Q1519.79 1475.44 1521.6 1479.01 Q1523.43 1482.55 1527.04 1482.55 Q1530.67 1482.55 1532.48 1479.01 Q1534.31 1475.44 1534.31 1468.33 Q1534.31 1461.2 1532.48 1457.66 Q1530.67 1454.1 1527.04 1454.1 M1527.04 1450.39 Q1532.85 1450.39 1535.91 1455 Q1538.98 1459.58 1538.98 1468.33 Q1538.98 1477.06 1535.91 1481.67 Q1532.85 1486.25 1527.04 1486.25 Q1521.23 1486.25 1518.15 1481.67 Q1515.1 1477.06 1515.1 1468.33 Q1515.1 1459.58 1518.15 1455 Q1521.23 1450.39 1527.04 1450.39 Z" fill="#000000" fill-rule="nonzero" fill-opacity="1"></path><path clip-path="url(#clip800)" d="M1557.2 1454.1 Q1553.59 1454.1 1551.76 1457.66 Q1549.96 1461.2 1549.96 1468.33 Q1549.96 1475.44 1551.76 1479.01 Q1553.59 1482.55 1557.2 1482.55 Q1560.84 1482.55 1562.64 1479.01 Q1564.47 1475.44 1564.47 1468.33 Q1564.47 1461.2 1562.64 1457.66 Q1560.84 1454.1 1557.2 1454.1 M1557.2 1450.39 Q1563.01 1450.39 1566.07 1455 Q1569.15 1459.58 1569.15 1468.33 Q1569.15 1477.06 1566.07 1481.67 Q1563.01 1486.25 1557.2 1486.25 Q1551.39 1486.25 1548.31 1481.67 Q1545.26 1477.06 1545.26 1468.33 Q1545.26 1459.58 1548.31 1455 Q1551.39 1450.39 1557.2 1450.39 Z" fill="#000000" fill-rule="nonzero" fill-opacity="1"></path><path clip-path="url(#clip800)" d="M1890.49 1455.09 L1878.68 1473.54 L1890.49 1473.54 L1890.49 1455.09 M1889.26 1451.02 L1895.14 1451.02 L1895.14 1473.54 L1900.07 1473.54 L1900.07 1477.43 L1895.14 1477.43 L1895.14 1485.58 L1890.49 1485.58 L1890.49 1477.43 L1874.89 1477.43 L1874.89 1472.92 L1889.26 1451.02 Z" fill="#000000" fill-rule="nonzero" fill-opacity="1"></path><path clip-path="url(#clip800)" d="M1917.8 1454.1 Q1914.19 1454.1 1912.36 1457.66 Q1910.56 1461.2 1910.56 1468.33 Q1910.56 1475.44 1912.36 1479.01 Q1914.19 1482.55 1917.8 1482.55 Q1921.44 1482.55 1923.24 1479.01 Q1925.07 1475.44 1925.07 1468.33 Q1925.07 1461.2 1923.24 1457.66 Q1921.44 1454.1 1917.8 1454.1 M1917.8 1450.39 Q1923.61 1450.39 1926.67 1455 Q1929.75 1459.58 1929.75 1468.33 Q1929.75 1477.06 1926.67 1481.67 Q1923.61 1486.25 1917.8 1486.25 Q1911.99 1486.25 1908.91 1481.67 Q1905.86 1477.06 1905.86 1468.33 Q1905.86 1459.58 1908.91 1455 Q1911.99 1450.39 1917.8 1450.39 Z" fill="#000000" fill-rule="nonzero" fill-opacity="1"></path><path clip-path="url(#clip800)" d="M1947.97 1454.1 Q1944.35 1454.1 1942.53 1457.66 Q1940.72 1461.2 1940.72 1468.33 Q1940.72 1475.44 1942.53 1479.01 Q1944.35 1482.55 1947.97 1482.55 Q1951.6 1482.55 1953.4 1479.01 Q1955.23 1475.44 1955.23 1468.33 Q1955.23 1461.2 1953.4 1457.66 Q1951.6 1454.1 1947.97 1454.1 M1947.97 1450.39 Q1953.78 1450.39 1956.83 1455 Q1959.91 1459.58 1959.91 1468.33 Q1959.91 1477.06 1956.83 1481.67 Q1953.78 1486.25 1947.97 1486.25 Q1942.16 1486.25 1939.08 1481.67 Q1936.02 1477.06 1936.02 1468.33 Q1936.02 1459.58 1939.08 1455 Q1942.16 1450.39 1947.97 1450.39 Z" fill="#000000" fill-rule="nonzero" fill-opacity="1"></path><path clip-path="url(#clip800)" d="M1978.13 1454.1 Q1974.52 1454.1 1972.69 1457.66 Q1970.88 1461.2 1970.88 1468.33 Q1970.88 1475.44 1972.69 1479.01 Q1974.52 1482.55 1978.13 1482.55 Q1981.76 1482.55 1983.57 1479.01 Q1985.4 1475.44 1985.4 1468.33 Q1985.4 1461.2 1983.57 1457.66 Q1981.76 1454.1 1978.13 1454.1 M1978.13 1450.39 Q1983.94 1450.39 1986.99 1455 Q1990.07 1459.58 1990.07 1468.33 Q1990.07 1477.06 1986.99 1481.67 Q1983.94 1486.25 1978.13 1486.25 Q1972.32 1486.25 1969.24 1481.67 Q1966.18 1477.06 1966.18 1468.33 Q1966.18 1459.58 1969.24 1455 Q1972.32 1450.39 1978.13 1450.39 Z" fill="#000000" fill-rule="nonzero" fill-opacity="1"></path><path clip-path="url(#clip800)" d="M2297.29 1451.02 L2315.65 1451.02 L2315.65 1454.96 L2301.58 1454.96 L2301.58 1463.43 Q2302.59 1463.08 2303.61 1462.92 Q2304.63 1462.73 2305.65 1462.73 Q2311.44 1462.73 2314.82 1465.9 Q2318.2 1469.08 2318.2 1474.49 Q2318.2 1480.07 2314.72 1483.17 Q2311.25 1486.25 2304.93 1486.25 Q2302.76 1486.25 2300.49 1485.88 Q2298.24 1485.51 2295.83 1484.77 L2295.83 1480.07 Q2297.92 1481.2 2300.14 1481.76 Q2302.36 1482.32 2304.84 1482.32 Q2308.84 1482.32 2311.18 1480.21 Q2313.52 1478.1 2313.52 1474.49 Q2313.52 1470.88 2311.18 1468.77 Q2308.84 1466.67 2304.84 1466.67 Q2302.96 1466.67 2301.09 1467.08 Q2299.24 1467.5 2297.29 1468.38 L2297.29 1451.02 Z" fill="#000000" fill-rule="nonzero" fill-opacity="1"></path><path clip-path="url(#clip800)" d="M2337.41 1454.1 Q2333.8 1454.1 2331.97 1457.66 Q2330.16 1461.2 2330.16 1468.33 Q2330.16 1475.44 2331.97 1479.01 Q2333.8 1482.55 2337.41 1482.55 Q2341.04 1482.55 2342.85 1479.01 Q2344.68 1475.44 2344.68 1468.33 Q2344.68 1461.2 2342.85 1457.66 Q2341.04 1454.1 2337.41 1454.1 M2337.41 1450.39 Q2343.22 1450.39 2346.27 1455 Q2349.35 1459.58 2349.35 1468.33 Q2349.35 1477.06 2346.27 1481.67 Q2343.22 1486.25 2337.41 1486.25 Q2331.6 1486.25 2328.52 1481.67 Q2325.46 1477.06 2325.46 1468.33 Q2325.46 1459.58 2328.52 1455 Q2331.6 1450.39 2337.41 1450.39 Z" fill="#000000" fill-rule="nonzero" fill-opacity="1"></path><path clip-path="url(#clip800)" d="M2367.57 1454.1 Q2363.96 1454.1 2362.13 1457.66 Q2360.33 1461.2 2360.33 1468.33 Q2360.33 1475.44 2362.13 1479.01 Q2363.96 1482.55 2367.57 1482.55 Q2371.2 1482.55 2373.01 1479.01 Q2374.84 1475.44 2374.84 1468.33 Q2374.84 1461.2 2373.01 1457.66 Q2371.2 1454.1 2367.57 1454.1 M2367.57 1450.39 Q2373.38 1450.39 2376.44 1455 Q2379.52 1459.58 2379.52 1468.33 Q2379.52 1477.06 2376.44 1481.67 Q2373.38 1486.25 2367.57 1486.25 Q2361.76 1486.25 2358.68 1481.67 Q2355.63 1477.06 2355.63 1468.33 Q2355.63 1459.58 2358.68 1455 Q2361.76 1450.39 2367.57 1450.39 Z" fill="#000000" fill-rule="nonzero" fill-opacity="1"></path><path clip-path="url(#clip800)" d="M2397.73 1454.1 Q2394.12 1454.1 2392.29 1457.66 Q2390.49 1461.2 2390.49 1468.33 Q2390.49 1475.44 2392.29 1479.01 Q2394.12 1482.55 2397.73 1482.55 Q2401.37 1482.55 2403.17 1479.01 Q2405 1475.44 2405 1468.33 Q2405 1461.2 2403.17 1457.66 Q2401.37 1454.1 2397.73 1454.1 M2397.73 1450.39 Q2403.54 1450.39 2406.6 1455 Q2409.68 1459.58 2409.68 1468.33 Q2409.68 1477.06 2406.6 1481.67 Q2403.54 1486.25 2397.73 1486.25 Q2391.92 1486.25 2388.84 1481.67 Q2385.79 1477.06 2385.79 1468.33 Q2385.79 1459.58 2388.84 1455 Q2391.92 1450.39 2397.73 1450.39 Z" fill="#000000" fill-rule="nonzero" fill-opacity="1"></path><path clip-path="url(#clip800)" d="M1034.9 1522.27 L1034.9 1532.4 L1046.96 1532.4 L1046.96 1536.95 L1034.9 1536.95 L1034.9 1556.3 Q1034.9 1560.66 1036.07 1561.9 Q1037.28 1563.14 1040.94 1563.14 L1046.96 1563.14 L1046.96 1568.04 L1040.94 1568.04 Q1034.16 1568.04 1031.59 1565.53 Q1029.01 1562.98 1029.01 1556.3 L1029.01 1536.95 L1024.71 1536.95 L1024.71 1532.4 L1029.01 1532.4 L1029.01 1522.27 L1034.9 1522.27 Z" fill="#000000" fill-rule="nonzero" fill-opacity="1"></path><path clip-path="url(#clip800)" d="M1075.32 1537.87 Q1074.33 1537.3 1073.15 1537.04 Q1072.01 1536.76 1070.61 1536.76 Q1065.64 1536.76 1062.97 1540 Q1060.33 1543.22 1060.33 1549.27 L1060.33 1568.04 L1054.44 1568.04 L1054.44 1532.4 L1060.33 1532.4 L1060.33 1537.93 Q1062.17 1534.69 1065.13 1533.13 Q1068.09 1531.54 1072.33 1531.54 Q1072.93 1531.54 1073.66 1531.63 Q1074.39 1531.7 1075.29 1531.85 L1075.32 1537.87 Z" fill="#000000" fill-rule="nonzero" fill-opacity="1"></path><path clip-path="url(#clip800)" d="M1097.66 1550.12 Q1090.56 1550.12 1087.83 1551.75 Q1085.09 1553.37 1085.09 1557.29 Q1085.09 1560.4 1087.13 1562.25 Q1089.19 1564.07 1092.73 1564.07 Q1097.6 1564.07 1100.53 1560.63 Q1103.49 1557.16 1103.49 1551.43 L1103.49 1550.12 L1097.66 1550.12 M1109.34 1547.71 L1109.34 1568.04 L1103.49 1568.04 L1103.49 1562.63 Q1101.48 1565.88 1098.49 1567.44 Q1095.5 1568.97 1091.17 1568.97 Q1085.69 1568.97 1082.45 1565.91 Q1079.23 1562.82 1079.23 1557.67 Q1079.23 1551.65 1083.24 1548.6 Q1087.29 1545.54 1095.27 1545.54 L1103.49 1545.54 L1103.49 1544.97 Q1103.49 1540.93 1100.81 1538.73 Q1098.17 1536.5 1093.36 1536.5 Q1090.31 1536.5 1087.41 1537.23 Q1084.52 1537.97 1081.84 1539.43 L1081.84 1534.02 Q1085.06 1532.78 1088.08 1532.17 Q1091.1 1531.54 1093.97 1531.54 Q1101.7 1531.54 1105.52 1535.55 Q1109.34 1539.56 1109.34 1547.71 Z" fill="#000000" fill-rule="nonzero" fill-opacity="1"></path><path clip-path="url(#clip800)" d="M1151.04 1546.53 L1151.04 1568.04 L1145.18 1568.04 L1145.18 1546.72 Q1145.18 1541.66 1143.21 1539.14 Q1141.23 1536.63 1137.29 1536.63 Q1132.55 1536.63 1129.81 1539.65 Q1127.07 1542.68 1127.07 1547.9 L1127.07 1568.04 L1121.18 1568.04 L1121.18 1532.4 L1127.07 1532.4 L1127.07 1537.93 Q1129.17 1534.72 1132 1533.13 Q1134.87 1531.54 1138.59 1531.54 Q1144.74 1531.54 1147.89 1535.36 Q1151.04 1539.14 1151.04 1546.53 Z" fill="#000000" fill-rule="nonzero" fill-opacity="1"></path><path clip-path="url(#clip800)" d="M1185.44 1533.45 L1185.44 1538.98 Q1182.96 1537.71 1180.29 1537.07 Q1177.61 1536.44 1174.75 1536.44 Q1170.39 1536.44 1168.19 1537.77 Q1166.03 1539.11 1166.03 1541.79 Q1166.03 1543.82 1167.59 1545 Q1169.15 1546.15 1173.86 1547.2 L1175.86 1547.64 Q1182.1 1548.98 1184.71 1551.43 Q1187.35 1553.85 1187.35 1558.21 Q1187.35 1563.17 1183.41 1566.07 Q1179.49 1568.97 1172.62 1568.97 Q1169.75 1568.97 1166.63 1568.39 Q1163.55 1567.85 1160.11 1566.74 L1160.11 1560.69 Q1163.36 1562.38 1166.51 1563.24 Q1169.66 1564.07 1172.74 1564.07 Q1176.88 1564.07 1179.11 1562.66 Q1181.34 1561.23 1181.34 1558.65 Q1181.34 1556.27 1179.72 1554.99 Q1178.12 1553.72 1172.68 1552.54 L1170.64 1552.07 Q1165.2 1550.92 1162.78 1548.56 Q1160.36 1546.18 1160.36 1542.04 Q1160.36 1537.01 1163.93 1534.27 Q1167.49 1531.54 1174.05 1531.54 Q1177.3 1531.54 1180.16 1532.01 Q1183.03 1532.49 1185.44 1533.45 Z" fill="#000000" fill-rule="nonzero" fill-opacity="1"></path><path clip-path="url(#clip800)" d="M1196.68 1532.4 L1202.54 1532.4 L1202.54 1568.04 L1196.68 1568.04 L1196.68 1532.4 M1196.68 1518.52 L1202.54 1518.52 L1202.54 1525.93 L1196.68 1525.93 L1196.68 1518.52 Z" fill="#000000" fill-rule="nonzero" fill-opacity="1"></path><path clip-path="url(#clip800)" d="M1245.28 1548.76 L1245.28 1551.62 L1218.35 1551.62 Q1218.74 1557.67 1221.98 1560.85 Q1225.26 1564 1231.09 1564 Q1234.46 1564 1237.61 1563.17 Q1240.79 1562.35 1243.91 1560.69 L1243.91 1566.23 Q1240.76 1567.57 1237.45 1568.27 Q1234.14 1568.97 1230.74 1568.97 Q1222.21 1568.97 1217.21 1564 Q1212.24 1559.04 1212.24 1550.57 Q1212.24 1541.82 1216.95 1536.69 Q1221.7 1531.54 1229.72 1531.54 Q1236.91 1531.54 1241.08 1536.18 Q1245.28 1540.8 1245.28 1548.76 M1239.43 1547.04 Q1239.36 1542.23 1236.72 1539.37 Q1234.11 1536.5 1229.78 1536.5 Q1224.88 1536.5 1221.92 1539.27 Q1218.99 1542.04 1218.55 1547.07 L1239.43 1547.04 Z" fill="#000000" fill-rule="nonzero" fill-opacity="1"></path><path clip-path="url(#clip800)" d="M1284.53 1546.53 L1284.53 1568.04 L1278.67 1568.04 L1278.67 1546.72 Q1278.67 1541.66 1276.7 1539.14 Q1274.72 1536.63 1270.78 1536.63 Q1266.03 1536.63 1263.3 1539.65 Q1260.56 1542.68 1260.56 1547.9 L1260.56 1568.04 L1254.67 1568.04 L1254.67 1532.4 L1260.56 1532.4 L1260.56 1537.93 Q1262.66 1534.72 1265.49 1533.13 Q1268.36 1531.54 1272.08 1531.54 Q1278.22 1531.54 1281.38 1535.36 Q1284.53 1539.14 1284.53 1546.53 Z" fill="#000000" fill-rule="nonzero" fill-opacity="1"></path><path clip-path="url(#clip800)" d="M1302 1522.27 L1302 1532.4 L1314.06 1532.4 L1314.06 1536.95 L1302 1536.95 L1302 1556.3 Q1302 1560.66 1303.18 1561.9 Q1304.39 1563.14 1308.05 1563.14 L1314.06 1563.14 L1314.06 1568.04 L1308.05 1568.04 Q1301.27 1568.04 1298.69 1565.53 Q1296.11 1562.98 1296.11 1556.3 L1296.11 1536.95 L1291.82 1536.95 L1291.82 1532.4 L1296.11 1532.4 L1296.11 1522.27 L1302 1522.27 Z" fill="#000000" fill-rule="nonzero" fill-opacity="1"></path><path clip-path="url(#clip800)" d="M1342.49 1518.52 L1348.34 1518.52 L1348.34 1568.04 L1342.49 1568.04 L1342.49 1518.52 Z" fill="#000000" fill-rule="nonzero" fill-opacity="1"></path><path clip-path="url(#clip800)" d="M1360.6 1532.4 L1366.45 1532.4 L1366.45 1568.04 L1360.6 1568.04 L1360.6 1532.4 M1360.6 1518.52 L1366.45 1518.52 L1366.45 1525.93 L1360.6 1525.93 L1360.6 1518.52 Z" fill="#000000" fill-rule="nonzero" fill-opacity="1"></path><path clip-path="url(#clip800)" d="M1396.75 1518.52 L1396.75 1523.39 L1391.15 1523.39 Q1388 1523.39 1386.76 1524.66 Q1385.55 1525.93 1385.55 1529.24 L1385.55 1532.4 L1395.19 1532.4 L1395.19 1536.95 L1385.55 1536.95 L1385.55 1568.04 L1379.66 1568.04 L1379.66 1536.95 L1374.06 1536.95 L1374.06 1532.4 L1379.66 1532.4 L1379.66 1529.91 Q1379.66 1523.96 1382.43 1521.26 Q1385.2 1518.52 1391.22 1518.52 L1396.75 1518.52 Z" fill="#000000" fill-rule="nonzero" fill-opacity="1"></path><path clip-path="url(#clip800)" d="M1432.15 1548.76 L1432.15 1551.62 L1405.22 1551.62 Q1405.6 1557.67 1408.85 1560.85 Q1412.13 1564 1417.95 1564 Q1421.33 1564 1424.48 1563.17 Q1427.66 1562.35 1430.78 1560.69 L1430.78 1566.23 Q1427.63 1567.57 1424.32 1568.27 Q1421.01 1568.97 1417.6 1568.97 Q1409.07 1568.97 1404.07 1564 Q1399.11 1559.04 1399.11 1550.57 Q1399.11 1541.82 1403.82 1536.69 Q1408.56 1531.54 1416.58 1531.54 Q1423.78 1531.54 1427.95 1536.18 Q1432.15 1540.8 1432.15 1548.76 M1426.29 1547.04 Q1426.23 1542.23 1423.59 1539.37 Q1420.98 1536.5 1416.65 1536.5 Q1411.75 1536.5 1408.79 1539.27 Q1405.86 1542.04 1405.41 1547.07 L1426.29 1547.04 Z" fill="#000000" fill-rule="nonzero" fill-opacity="1"></path><path clip-path="url(#clip800)" d="M1447.55 1522.27 L1447.55 1532.4 L1459.62 1532.4 L1459.62 1536.95 L1447.55 1536.95 L1447.55 1556.3 Q1447.55 1560.66 1448.73 1561.9 Q1449.94 1563.14 1453.6 1563.14 L1459.62 1563.14 L1459.62 1568.04 L1453.6 1568.04 Q1446.82 1568.04 1444.24 1565.53 Q1441.66 1562.98 1441.66 1556.3 L1441.66 1536.95 L1437.37 1536.95 L1437.37 1532.4 L1441.66 1532.4 L1441.66 1522.27 L1447.55 1522.27 Z" fill="#000000" fill-rule="nonzero" fill-opacity="1"></path><path clip-path="url(#clip800)" d="M1467.32 1532.4 L1473.17 1532.4 L1473.17 1568.04 L1467.32 1568.04 L1467.32 1532.4 M1467.32 1518.52 L1473.17 1518.52 L1473.17 1525.93 L1467.32 1525.93 L1467.32 1518.52 Z" fill="#000000" fill-rule="nonzero" fill-opacity="1"></path><path clip-path="url(#clip800)" d="M1513.18 1539.24 Q1515.38 1535.29 1518.43 1533.41 Q1521.49 1531.54 1525.63 1531.54 Q1531.2 1531.54 1534.22 1535.45 Q1537.25 1539.33 1537.25 1546.53 L1537.25 1568.04 L1531.36 1568.04 L1531.36 1546.72 Q1531.36 1541.59 1529.54 1539.11 Q1527.73 1536.63 1524 1536.63 Q1519.45 1536.63 1516.81 1539.65 Q1514.17 1542.68 1514.17 1547.9 L1514.17 1568.04 L1508.28 1568.04 L1508.28 1546.72 Q1508.28 1541.56 1506.47 1539.11 Q1504.65 1536.63 1500.87 1536.63 Q1496.38 1536.63 1493.74 1539.68 Q1491.09 1542.71 1491.09 1547.9 L1491.09 1568.04 L1485.21 1568.04 L1485.21 1532.4 L1491.09 1532.4 L1491.09 1537.93 Q1493.1 1534.66 1495.9 1533.1 Q1498.7 1531.54 1502.55 1531.54 Q1506.44 1531.54 1509.14 1533.51 Q1511.88 1535.48 1513.18 1539.24 Z" fill="#000000" fill-rule="nonzero" fill-opacity="1"></path><path clip-path="url(#clip800)" d="M1579.42 1548.76 L1579.42 1551.62 L1552.49 1551.62 Q1552.87 1557.67 1556.12 1560.85 Q1559.4 1564 1565.22 1564 Q1568.6 1564 1571.75 1563.17 Q1574.93 1562.35 1578.05 1560.69 L1578.05 1566.23 Q1574.9 1567.57 1571.59 1568.27 Q1568.28 1568.97 1564.87 1568.97 Q1556.34 1568.97 1551.35 1564 Q1546.38 1559.04 1546.38 1550.57 Q1546.38 1541.82 1551.09 1536.69 Q1555.83 1531.54 1563.85 1531.54 Q1571.05 1531.54 1575.22 1536.18 Q1579.42 1540.8 1579.42 1548.76 M1573.56 1547.04 Q1573.5 1542.23 1570.86 1539.37 Q1568.25 1536.5 1563.92 1536.5 Q1559.02 1536.5 1556.06 1539.27 Q1553.13 1542.04 1552.68 1547.07 L1573.56 1547.04 Z" fill="#000000" fill-rule="nonzero" fill-opacity="1"></path><polyline clip-path="url(#clip800)" style="stroke:#000000; stroke-linecap:round; stroke-linejoin:round; stroke-width:4; stroke-opacity:1; fill:none" points="251.372,1423.18 251.372,47.2441 "></polyline>
<polyline clip-path="url(#clip800)" style="stroke:#000000; stroke-linecap:round; stroke-linejoin:round; stroke-width:4; stroke-opacity:1; fill:none" points="251.372,219.43 270.27,219.43 "></polyline>
<polyline clip-path="url(#clip800)" style="stroke:#000000; stroke-linecap:round; stroke-linejoin:round; stroke-width:4; stroke-opacity:1; fill:none" points="251.372,1378.78 270.27,1378.78 "></polyline>
<path clip-path="url(#clip800)" d="M114.931 239.222 L122.57 239.222 L122.57 212.856 L114.26 214.523 L114.26 210.264 L122.524 208.597 L127.2 208.597 L127.2 239.222 L134.839 239.222 L134.839 243.157 L114.931 243.157 L114.931 239.222 Z" fill="#000000" fill-rule="nonzero" fill-opacity="1"></path><path clip-path="url(#clip800)" d="M154.283 211.676 Q150.672 211.676 148.843 215.241 Q147.038 218.782 147.038 225.912 Q147.038 233.018 148.843 236.583 Q150.672 240.125 154.283 240.125 Q157.917 240.125 159.723 236.583 Q161.552 233.018 161.552 225.912 Q161.552 218.782 159.723 215.241 Q157.917 211.676 154.283 211.676 M154.283 207.972 Q160.093 207.972 163.149 212.579 Q166.227 217.162 166.227 225.912 Q166.227 234.639 163.149 239.245 Q160.093 243.829 154.283 243.829 Q148.473 243.829 145.394 239.245 Q142.339 234.639 142.339 225.912 Q142.339 217.162 145.394 212.579 Q148.473 207.972 154.283 207.972 Z" fill="#000000" fill-rule="nonzero" fill-opacity="1"></path><path clip-path="url(#clip800)" d="M166.227 202.074 L190.339 202.074 L190.339 205.271 L166.227 205.271 L166.227 202.074 Z" fill="#000000" fill-rule="nonzero" fill-opacity="1"></path><path clip-path="url(#clip800)" d="M199.197 212.549 L205.404 212.549 L205.404 191.127 L198.652 192.482 L198.652 189.021 L205.366 187.667 L209.166 187.667 L209.166 212.549 L215.372 212.549 L215.372 215.747 L199.197 215.747 L199.197 212.549 Z" fill="#000000" fill-rule="nonzero" fill-opacity="1"></path><path clip-path="url(#clip800)" d="M115.232 1398.57 L122.871 1398.57 L122.871 1372.2 L114.561 1373.87 L114.561 1369.61 L122.825 1367.94 L127.501 1367.94 L127.501 1398.57 L135.14 1398.57 L135.14 1402.5 L115.232 1402.5 L115.232 1398.57 Z" fill="#000000" fill-rule="nonzero" fill-opacity="1"></path><path clip-path="url(#clip800)" d="M154.584 1371.02 Q150.973 1371.02 149.144 1374.59 Q147.339 1378.13 147.339 1385.26 Q147.339 1392.36 149.144 1395.93 Q150.973 1399.47 154.584 1399.47 Q158.218 1399.47 160.024 1395.93 Q161.852 1392.36 161.852 1385.26 Q161.852 1378.13 160.024 1374.59 Q158.218 1371.02 154.584 1371.02 M154.584 1367.32 Q160.394 1367.32 163.45 1371.92 Q166.528 1376.51 166.528 1385.26 Q166.528 1393.98 163.45 1398.59 Q160.394 1403.17 154.584 1403.17 Q148.774 1403.17 145.695 1398.59 Q142.64 1393.98 142.64 1385.26 Q142.64 1376.51 145.695 1371.92 Q148.774 1367.32 154.584 1367.32 Z" fill="#000000" fill-rule="nonzero" fill-opacity="1"></path><path clip-path="url(#clip800)" d="M166.528 1361.42 L190.64 1361.42 L190.64 1364.62 L166.528 1364.62 L166.528 1361.42 Z" fill="#000000" fill-rule="nonzero" fill-opacity="1"></path><path clip-path="url(#clip800)" d="M202.113 1371.9 L215.372 1371.9 L215.372 1375.09 L197.542 1375.09 L197.542 1371.9 Q199.705 1369.66 203.429 1365.9 Q207.172 1362.12 208.131 1361.02 Q209.956 1358.97 210.67 1357.56 Q211.404 1356.13 211.404 1354.76 Q211.404 1352.52 209.824 1351.11 Q208.263 1349.7 205.743 1349.7 Q203.956 1349.7 201.962 1350.32 Q199.987 1350.94 197.73 1352.2 L197.73 1348.37 Q200.025 1347.45 202.019 1346.97 Q204.012 1346.5 205.667 1346.5 Q210.031 1346.5 212.626 1348.69 Q215.222 1350.87 215.222 1354.52 Q215.222 1356.25 214.563 1357.81 Q213.924 1359.35 212.212 1361.46 Q211.742 1362 209.222 1364.62 Q206.702 1367.21 202.113 1371.9 Z" fill="#000000" fill-rule="nonzero" fill-opacity="1"></path><path clip-path="url(#clip800)" d="M14.479 874.271 L19.3487 874.271 L19.3487 879.873 Q19.3487 883.024 20.6219 884.265 Q21.895 885.474 25.2052 885.474 L28.3562 885.474 L28.3562 875.83 L32.9077 875.83 L32.9077 885.474 L64.0042 885.474 L64.0042 891.363 L32.9077 891.363 L32.9077 896.965 L28.3562 896.965 L28.3562 891.363 L25.8736 891.363 Q19.9216 891.363 17.2162 888.594 Q14.479 885.825 14.479 879.809 L14.479 874.271 Z" fill="#000000" fill-rule="nonzero" fill-opacity="1"></path><path clip-path="url(#clip800)" d="M33.8307 848.713 Q33.2578 849.699 33.0032 850.877 Q32.7167 852.023 32.7167 853.423 Q32.7167 858.388 35.9632 861.062 Q39.1779 863.704 45.2253 863.704 L64.0042 863.704 L64.0042 869.592 L28.3562 869.592 L28.3562 863.704 L33.8944 863.704 Q30.6479 861.858 29.0883 858.898 Q27.4968 855.938 27.4968 851.704 Q27.4968 851.1 27.5923 850.368 Q27.656 849.636 27.8151 848.744 L33.8307 848.713 Z" fill="#000000" fill-rule="nonzero" fill-opacity="1"></path><path clip-path="url(#clip800)" d="M44.7161 813.51 L47.5806 813.51 L47.5806 840.437 Q53.6281 840.055 56.8109 836.809 Q59.9619 833.53 59.9619 827.706 Q59.9619 824.332 59.1344 821.181 Q58.3069 817.998 56.6518 814.879 L62.1899 814.879 Q63.5267 818.03 64.227 821.34 Q64.9272 824.65 64.9272 828.056 Q64.9272 836.586 59.9619 841.583 Q54.9967 846.548 46.5303 846.548 Q37.7774 846.548 32.6531 841.838 Q27.4968 837.095 27.4968 829.074 Q27.4968 821.881 32.1438 817.712 Q36.7589 813.51 44.7161 813.51 M42.9973 819.367 Q38.1912 819.43 35.3266 822.072 Q32.4621 824.682 32.4621 829.011 Q32.4621 833.912 35.2312 836.872 Q38.0002 839.801 43.0292 840.246 L42.9973 819.367 Z" fill="#000000" fill-rule="nonzero" fill-opacity="1"></path><path clip-path="url(#clip800)" d="M46.212 800.397 Q52.6732 800.397 56.3653 797.755 Q60.0256 795.081 60.0256 790.434 Q60.0256 785.788 56.3653 783.114 Q52.6732 780.44 46.212 780.44 Q39.7508 780.44 36.0905 783.114 Q32.3984 785.788 32.3984 790.434 Q32.3984 795.081 36.0905 797.755 Q39.7508 800.397 46.212 800.397 M58.657 780.44 Q61.8398 782.286 63.3994 785.119 Q64.9272 787.92 64.9272 791.867 Q64.9272 798.328 59.771 802.402 Q54.6147 806.444 46.212 806.444 Q37.8093 806.444 32.6531 802.402 Q27.4968 798.328 27.4968 791.867 Q27.4968 787.92 29.0564 785.119 Q30.5842 782.286 33.7671 780.44 L28.3562 780.44 L28.3562 774.584 L77.5631 774.584 L77.5631 780.44 L58.657 780.44 Z" fill="#000000" fill-rule="nonzero" fill-opacity="1"></path><path clip-path="url(#clip800)" d="M49.9359 763.126 L28.3562 763.126 L28.3562 757.269 L49.7131 757.269 Q54.7739 757.269 57.3202 755.296 Q59.8346 753.322 59.8346 749.376 Q59.8346 744.633 56.8109 741.896 Q53.7872 739.127 48.5673 739.127 L28.3562 739.127 L28.3562 733.27 L64.0042 733.27 L64.0042 739.127 L58.5296 739.127 Q61.7762 741.259 63.3676 744.092 Q64.9272 746.893 64.9272 750.617 Q64.9272 756.76 61.1078 759.943 Q57.2883 763.126 49.9359 763.126 M27.4968 748.389 L27.4968 748.389 Z" fill="#000000" fill-rule="nonzero" fill-opacity="1"></path><path clip-path="url(#clip800)" d="M44.7161 690.716 L47.5806 690.716 L47.5806 717.643 Q53.6281 717.261 56.8109 714.014 Q59.9619 710.736 59.9619 704.911 Q59.9619 701.537 59.1344 698.386 Q58.3069 695.204 56.6518 692.084 L62.1899 692.084 Q63.5267 695.235 64.227 698.545 Q64.9272 701.856 64.9272 705.261 Q64.9272 713.791 59.9619 718.788 Q54.9967 723.754 46.5303 723.754 Q37.7774 723.754 32.6531 719.043 Q27.4968 714.301 27.4968 706.28 Q27.4968 699.087 32.1438 694.917 Q36.7589 690.716 44.7161 690.716 M42.9973 696.572 Q38.1912 696.636 35.3266 699.278 Q32.4621 701.887 32.4621 706.216 Q32.4621 711.118 35.2312 714.078 Q38.0002 717.006 43.0292 717.452 L42.9973 696.572 Z" fill="#000000" fill-rule="nonzero" fill-opacity="1"></path><path clip-path="url(#clip800)" d="M42.4881 651.471 L64.0042 651.471 L64.0042 657.328 L42.679 657.328 Q37.6183 657.328 35.1038 659.301 Q32.5894 661.274 32.5894 665.221 Q32.5894 669.963 35.6131 672.701 Q38.6368 675.438 43.8567 675.438 L64.0042 675.438 L64.0042 681.326 L28.3562 681.326 L28.3562 675.438 L33.8944 675.438 Q30.6797 673.337 29.0883 670.505 Q27.4968 667.64 27.4968 663.916 Q27.4968 657.773 31.3163 654.622 Q35.1038 651.471 42.4881 651.471 Z" fill="#000000" fill-rule="nonzero" fill-opacity="1"></path><path clip-path="url(#clip800)" d="M29.7248 614.136 L35.1993 614.136 Q33.8307 616.619 33.1623 619.133 Q32.4621 621.616 32.4621 624.162 Q32.4621 629.86 36.0905 633.011 Q39.6872 636.162 46.212 636.162 Q52.7369 636.162 56.3653 633.011 Q59.9619 629.86 59.9619 624.162 Q59.9619 621.616 59.2935 619.133 Q58.5933 616.619 57.2247 614.136 L62.6355 614.136 Q63.7814 616.587 64.3543 619.229 Q64.9272 621.839 64.9272 624.799 Q64.9272 632.851 59.8664 637.594 Q54.8057 642.336 46.212 642.336 Q37.491 642.336 32.4939 637.562 Q27.4968 632.756 27.4968 624.417 Q27.4968 621.711 28.0697 619.133 Q28.6108 616.555 29.7248 614.136 Z" fill="#000000" fill-rule="nonzero" fill-opacity="1"></path><path clip-path="url(#clip800)" d="M67.3143 589.119 Q73.68 591.602 75.6216 593.957 Q77.5631 596.312 77.5631 600.259 L77.5631 604.938 L72.6615 604.938 L72.6615 601.5 Q72.6615 599.081 71.5157 597.745 Q70.3699 596.408 66.1048 594.784 L63.4312 593.734 L28.3562 608.152 L28.3562 601.946 L56.238 590.806 L28.3562 579.666 L28.3562 573.459 L67.3143 589.119 Z" fill="#000000" fill-rule="nonzero" fill-opacity="1"></path><circle clip-path="url(#clip802)" cx="356.441" cy="86.1857" r="14.4" fill="#ffffff" fill-rule="evenodd" fill-opacity="1" stroke="#000000" stroke-opacity="1" stroke-width="3.2"></circle>
<circle clip-path="url(#clip802)" cx="461.511" cy="105.069" r="14.4" fill="#ffffff" fill-rule="evenodd" fill-opacity="1" stroke="#000000" stroke-opacity="1" stroke-width="3.2"></circle>
<circle clip-path="url(#clip802)" cx="566.58" cy="173.678" r="14.4" fill="#ffffff" fill-rule="evenodd" fill-opacity="1" stroke="#000000" stroke-opacity="1" stroke-width="3.2"></circle>
<circle clip-path="url(#clip802)" cx="671.649" cy="258.542" r="14.4" fill="#ffffff" fill-rule="evenodd" fill-opacity="1" stroke="#000000" stroke-opacity="1" stroke-width="3.2"></circle>
<circle clip-path="url(#clip802)" cx="776.718" cy="328.422" r="14.4" fill="#ffffff" fill-rule="evenodd" fill-opacity="1" stroke="#000000" stroke-opacity="1" stroke-width="3.2"></circle>
<circle clip-path="url(#clip802)" cx="881.787" cy="388.742" r="14.4" fill="#ffffff" fill-rule="evenodd" fill-opacity="1" stroke="#000000" stroke-opacity="1" stroke-width="3.2"></circle>
<circle clip-path="url(#clip802)" cx="986.856" cy="443.751" r="14.4" fill="#ffffff" fill-rule="evenodd" fill-opacity="1" stroke="#000000" stroke-opacity="1" stroke-width="3.2"></circle>
<circle clip-path="url(#clip802)" cx="1091.93" cy="535.706" r="14.4" fill="#ffffff" fill-rule="evenodd" fill-opacity="1" stroke="#000000" stroke-opacity="1" stroke-width="3.2"></circle>
<circle clip-path="url(#clip802)" cx="1196.99" cy="607.539" r="14.4" fill="#ffffff" fill-rule="evenodd" fill-opacity="1" stroke="#000000" stroke-opacity="1" stroke-width="3.2"></circle>
<circle clip-path="url(#clip802)" cx="1302.06" cy="657.817" r="14.4" fill="#ffffff" fill-rule="evenodd" fill-opacity="1" stroke="#000000" stroke-opacity="1" stroke-width="3.2"></circle>
<circle clip-path="url(#clip802)" cx="1407.13" cy="720.436" r="14.4" fill="#ffffff" fill-rule="evenodd" fill-opacity="1" stroke="#000000" stroke-opacity="1" stroke-width="3.2"></circle>
<circle clip-path="url(#clip802)" cx="1512.2" cy="834.492" r="14.4" fill="#ffffff" fill-rule="evenodd" fill-opacity="1" stroke="#000000" stroke-opacity="1" stroke-width="3.2"></circle>
<circle clip-path="url(#clip802)" cx="1617.27" cy="879.078" r="14.4" fill="#ffffff" fill-rule="evenodd" fill-opacity="1" stroke="#000000" stroke-opacity="1" stroke-width="3.2"></circle>
<circle clip-path="url(#clip802)" cx="1722.34" cy="991.43" r="14.4" fill="#ffffff" fill-rule="evenodd" fill-opacity="1" stroke="#000000" stroke-opacity="1" stroke-width="3.2"></circle>
<circle clip-path="url(#clip802)" cx="1827.41" cy="1045.52" r="14.4" fill="#ffffff" fill-rule="evenodd" fill-opacity="1" stroke="#000000" stroke-opacity="1" stroke-width="3.2"></circle>
<circle clip-path="url(#clip802)" cx="1932.48" cy="1158.52" r="14.4" fill="#ffffff" fill-rule="evenodd" fill-opacity="1" stroke="#000000" stroke-opacity="1" stroke-width="3.2"></circle>
<circle clip-path="url(#clip802)" cx="2037.55" cy="1300.13" r="14.4" fill="#ffffff" fill-rule="evenodd" fill-opacity="1" stroke="#000000" stroke-opacity="1" stroke-width="3.2"></circle>
<circle clip-path="url(#clip802)" cx="2142.62" cy="1239.39" r="14.4" fill="#ffffff" fill-rule="evenodd" fill-opacity="1" stroke="#000000" stroke-opacity="1" stroke-width="3.2"></circle>
<circle clip-path="url(#clip802)" cx="2247.69" cy="1384.24" r="14.4" fill="#ffffff" fill-rule="evenodd" fill-opacity="1" stroke="#000000" stroke-opacity="1" stroke-width="3.2"></circle>
</svg>