<svg xmlns="http://www.w3.org/2000/svg" xmlns:xlink="http://www.w3.org/1999/xlink" width="600" height="400" viewBox="0 0 2400 1600">
<defs>
  <clipPath id="clip840">
    <rect x="0" y="0" width="2400" height="1600"></rect>
  </clipPath>
</defs>
<path clip-path="url(#clip840)" d="M0 1600 L2400 1600 L2400 0 L0 0  Z" fill="#ffffff" fill-rule="evenodd" fill-opacity="1"></path>
<defs>
  <clipPath id="clip841">
    <rect x="480" y="0" width="1681" height="1600"></rect>
  </clipPath>
</defs>
<path clip-path="url(#clip840)" d="M193.936 1486.45 L2352.76 1486.45 L2352.76 47.2441 L193.936 47.2441  Z" fill="#ffffff" fill-rule="evenodd" fill-opacity="1"></path>
<defs>
  <clipPath id="clip842">
    <rect x="193" y="47" width="2160" height="1440"></rect>
  </clipPath>
</defs>
<polyline clip-path="url(#clip842)" style="stroke:#000000; stroke-linecap:round; stroke-linejoin:round; stroke-width:2; stroke-opacity:0.1; fill:none" points="255.035,1486.45 255.035,47.2441 "></polyline>
<polyline clip-path="url(#clip842)" style="stroke:#000000; stroke-linecap:round; stroke-linejoin:round; stroke-width:2; stroke-opacity:0.1; fill:none" points="764.19,1486.45 764.19,47.2441 "></polyline>
<polyline clip-path="url(#clip842)" style="stroke:#000000; stroke-linecap:round; stroke-linejoin:round; stroke-width:2; stroke-opacity:0.1; fill:none" points="1273.35,1486.45 1273.35,47.2441 "></polyline>
<polyline clip-path="url(#clip842)" style="stroke:#000000; stroke-linecap:round; stroke-linejoin:round; stroke-width:2; stroke-opacity:0.1; fill:none" points="1782.5,1486.45 1782.5,47.2441 "></polyline>
<polyline clip-path="url(#clip842)" style="stroke:#000000; stroke-linecap:round; stroke-linejoin:round; stroke-width:2; stroke-opacity:0.1; fill:none" points="2291.66,1486.45 2291.66,47.2441 "></polyline>
<polyline clip-path="url(#clip842)" style="stroke:#000000; stroke-linecap:round; stroke-linejoin:round; stroke-width:2; stroke-opacity:0.1; fill:none" points="193.936,1445.77 2352.76,1445.77 "></polyline>
<polyline clip-path="url(#clip842)" style="stroke:#000000; stroke-linecap:round; stroke-linejoin:round; stroke-width:2; stroke-opacity:0.1; fill:none" points="193.936,1106.25 2352.76,1106.25 "></polyline>
<polyline clip-path="url(#clip842)" style="stroke:#000000; stroke-linecap:round; stroke-linejoin:round; stroke-width:2; stroke-opacity:0.1; fill:none" points="193.936,766.727 2352.76,766.727 "></polyline>
<polyline clip-path="url(#clip842)" style="stroke:#000000; stroke-linecap:round; stroke-linejoin:round; stroke-width:2; stroke-opacity:0.1; fill:none" points="193.936,427.207 2352.76,427.207 "></polyline>
<polyline clip-path="url(#clip842)" style="stroke:#000000; stroke-linecap:round; stroke-linejoin:round; stroke-width:2; stroke-opacity:0.1; fill:none" points="193.936,87.6867 2352.76,87.6867 "></polyline>
<polyline clip-path="url(#clip840)" style="stroke:#000000; stroke-linecap:round; stroke-linejoin:round; stroke-width:4; stroke-opacity:1; fill:none" points="193.936,1486.45 2352.76,1486.45 "></polyline>
<polyline clip-path="url(#clip840)" style="stroke:#000000; stroke-linecap:round; stroke-linejoin:round; stroke-width:4; stroke-opacity:1; fill:none" points="255.035,1486.45 255.035,1467.55 "></polyline>
<polyline clip-path="url(#clip840)" style="stroke:#000000; stroke-linecap:round; stroke-linejoin:round; stroke-width:4; stroke-opacity:1; fill:none" points="764.19,1486.45 764.19,1467.55 "></polyline>
<polyline clip-path="url(#clip840)" style="stroke:#000000; stroke-linecap:round; stroke-linejoin:round; stroke-width:4; stroke-opacity:1; fill:none" points="1273.35,1486.45 1273.35,1467.55 "></polyline>
<polyline clip-path="url(#clip840)" style="stroke:#000000; stroke-linecap:round; stroke-linejoin:round; stroke-width:4; stroke-opacity:1; fill:none" points="1782.5,1486.45 1782.5,1467.55 "></polyline>
<polyline clip-path="url(#clip840)" style="stroke:#000000; stroke-linecap:round; stroke-linejoin:round; stroke-width:4; stroke-opacity:1; fill:none" points="2291.66,1486.45 2291.66,1467.55 "></polyline>
<path clip-path="url(#clip840)" d="M232.419 1517.37 Q228.808 1517.37 226.979 1520.93 Q225.174 1524.47 225.174 1531.6 Q225.174 1538.71 226.979 1542.27 Q228.808 1545.82 232.419 1545.82 Q236.053 1545.82 237.859 1542.27 Q239.688 1538.71 239.688 1531.6 Q239.688 1524.47 237.859 1520.93 Q236.053 1517.37 232.419 1517.37 M232.419 1513.66 Q238.229 1513.66 241.285 1518.27 Q244.363 1522.85 244.363 1531.6 Q244.363 1540.33 241.285 1544.94 Q238.229 1549.52 232.419 1549.52 Q226.609 1549.52 223.53 1544.94 Q220.475 1540.33 220.475 1531.6 Q220.475 1522.85 223.53 1518.27 Q226.609 1513.66 232.419 1513.66 Z" fill="#000000" fill-rule="nonzero" fill-opacity="1"></path><path clip-path="url(#clip840)" d="M252.581 1542.97 L257.465 1542.97 L257.465 1548.85 L252.581 1548.85 L252.581 1542.97 Z" fill="#000000" fill-rule="nonzero" fill-opacity="1"></path><path clip-path="url(#clip840)" d="M277.65 1517.37 Q274.039 1517.37 272.211 1520.93 Q270.405 1524.47 270.405 1531.6 Q270.405 1538.71 272.211 1542.27 Q274.039 1545.82 277.65 1545.82 Q281.285 1545.82 283.09 1542.27 Q284.919 1538.71 284.919 1531.6 Q284.919 1524.47 283.09 1520.93 Q281.285 1517.37 277.65 1517.37 M277.65 1513.66 Q283.46 1513.66 286.516 1518.27 Q289.595 1522.85 289.595 1531.6 Q289.595 1540.33 286.516 1544.94 Q283.46 1549.52 277.65 1549.52 Q271.84 1549.52 268.761 1544.94 Q265.706 1540.33 265.706 1531.6 Q265.706 1522.85 268.761 1518.27 Q271.84 1513.66 277.65 1513.66 Z" fill="#000000" fill-rule="nonzero" fill-opacity="1"></path><path clip-path="url(#clip840)" d="M735.927 1544.91 L752.246 1544.91 L752.246 1548.85 L730.302 1548.85 L730.302 1544.91 Q732.964 1542.16 737.547 1537.53 Q742.153 1532.88 743.334 1531.53 Q745.579 1529.01 746.459 1527.27 Q747.362 1525.51 747.362 1523.82 Q747.362 1521.07 745.417 1519.33 Q743.496 1517.6 740.394 1517.6 Q738.195 1517.6 735.741 1518.36 Q733.311 1519.13 730.533 1520.68 L730.533 1515.95 Q733.357 1514.82 735.811 1514.24 Q738.265 1513.66 740.302 1513.66 Q745.672 1513.66 748.866 1516.35 Q752.061 1519.03 752.061 1523.52 Q752.061 1525.65 751.251 1527.57 Q750.464 1529.47 748.357 1532.07 Q747.778 1532.74 744.677 1535.95 Q741.575 1539.15 735.927 1544.91 Z" fill="#000000" fill-rule="nonzero" fill-opacity="1"></path><path clip-path="url(#clip840)" d="M762.061 1542.97 L766.945 1542.97 L766.945 1548.85 L762.061 1548.85 L762.061 1542.97 Z" fill="#000000" fill-rule="nonzero" fill-opacity="1"></path><path clip-path="url(#clip840)" d="M777.176 1514.29 L795.533 1514.29 L795.533 1518.22 L781.459 1518.22 L781.459 1526.7 Q782.477 1526.35 783.496 1526.19 Q784.514 1526 785.533 1526 Q791.32 1526 794.699 1529.17 Q798.079 1532.34 798.079 1537.76 Q798.079 1543.34 794.607 1546.44 Q791.135 1549.52 784.815 1549.52 Q782.639 1549.52 780.371 1549.15 Q778.125 1548.78 775.718 1548.04 L775.718 1543.34 Q777.801 1544.47 780.024 1545.03 Q782.246 1545.58 784.723 1545.58 Q788.727 1545.58 791.065 1543.48 Q793.403 1541.37 793.403 1537.76 Q793.403 1534.15 791.065 1532.04 Q788.727 1529.94 784.723 1529.94 Q782.848 1529.94 780.973 1530.35 Q779.121 1530.77 777.176 1531.65 L777.176 1514.29 Z" fill="#000000" fill-rule="nonzero" fill-opacity="1"></path><path clip-path="url(#clip840)" d="M1240.51 1514.29 L1258.87 1514.29 L1258.87 1518.22 L1244.79 1518.22 L1244.79 1526.7 Q1245.81 1526.35 1246.83 1526.19 Q1247.85 1526 1248.87 1526 Q1254.65 1526 1258.03 1529.17 Q1261.41 1532.34 1261.41 1537.76 Q1261.41 1543.34 1257.94 1546.44 Q1254.47 1549.52 1248.15 1549.52 Q1245.97 1549.52 1243.7 1549.15 Q1241.46 1548.78 1239.05 1548.04 L1239.05 1543.34 Q1241.14 1544.47 1243.36 1545.03 Q1245.58 1545.58 1248.06 1545.58 Q1252.06 1545.58 1254.4 1543.48 Q1256.74 1541.37 1256.74 1537.76 Q1256.74 1534.15 1254.4 1532.04 Q1252.06 1529.94 1248.06 1529.94 Q1246.18 1529.94 1244.31 1530.35 Q1242.45 1530.77 1240.51 1531.65 L1240.51 1514.29 Z" fill="#000000" fill-rule="nonzero" fill-opacity="1"></path><path clip-path="url(#clip840)" d="M1270.63 1542.97 L1275.51 1542.97 L1275.51 1548.85 L1270.63 1548.85 L1270.63 1542.97 Z" fill="#000000" fill-rule="nonzero" fill-opacity="1"></path><path clip-path="url(#clip840)" d="M1295.7 1517.37 Q1292.08 1517.37 1290.26 1520.93 Q1288.45 1524.47 1288.45 1531.6 Q1288.45 1538.71 1290.26 1542.27 Q1292.08 1545.82 1295.7 1545.82 Q1299.33 1545.82 1301.14 1542.27 Q1302.96 1538.71 1302.96 1531.6 Q1302.96 1524.47 1301.14 1520.93 Q1299.33 1517.37 1295.7 1517.37 M1295.7 1513.66 Q1301.51 1513.66 1304.56 1518.27 Q1307.64 1522.85 1307.64 1531.6 Q1307.64 1540.33 1304.56 1544.94 Q1301.51 1549.52 1295.7 1549.52 Q1289.89 1549.52 1286.81 1544.94 Q1283.75 1540.33 1283.75 1531.6 Q1283.75 1522.85 1286.81 1518.27 Q1289.89 1513.66 1295.7 1513.66 Z" fill="#000000" fill-rule="nonzero" fill-opacity="1"></path><path clip-path="url(#clip840)" d="M1748.82 1514.29 L1771.04 1514.29 L1771.04 1516.28 L1758.5 1548.85 L1753.61 1548.85 L1765.42 1518.22 L1748.82 1518.22 L1748.82 1514.29 Z" fill="#000000" fill-rule="nonzero" fill-opacity="1"></path><path clip-path="url(#clip840)" d="M1780.16 1542.97 L1785.05 1542.97 L1785.05 1548.85 L1780.16 1548.85 L1780.16 1542.97 Z" fill="#000000" fill-rule="nonzero" fill-opacity="1"></path><path clip-path="url(#clip840)" d="M1795.28 1514.29 L1813.64 1514.29 L1813.64 1518.22 L1799.56 1518.22 L1799.56 1526.7 Q1800.58 1526.35 1801.6 1526.19 Q1802.62 1526 1803.64 1526 Q1809.42 1526 1812.8 1529.17 Q1816.18 1532.34 1816.18 1537.76 Q1816.18 1543.34 1812.71 1546.44 Q1809.24 1549.52 1802.92 1549.52 Q1800.74 1549.52 1798.47 1549.15 Q1796.23 1548.78 1793.82 1548.04 L1793.82 1543.34 Q1795.9 1544.47 1798.13 1545.03 Q1800.35 1545.58 1802.83 1545.58 Q1806.83 1545.58 1809.17 1543.48 Q1811.51 1541.37 1811.51 1537.76 Q1811.51 1534.15 1809.17 1532.04 Q1806.83 1529.94 1802.83 1529.94 Q1800.95 1529.94 1799.08 1530.35 Q1797.22 1530.77 1795.28 1531.65 L1795.28 1514.29 Z" fill="#000000" fill-rule="nonzero" fill-opacity="1"></path><path clip-path="url(#clip840)" d="M2243.73 1544.91 L2251.37 1544.91 L2251.37 1518.55 L2243.06 1520.21 L2243.06 1515.95 L2251.32 1514.29 L2256 1514.29 L2256 1544.91 L2263.64 1544.91 L2263.64 1548.85 L2243.73 1548.85 L2243.73 1544.91 Z" fill="#000000" fill-rule="nonzero" fill-opacity="1"></path><path clip-path="url(#clip840)" d="M2283.08 1517.37 Q2279.47 1517.37 2277.64 1520.93 Q2275.84 1524.47 2275.84 1531.6 Q2275.84 1538.71 2277.64 1542.27 Q2279.47 1545.82 2283.08 1545.82 Q2286.72 1545.82 2288.52 1542.27 Q2290.35 1538.71 2290.35 1531.6 Q2290.35 1524.47 2288.52 1520.93 Q2286.72 1517.37 2283.08 1517.37 M2283.08 1513.66 Q2288.89 1513.66 2291.95 1518.27 Q2295.03 1522.85 2295.03 1531.6 Q2295.03 1540.33 2291.95 1544.94 Q2288.89 1549.52 2283.08 1549.52 Q2277.27 1549.52 2274.19 1544.94 Q2271.14 1540.33 2271.14 1531.6 Q2271.14 1522.85 2274.19 1518.27 Q2277.27 1513.66 2283.08 1513.66 Z" fill="#000000" fill-rule="nonzero" fill-opacity="1"></path><path clip-path="url(#clip840)" d="M2303.24 1542.97 L2308.13 1542.97 L2308.13 1548.85 L2303.24 1548.85 L2303.24 1542.97 Z" fill="#000000" fill-rule="nonzero" fill-opacity="1"></path><path clip-path="url(#clip840)" d="M2328.31 1517.37 Q2324.7 1517.37 2322.87 1520.93 Q2321.07 1524.47 2321.07 1531.6 Q2321.07 1538.71 2322.87 1542.27 Q2324.7 1545.82 2328.31 1545.82 Q2331.95 1545.82 2333.75 1542.27 Q2335.58 1538.71 2335.58 1531.6 Q2335.58 1524.47 2333.75 1520.93 Q2331.95 1517.37 2328.31 1517.37 M2328.31 1513.66 Q2334.12 1513.66 2337.18 1518.27 Q2340.26 1522.85 2340.26 1531.6 Q2340.26 1540.33 2337.18 1544.94 Q2334.12 1549.52 2328.31 1549.52 Q2322.5 1549.52 2319.42 1544.94 Q2316.37 1540.33 2316.37 1531.6 Q2316.37 1522.85 2319.42 1518.27 Q2322.5 1513.66 2328.31 1513.66 Z" fill="#000000" fill-rule="nonzero" fill-opacity="1"></path><polyline clip-path="url(#clip840)" style="stroke:#000000; stroke-linecap:round; stroke-linejoin:round; stroke-width:4; stroke-opacity:1; fill:none" points="193.936,1486.45 193.936,47.2441 "></polyline>
<polyline clip-path="url(#clip840)" style="stroke:#000000; stroke-linecap:round; stroke-linejoin:round; stroke-width:4; stroke-opacity:1; fill:none" points="193.936,1445.77 212.834,1445.77 "></polyline>
<polyline clip-path="url(#clip840)" style="stroke:#000000; stroke-linecap:round; stroke-linejoin:round; stroke-width:4; stroke-opacity:1; fill:none" points="193.936,1106.25 212.834,1106.25 "></polyline>
<polyline clip-path="url(#clip840)" style="stroke:#000000; stroke-linecap:round; stroke-linejoin:round; stroke-width:4; stroke-opacity:1; fill:none" points="193.936,766.727 212.834,766.727 "></polyline>
<polyline clip-path="url(#clip840)" style="stroke:#000000; stroke-linecap:round; stroke-linejoin:round; stroke-width:4; stroke-opacity:1; fill:none" points="193.936,427.207 212.834,427.207 "></polyline>
<polyline clip-path="url(#clip840)" style="stroke:#000000; stroke-linecap:round; stroke-linejoin:round; stroke-width:4; stroke-opacity:1; fill:none" points="193.936,87.6867 212.834,87.6867 "></polyline>
<path clip-path="url(#clip840)" d="M50.9921 1446.22 L80.6679 1446.22 L80.6679 1450.15 L50.9921 1450.15 L50.9921 1446.22 Z" fill="#000000" fill-rule="nonzero" fill-opacity="1"></path><path clip-path="url(#clip840)" d="M91.5706 1459.11 L99.2095 1459.11 L99.2095 1432.75 L90.8993 1434.41 L90.8993 1430.15 L99.1632 1428.49 L103.839 1428.49 L103.839 1459.11 L111.478 1459.11 L111.478 1463.05 L91.5706 1463.05 L91.5706 1459.11 Z" fill="#000000" fill-rule="nonzero" fill-opacity="1"></path><path clip-path="url(#clip840)" d="M120.922 1457.17 L125.807 1457.17 L125.807 1463.05 L120.922 1463.05 L120.922 1457.17 Z" fill="#000000" fill-rule="nonzero" fill-opacity="1"></path><path clip-path="url(#clip840)" d="M145.992 1431.57 Q142.381 1431.57 140.552 1435.13 Q138.746 1438.67 138.746 1445.8 Q138.746 1452.91 140.552 1456.47 Q142.381 1460.02 145.992 1460.02 Q149.626 1460.02 151.431 1456.47 Q153.26 1452.91 153.26 1445.8 Q153.26 1438.67 151.431 1435.13 Q149.626 1431.57 145.992 1431.57 M145.992 1427.86 Q151.802 1427.86 154.857 1432.47 Q157.936 1437.05 157.936 1445.8 Q157.936 1454.53 154.857 1459.14 Q151.802 1463.72 145.992 1463.72 Q140.181 1463.72 137.103 1459.14 Q134.047 1454.53 134.047 1445.8 Q134.047 1437.05 137.103 1432.47 Q140.181 1427.86 145.992 1427.86 Z" fill="#000000" fill-rule="nonzero" fill-opacity="1"></path><path clip-path="url(#clip840)" d="M51.9875 1106.7 L81.6633 1106.7 L81.6633 1110.63 L51.9875 1110.63 L51.9875 1106.7 Z" fill="#000000" fill-rule="nonzero" fill-opacity="1"></path><path clip-path="url(#clip840)" d="M101.756 1092.05 Q98.1447 1092.05 96.316 1095.61 Q94.5104 1099.15 94.5104 1106.28 Q94.5104 1113.39 96.316 1116.95 Q98.1447 1120.5 101.756 1120.5 Q105.39 1120.5 107.196 1116.95 Q109.024 1113.39 109.024 1106.28 Q109.024 1099.15 107.196 1095.61 Q105.39 1092.05 101.756 1092.05 M101.756 1088.34 Q107.566 1088.34 110.621 1092.95 Q113.7 1097.53 113.7 1106.28 Q113.7 1115.01 110.621 1119.62 Q107.566 1124.2 101.756 1124.2 Q95.9456 1124.2 92.8669 1119.62 Q89.8114 1115.01 89.8114 1106.28 Q89.8114 1097.53 92.8669 1092.95 Q95.9456 1088.34 101.756 1088.34 Z" fill="#000000" fill-rule="nonzero" fill-opacity="1"></path><path clip-path="url(#clip840)" d="M121.918 1117.65 L126.802 1117.65 L126.802 1123.53 L121.918 1123.53 L121.918 1117.65 Z" fill="#000000" fill-rule="nonzero" fill-opacity="1"></path><path clip-path="url(#clip840)" d="M137.033 1088.97 L155.39 1088.97 L155.39 1092.9 L141.316 1092.9 L141.316 1101.37 Q142.334 1101.03 143.353 1100.87 Q144.371 1100.68 145.39 1100.68 Q151.177 1100.68 154.556 1103.85 Q157.936 1107.02 157.936 1112.44 Q157.936 1118.02 154.464 1121.12 Q150.992 1124.2 144.672 1124.2 Q142.496 1124.2 140.228 1123.83 Q137.982 1123.46 135.575 1122.72 L135.575 1118.02 Q137.658 1119.15 139.881 1119.71 Q142.103 1120.26 144.58 1120.26 Q148.584 1120.26 150.922 1118.16 Q153.26 1116.05 153.26 1112.44 Q153.26 1108.83 150.922 1106.72 Q148.584 1104.62 144.58 1104.62 Q142.705 1104.62 140.83 1105.03 Q138.978 1105.45 137.033 1106.33 L137.033 1088.97 Z" fill="#000000" fill-rule="nonzero" fill-opacity="1"></path><path clip-path="url(#clip840)" d="M100.76 752.526 Q97.1493 752.526 95.3206 756.091 Q93.515 759.632 93.515 766.762 Q93.515 773.868 95.3206 777.433 Q97.1493 780.975 100.76 780.975 Q104.395 780.975 106.2 777.433 Q108.029 773.868 108.029 766.762 Q108.029 759.632 106.2 756.091 Q104.395 752.526 100.76 752.526 M100.76 748.822 Q106.571 748.822 109.626 753.429 Q112.705 758.012 112.705 766.762 Q112.705 775.489 109.626 780.095 Q106.571 784.679 100.76 784.679 Q94.9502 784.679 91.8715 780.095 Q88.816 775.489 88.816 766.762 Q88.816 758.012 91.8715 753.429 Q94.9502 748.822 100.76 748.822 Z" fill="#000000" fill-rule="nonzero" fill-opacity="1"></path><path clip-path="url(#clip840)" d="M120.922 778.128 L125.807 778.128 L125.807 784.007 L120.922 784.007 L120.922 778.128 Z" fill="#000000" fill-rule="nonzero" fill-opacity="1"></path><path clip-path="url(#clip840)" d="M145.992 752.526 Q142.381 752.526 140.552 756.091 Q138.746 759.632 138.746 766.762 Q138.746 773.868 140.552 777.433 Q142.381 780.975 145.992 780.975 Q149.626 780.975 151.431 777.433 Q153.26 773.868 153.26 766.762 Q153.26 759.632 151.431 756.091 Q149.626 752.526 145.992 752.526 M145.992 748.822 Q151.802 748.822 154.857 753.429 Q157.936 758.012 157.936 766.762 Q157.936 775.489 154.857 780.095 Q151.802 784.679 145.992 784.679 Q140.181 784.679 137.103 780.095 Q134.047 775.489 134.047 766.762 Q134.047 758.012 137.103 753.429 Q140.181 748.822 145.992 748.822 Z" fill="#000000" fill-rule="nonzero" fill-opacity="1"></path><path clip-path="url(#clip840)" d="M101.756 413.006 Q98.1447 413.006 96.316 416.57 Q94.5104 420.112 94.5104 427.242 Q94.5104 434.348 96.316 437.913 Q98.1447 441.455 101.756 441.455 Q105.39 441.455 107.196 437.913 Q109.024 434.348 109.024 427.242 Q109.024 420.112 107.196 416.57 Q105.39 413.006 101.756 413.006 M101.756 409.302 Q107.566 409.302 110.621 413.908 Q113.7 418.492 113.7 427.242 Q113.7 435.969 110.621 440.575 Q107.566 445.158 101.756 445.158 Q95.9456 445.158 92.8669 440.575 Q89.8114 435.969 89.8114 427.242 Q89.8114 418.492 92.8669 413.908 Q95.9456 409.302 101.756 409.302 Z" fill="#000000" fill-rule="nonzero" fill-opacity="1"></path><path clip-path="url(#clip840)" d="M121.918 438.607 L126.802 438.607 L126.802 444.487 L121.918 444.487 L121.918 438.607 Z" fill="#000000" fill-rule="nonzero" fill-opacity="1"></path><path clip-path="url(#clip840)" d="M137.033 409.927 L155.39 409.927 L155.39 413.862 L141.316 413.862 L141.316 422.334 Q142.334 421.987 143.353 421.825 Q144.371 421.64 145.39 421.64 Q151.177 421.64 154.556 424.811 Q157.936 427.982 157.936 433.399 Q157.936 438.978 154.464 442.08 Q150.992 445.158 144.672 445.158 Q142.496 445.158 140.228 444.788 Q137.982 444.418 135.575 443.677 L135.575 438.978 Q137.658 440.112 139.881 440.668 Q142.103 441.223 144.58 441.223 Q148.584 441.223 150.922 439.117 Q153.26 437.01 153.26 433.399 Q153.26 429.788 150.922 427.682 Q148.584 425.575 144.58 425.575 Q142.705 425.575 140.83 425.992 Q138.978 426.408 137.033 427.288 L137.033 409.927 Z" fill="#000000" fill-rule="nonzero" fill-opacity="1"></path><path clip-path="url(#clip840)" d="M91.5706 101.032 L99.2095 101.032 L99.2095 74.666 L90.8993 76.3326 L90.8993 72.0734 L99.1632 70.4067 L103.839 70.4067 L103.839 101.032 L111.478 101.032 L111.478 104.967 L91.5706 104.967 L91.5706 101.032 Z" fill="#000000" fill-rule="nonzero" fill-opacity="1"></path><path clip-path="url(#clip840)" d="M120.922 99.0871 L125.807 99.0871 L125.807 104.967 L120.922 104.967 L120.922 99.0871 Z" fill="#000000" fill-rule="nonzero" fill-opacity="1"></path><path clip-path="url(#clip840)" d="M145.992 73.4854 Q142.381 73.4854 140.552 77.0502 Q138.746 80.5919 138.746 87.7215 Q138.746 94.8279 140.552 98.3927 Q142.381 101.934 145.992 101.934 Q149.626 101.934 151.431 98.3927 Q153.26 94.8279 153.26 87.7215 Q153.26 80.5919 151.431 77.0502 Q149.626 73.4854 145.992 73.4854 M145.992 69.7817 Q151.802 69.7817 154.857 74.3882 Q157.936 78.9715 157.936 87.7215 Q157.936 96.4483 154.857 101.055 Q151.802 105.638 145.992 105.638 Q140.181 105.638 137.103 101.055 Q134.047 96.4483 134.047 87.7215 Q134.047 78.9715 137.103 74.3882 Q140.181 69.7817 145.992 69.7817 Z" fill="#000000" fill-rule="nonzero" fill-opacity="1"></path><polyline clip-path="url(#clip842)" style="stroke:#009af9; stroke-linecap:round; stroke-linejoin:round; stroke-width:4; stroke-opacity:1; fill:none" points="255.035,766.727 275.401,698.936 295.767,631.823 316.133,566.057 336.5,502.296 356.866,441.178 377.232,383.312 397.598,329.277 417.964,279.613 438.331,234.817 458.697,195.334 479.063,161.561 499.429,133.835 519.796,112.432 540.162,97.567 560.528,89.3877 580.894,87.9763 601.261,93.3467 621.627,105.445 641.993,124.151 662.359,149.277 682.725,180.573 703.092,217.725 723.458,260.363 743.824,308.06 764.19,360.34 784.557,416.681 804.923,476.519 825.289,539.257 845.655,604.267 866.021,670.901 886.388,738.492 906.754,806.366 927.12,873.843 947.486,940.25 967.853,1004.92 988.219,1067.22 1008.59,1126.51 1028.95,1182.2 1049.32,1233.75 1069.68,1280.63 1090.05,1322.37 1110.42,1358.56 1130.78,1388.84 1151.15,1412.9 1171.51,1430.51 1191.88,1441.48 1212.25,1445.72 1232.61,1443.16 1252.98,1433.85 1273.35,1417.88 1293.71,1395.39 1314.08,1366.63 1334.44,1331.87 1354.81,1291.47 1375.18,1245.82 1395.54,1195.38 1415.91,1140.67 1436.28,1082.21 1456.64,1020.6 1477.01,956.462 1497.37,890.423 1517.74,823.148 1538.11,755.31 1558.47,687.586 1578.84,620.652 1599.21,555.178 1619.57,491.818 1639.94,431.204 1660.3,373.943 1680.67,320.607 1701.04,271.728 1721.4,227.795 1741.77,189.246 1762.14,156.468 1782.5,129.787 1802.87,109.471 1823.23,95.721 1843.6,88.6759 1863.97,88.4056 1884.33,94.9129 1904.7,108.133 1925.07,127.933 1945.43,154.116 1965.8,186.42 1986.16,224.522 2006.53,268.042 2026.9,316.544 2047.26,369.545 2067.63,426.514 2087.99,486.882 2108.36,550.047 2128.73,615.376 2149.09,682.218 2169.46,749.904 2189.83,817.758 2210.19,885.102 2230.56,951.264 2250.92,1015.58 2271.29,1077.41 2291.66,1136.14 "></polyline>
<path clip-path="url(#clip842)" d="M662.359 2925.65 L662.359 -1391.96 L1069.68 -1391.96 L1069.68 2925.65 L662.359 2925.65  Z" fill="#e26f46" fill-rule="evenodd" fill-opacity="0.5"></path>
<polyline clip-path="url(#clip842)" style="stroke:#000000; stroke-linecap:round; stroke-linejoin:round; stroke-width:0; stroke-opacity:0.5; fill:none" points="662.359,2925.65 662.359,-1391.96 1069.68,-1391.96 1069.68,2925.65 662.359,2925.65 "></polyline>
<path clip-path="url(#clip842)" d="M-1964.88 427.207 L4511.58 427.207 L4511.58 223.495 L-1964.88 223.495 L-1964.88 427.207  Z" fill="#3da44d" fill-rule="evenodd" fill-opacity="0.5"></path>
<polyline clip-path="url(#clip842)" style="stroke:#000000; stroke-linecap:round; stroke-linejoin:round; stroke-width:0; stroke-opacity:0.5; fill:none" points="-1964.88,427.207 4511.58,427.207 4511.58,223.495 -1964.88,223.495 -1964.88,427.207 "></polyline>
<path clip-path="url(#clip840)" d="M265.897 1438.47 L534.788 1438.47 L534.788 1231.11 L265.897 1231.11  Z" fill="#ffffff" fill-rule="evenodd" fill-opacity="1"></path>
<polyline clip-path="url(#clip840)" style="stroke:#000000; stroke-linecap:round; stroke-linejoin:round; stroke-width:4; stroke-opacity:1; fill:none" points="265.897,1438.47 534.788,1438.47 534.788,1231.11 265.897,1231.11 265.897,1438.47 "></polyline>
<polyline clip-path="url(#clip840)" style="stroke:#009af9; stroke-linecap:round; stroke-linejoin:round; stroke-width:4; stroke-opacity:1; fill:none" points="289.884,1282.95 433.805,1282.95 "></polyline>
<path clip-path="url(#clip840)" d="M471.634 1302.64 Q469.829 1307.27 468.116 1308.68 Q466.403 1310.1 463.532 1310.1 L460.13 1310.1 L460.13 1306.53 L462.63 1306.53 Q464.389 1306.53 465.361 1305.7 Q466.333 1304.86 467.514 1301.76 L468.278 1299.82 L457.792 1274.31 L462.306 1274.31 L470.407 1294.59 L478.509 1274.31 L483.023 1274.31 L471.634 1302.64 Z" fill="#000000" fill-rule="nonzero" fill-opacity="1"></path><path clip-path="url(#clip840)" d="M490.315 1296.3 L497.954 1296.3 L497.954 1269.93 L489.643 1271.6 L489.643 1267.34 L497.907 1265.67 L502.583 1265.67 L502.583 1296.3 L510.222 1296.3 L510.222 1300.23 L490.315 1300.23 L490.315 1296.3 Z" fill="#000000" fill-rule="nonzero" fill-opacity="1"></path><path clip-path="url(#clip840)" d="M289.884 1355.53 L433.805 1355.53 L433.805 1314.06 L289.884 1314.06 L289.884 1355.53  Z" fill="#e26f46" fill-rule="evenodd" fill-opacity="0.5"></path>
<polyline clip-path="url(#clip840)" style="stroke:#000000; stroke-linecap:round; stroke-linejoin:round; stroke-width:0.8; stroke-opacity:1; fill:none" points="289.884,1355.53 433.805,1355.53 433.805,1314.06 289.884,1314.06 289.884,1355.53 "></polyline>
<path clip-path="url(#clip840)" d="M471.634 1354.48 Q469.829 1359.11 468.116 1360.52 Q466.403 1361.94 463.532 1361.94 L460.13 1361.94 L460.13 1358.37 L462.63 1358.37 Q464.389 1358.37 465.361 1357.54 Q466.333 1356.7 467.514 1353.6 L468.278 1351.66 L457.792 1326.15 L462.306 1326.15 L470.407 1346.43 L478.509 1326.15 L483.023 1326.15 L471.634 1354.48 Z" fill="#000000" fill-rule="nonzero" fill-opacity="1"></path><path clip-path="url(#clip840)" d="M493.532 1348.14 L509.852 1348.14 L509.852 1352.07 L487.907 1352.07 L487.907 1348.14 Q490.569 1345.38 495.153 1340.76 Q499.759 1336.1 500.94 1334.76 Q503.185 1332.24 504.065 1330.5 Q504.967 1328.74 504.967 1327.05 Q504.967 1324.3 503.023 1322.56 Q501.102 1320.82 498 1320.82 Q495.801 1320.82 493.347 1321.59 Q490.917 1322.35 488.139 1323.9 L488.139 1319.18 Q490.963 1318.05 493.417 1317.47 Q495.87 1316.89 497.907 1316.89 Q503.278 1316.89 506.472 1319.57 Q509.666 1322.26 509.666 1326.75 Q509.666 1328.88 508.856 1330.8 Q508.069 1332.7 505.963 1335.29 Q505.384 1335.96 502.282 1339.18 Q499.18 1342.38 493.532 1348.14 Z" fill="#000000" fill-rule="nonzero" fill-opacity="1"></path><path clip-path="url(#clip840)" d="M289.884 1407.37 L433.805 1407.37 L433.805 1365.9 L289.884 1365.9 L289.884 1407.37  Z" fill="#3da44d" fill-rule="evenodd" fill-opacity="0.5"></path>
<polyline clip-path="url(#clip840)" style="stroke:#000000; stroke-linecap:round; stroke-linejoin:round; stroke-width:0.8; stroke-opacity:1; fill:none" points="289.884,1407.37 433.805,1407.37 433.805,1365.9 289.884,1365.9 289.884,1407.37 "></polyline>
<path clip-path="url(#clip840)" d="M471.634 1406.32 Q469.829 1410.95 468.116 1412.36 Q466.403 1413.78 463.532 1413.78 L460.13 1413.78 L460.13 1410.21 L462.63 1410.21 Q464.389 1410.21 465.361 1409.38 Q466.333 1408.54 467.514 1405.44 L468.278 1403.5 L457.792 1377.99 L462.306 1377.99 L470.407 1398.27 L478.509 1377.99 L483.023 1377.99 L471.634 1406.32 Z" fill="#000000" fill-rule="nonzero" fill-opacity="1"></path><path clip-path="url(#clip840)" d="M503.671 1385.28 Q507.028 1386 508.903 1388.27 Q510.801 1390.53 510.801 1393.87 Q510.801 1398.98 507.282 1401.78 Q503.764 1404.59 497.282 1404.59 Q495.106 1404.59 492.792 1404.15 Q490.5 1403.73 488.046 1402.87 L488.046 1398.36 Q489.991 1399.49 492.305 1400.07 Q494.62 1400.65 497.143 1400.65 Q501.542 1400.65 503.833 1398.91 Q506.148 1397.18 506.148 1393.87 Q506.148 1390.81 503.995 1389.1 Q501.866 1387.36 498.046 1387.36 L494.018 1387.36 L494.018 1383.52 L498.231 1383.52 Q501.68 1383.52 503.509 1382.16 Q505.338 1380.77 505.338 1378.17 Q505.338 1375.51 503.44 1374.1 Q501.565 1372.66 498.046 1372.66 Q496.125 1372.66 493.926 1373.08 Q491.727 1373.5 489.088 1374.38 L489.088 1370.21 Q491.75 1369.47 494.065 1369.1 Q496.403 1368.73 498.463 1368.73 Q503.787 1368.73 506.889 1371.16 Q509.991 1373.57 509.991 1377.69 Q509.991 1380.56 508.347 1382.55 Q506.704 1384.52 503.671 1385.28 Z" fill="#000000" fill-rule="nonzero" fill-opacity="1"></path></svg>