<svg xmlns="http://www.w3.org/2000/svg" xmlns:xlink="http://www.w3.org/1999/xlink" width="600" height="400" viewBox="0 0 2400 1600">
<defs>
  <clipPath id="clip630">
    <rect x="0" y="0" width="2400" height="1600"></rect>
  </clipPath>
</defs>
<path clip-path="url(#clip630)" d="
M0 1600 L2400 1600 L2400 0 L0 0  Z
  " fill="#ffffff" fill-rule="evenodd" fill-opacity="1"></path>
<defs>
  <clipPath id="clip631">
    <rect x="480" y="0" width="1681" height="1600"></rect>
  </clipPath>
</defs>
<path clip-path="url(#clip630)" d="
M186.274 1486.45 L2352.76 1486.45 L2352.76 47.2441 L186.274 47.2441  Z
  " fill="#ffffff" fill-rule="evenodd" fill-opacity="1"></path>
<defs>
  <clipPath id="clip632">
    <rect x="186" y="47" width="2167" height="1440"></rect>
  </clipPath>
</defs>
<polyline clip-path="url(#clip632)" style="stroke:#000000; stroke-linecap:round; stroke-linejoin:round; stroke-width:2; stroke-opacity:0.1; fill:none" points="
  208.532,1486.45 208.532,47.2441 
  "></polyline>
<polyline clip-path="url(#clip632)" style="stroke:#000000; stroke-linecap:round; stroke-linejoin:round; stroke-width:2; stroke-opacity:0.1; fill:none" points="
  730.239,1486.45 730.239,47.2441 
  "></polyline>
<polyline clip-path="url(#clip632)" style="stroke:#000000; stroke-linecap:round; stroke-linejoin:round; stroke-width:2; stroke-opacity:0.1; fill:none" points="
  1251.95,1486.45 1251.95,47.2441 
  "></polyline>
<polyline clip-path="url(#clip632)" style="stroke:#000000; stroke-linecap:round; stroke-linejoin:round; stroke-width:2; stroke-opacity:0.1; fill:none" points="
  1773.66,1486.45 1773.66,47.2441 
  "></polyline>
<polyline clip-path="url(#clip632)" style="stroke:#000000; stroke-linecap:round; stroke-linejoin:round; stroke-width:2; stroke-opacity:0.1; fill:none" points="
  2295.36,1486.45 2295.36,47.2441 
  "></polyline>
<polyline clip-path="url(#clip630)" style="stroke:#000000; stroke-linecap:round; stroke-linejoin:round; stroke-width:4; stroke-opacity:1; fill:none" points="
  186.274,1486.45 2352.76,1486.45 
  "></polyline>
<polyline clip-path="url(#clip630)" style="stroke:#000000; stroke-linecap:round; stroke-linejoin:round; stroke-width:4; stroke-opacity:1; fill:none" points="
  208.532,1486.45 208.532,1467.55 
  "></polyline>
<polyline clip-path="url(#clip630)" style="stroke:#000000; stroke-linecap:round; stroke-linejoin:round; stroke-width:4; stroke-opacity:1; fill:none" points="
  730.239,1486.45 730.239,1467.55 
  "></polyline>
<polyline clip-path="url(#clip630)" style="stroke:#000000; stroke-linecap:round; stroke-linejoin:round; stroke-width:4; stroke-opacity:1; fill:none" points="
  1251.95,1486.45 1251.95,1467.55 
  "></polyline>
<polyline clip-path="url(#clip630)" style="stroke:#000000; stroke-linecap:round; stroke-linejoin:round; stroke-width:4; stroke-opacity:1; fill:none" points="
  1773.66,1486.45 1773.66,1467.55 
  "></polyline>
<polyline clip-path="url(#clip630)" style="stroke:#000000; stroke-linecap:round; stroke-linejoin:round; stroke-width:4; stroke-opacity:1; fill:none" points="
  2295.36,1486.45 2295.36,1467.55 
  "></polyline>
<path clip-path="url(#clip630)" d="M170.835 1517.37 Q167.224 1517.37 165.395 1520.93 Q163.59 1524.47 163.59 1531.6 Q163.59 1538.71 165.395 1542.27 Q167.224 1545.82 170.835 1545.82 Q174.469 1545.82 176.275 1542.27 Q178.104 1538.71 178.104 1531.6 Q178.104 1524.47 176.275 1520.93 Q174.469 1517.37 170.835 1517.37 M170.835 1513.66 Q176.645 1513.66 179.701 1518.27 Q182.78 1522.85 182.78 1531.6 Q182.78 1540.33 179.701 1544.94 Q176.645 1549.52 170.835 1549.52 Q165.025 1549.52 161.946 1544.94 Q158.891 1540.33 158.891 1531.6 Q158.891 1522.85 161.946 1518.27 Q165.025 1513.66 170.835 1513.66 Z" fill="#000000" fill-rule="evenodd" fill-opacity="1"></path><path clip-path="url(#clip630)" d="M190.997 1542.97 L195.881 1542.97 L195.881 1548.85 L190.997 1548.85 L190.997 1542.97 Z" fill="#000000" fill-rule="evenodd" fill-opacity="1"></path><path clip-path="url(#clip630)" d="M216.066 1517.37 Q212.455 1517.37 210.627 1520.93 Q208.821 1524.47 208.821 1531.6 Q208.821 1538.71 210.627 1542.27 Q212.455 1545.82 216.066 1545.82 Q219.701 1545.82 221.506 1542.27 Q223.335 1538.71 223.335 1531.6 Q223.335 1524.47 221.506 1520.93 Q219.701 1517.37 216.066 1517.37 M216.066 1513.66 Q221.877 1513.66 224.932 1518.27 Q228.011 1522.85 228.011 1531.6 Q228.011 1540.33 224.932 1544.94 Q221.877 1549.52 216.066 1549.52 Q210.256 1549.52 207.178 1544.94 Q204.122 1540.33 204.122 1531.6 Q204.122 1522.85 207.178 1518.27 Q210.256 1513.66 216.066 1513.66 Z" fill="#000000" fill-rule="evenodd" fill-opacity="1"></path><path clip-path="url(#clip630)" d="M246.228 1517.37 Q242.617 1517.37 240.788 1520.93 Q238.983 1524.47 238.983 1531.6 Q238.983 1538.71 240.788 1542.27 Q242.617 1545.82 246.228 1545.82 Q249.863 1545.82 251.668 1542.27 Q253.497 1538.71 253.497 1531.6 Q253.497 1524.47 251.668 1520.93 Q249.863 1517.37 246.228 1517.37 M246.228 1513.66 Q252.038 1513.66 255.094 1518.27 Q258.173 1522.85 258.173 1531.6 Q258.173 1540.33 255.094 1544.94 Q252.038 1549.52 246.228 1549.52 Q240.418 1549.52 237.339 1544.94 Q234.284 1540.33 234.284 1531.6 Q234.284 1522.85 237.339 1518.27 Q240.418 1513.66 246.228 1513.66 Z" fill="#000000" fill-rule="evenodd" fill-opacity="1"></path><path clip-path="url(#clip630)" d="M693.041 1517.37 Q689.43 1517.37 687.601 1520.93 Q685.795 1524.47 685.795 1531.6 Q685.795 1538.71 687.601 1542.27 Q689.43 1545.82 693.041 1545.82 Q696.675 1545.82 698.48 1542.27 Q700.309 1538.71 700.309 1531.6 Q700.309 1524.47 698.48 1520.93 Q696.675 1517.37 693.041 1517.37 M693.041 1513.66 Q698.851 1513.66 701.906 1518.27 Q704.985 1522.85 704.985 1531.6 Q704.985 1540.33 701.906 1544.94 Q698.851 1549.52 693.041 1549.52 Q687.23 1549.52 684.152 1544.94 Q681.096 1540.33 681.096 1531.6 Q681.096 1522.85 684.152 1518.27 Q687.23 1513.66 693.041 1513.66 Z" fill="#000000" fill-rule="evenodd" fill-opacity="1"></path><path clip-path="url(#clip630)" d="M713.203 1542.97 L718.087 1542.97 L718.087 1548.85 L713.203 1548.85 L713.203 1542.97 Z" fill="#000000" fill-rule="evenodd" fill-opacity="1"></path><path clip-path="url(#clip630)" d="M732.3 1544.91 L748.619 1544.91 L748.619 1548.85 L726.675 1548.85 L726.675 1544.91 Q729.337 1542.16 733.92 1537.53 Q738.526 1532.88 739.707 1531.53 Q741.952 1529.01 742.832 1527.27 Q743.735 1525.51 743.735 1523.82 Q743.735 1521.07 741.79 1519.33 Q739.869 1517.6 736.767 1517.6 Q734.568 1517.6 732.114 1518.36 Q729.684 1519.13 726.906 1520.68 L726.906 1515.95 Q729.73 1514.82 732.184 1514.24 Q734.638 1513.66 736.675 1513.66 Q742.045 1513.66 745.239 1516.35 Q748.434 1519.03 748.434 1523.52 Q748.434 1525.65 747.624 1527.57 Q746.837 1529.47 744.73 1532.07 Q744.151 1532.74 741.05 1535.95 Q737.948 1539.15 732.3 1544.91 Z" fill="#000000" fill-rule="evenodd" fill-opacity="1"></path><path clip-path="url(#clip630)" d="M758.48 1514.29 L776.836 1514.29 L776.836 1518.22 L762.762 1518.22 L762.762 1526.7 Q763.781 1526.35 764.799 1526.19 Q765.818 1526 766.836 1526 Q772.624 1526 776.003 1529.17 Q779.383 1532.34 779.383 1537.76 Q779.383 1543.34 775.911 1546.44 Q772.438 1549.52 766.119 1549.52 Q763.943 1549.52 761.674 1549.15 Q759.429 1548.78 757.022 1548.04 L757.022 1543.34 Q759.105 1544.47 761.327 1545.03 Q763.549 1545.58 766.026 1545.58 Q770.031 1545.58 772.369 1543.48 Q774.707 1541.37 774.707 1537.76 Q774.707 1534.15 772.369 1532.04 Q770.031 1529.94 766.026 1529.94 Q764.151 1529.94 762.276 1530.35 Q760.424 1530.77 758.48 1531.65 L758.48 1514.29 Z" fill="#000000" fill-rule="evenodd" fill-opacity="1"></path><path clip-path="url(#clip630)" d="M1214.25 1517.37 Q1210.64 1517.37 1208.81 1520.93 Q1207.01 1524.47 1207.01 1531.6 Q1207.01 1538.71 1208.81 1542.27 Q1210.64 1545.82 1214.25 1545.82 Q1217.88 1545.82 1219.69 1542.27 Q1221.52 1538.71 1221.52 1531.6 Q1221.52 1524.47 1219.69 1520.93 Q1217.88 1517.37 1214.25 1517.37 M1214.25 1513.66 Q1220.06 1513.66 1223.12 1518.27 Q1226.2 1522.85 1226.2 1531.6 Q1226.2 1540.33 1223.12 1544.94 Q1220.06 1549.52 1214.25 1549.52 Q1208.44 1549.52 1205.36 1544.94 Q1202.31 1540.33 1202.31 1531.6 Q1202.31 1522.85 1205.36 1518.27 Q1208.44 1513.66 1214.25 1513.66 Z" fill="#000000" fill-rule="evenodd" fill-opacity="1"></path><path clip-path="url(#clip630)" d="M1234.41 1542.97 L1239.3 1542.97 L1239.3 1548.85 L1234.41 1548.85 L1234.41 1542.97 Z" fill="#000000" fill-rule="evenodd" fill-opacity="1"></path><path clip-path="url(#clip630)" d="M1249.53 1514.29 L1267.88 1514.29 L1267.88 1518.22 L1253.81 1518.22 L1253.81 1526.7 Q1254.83 1526.35 1255.85 1526.19 Q1256.87 1526 1257.88 1526 Q1263.67 1526 1267.05 1529.17 Q1270.43 1532.34 1270.43 1537.76 Q1270.43 1543.34 1266.96 1546.44 Q1263.49 1549.52 1257.17 1549.52 Q1254.99 1549.52 1252.72 1549.15 Q1250.48 1548.78 1248.07 1548.04 L1248.07 1543.34 Q1250.15 1544.47 1252.38 1545.03 Q1254.6 1545.58 1257.07 1545.58 Q1261.08 1545.58 1263.42 1543.48 Q1265.76 1541.37 1265.76 1537.76 Q1265.76 1534.15 1263.42 1532.04 Q1261.08 1529.94 1257.07 1529.94 Q1255.2 1529.94 1253.32 1530.35 Q1251.47 1530.77 1249.53 1531.65 L1249.53 1514.29 Z" fill="#000000" fill-rule="evenodd" fill-opacity="1"></path><path clip-path="url(#clip630)" d="M1289.64 1517.37 Q1286.03 1517.37 1284.2 1520.93 Q1282.4 1524.47 1282.4 1531.6 Q1282.4 1538.71 1284.2 1542.27 Q1286.03 1545.82 1289.64 1545.82 Q1293.28 1545.82 1295.08 1542.27 Q1296.91 1538.71 1296.91 1531.6 Q1296.91 1524.47 1295.08 1520.93 Q1293.28 1517.37 1289.64 1517.37 M1289.64 1513.66 Q1295.45 1513.66 1298.51 1518.27 Q1301.59 1522.85 1301.59 1531.6 Q1301.59 1540.33 1298.51 1544.94 Q1295.45 1549.52 1289.64 1549.52 Q1283.83 1549.52 1280.75 1544.94 Q1277.7 1540.33 1277.7 1531.6 Q1277.7 1522.85 1280.75 1518.27 Q1283.83 1513.66 1289.64 1513.66 Z" fill="#000000" fill-rule="evenodd" fill-opacity="1"></path><path clip-path="url(#clip630)" d="M1736.46 1517.37 Q1732.85 1517.37 1731.02 1520.93 Q1729.21 1524.47 1729.21 1531.6 Q1729.21 1538.71 1731.02 1542.27 Q1732.85 1545.82 1736.46 1545.82 Q1740.09 1545.82 1741.9 1542.27 Q1743.72 1538.71 1743.72 1531.6 Q1743.72 1524.47 1741.9 1520.93 Q1740.09 1517.37 1736.46 1517.37 M1736.46 1513.66 Q1742.27 1513.66 1745.32 1518.27 Q1748.4 1522.85 1748.4 1531.6 Q1748.4 1540.33 1745.32 1544.94 Q1742.27 1549.52 1736.46 1549.52 Q1730.65 1549.52 1727.57 1544.94 Q1724.51 1540.33 1724.51 1531.6 Q1724.51 1522.85 1727.57 1518.27 Q1730.65 1513.66 1736.46 1513.66 Z" fill="#000000" fill-rule="evenodd" fill-opacity="1"></path><path clip-path="url(#clip630)" d="M1756.62 1542.97 L1761.5 1542.97 L1761.5 1548.85 L1756.62 1548.85 L1756.62 1542.97 Z" fill="#000000" fill-rule="evenodd" fill-opacity="1"></path><path clip-path="url(#clip630)" d="M1770.51 1514.29 L1792.73 1514.29 L1792.73 1516.28 L1780.18 1548.85 L1775.3 1548.85 L1787.1 1518.22 L1770.51 1518.22 L1770.51 1514.29 Z" fill="#000000" fill-rule="evenodd" fill-opacity="1"></path><path clip-path="url(#clip630)" d="M1801.9 1514.29 L1820.25 1514.29 L1820.25 1518.22 L1806.18 1518.22 L1806.18 1526.7 Q1807.2 1526.35 1808.22 1526.19 Q1809.23 1526 1810.25 1526 Q1816.04 1526 1819.42 1529.17 Q1822.8 1532.34 1822.8 1537.76 Q1822.8 1543.34 1819.33 1546.44 Q1815.85 1549.52 1809.53 1549.52 Q1807.36 1549.52 1805.09 1549.15 Q1802.84 1548.78 1800.44 1548.04 L1800.44 1543.34 Q1802.52 1544.47 1804.74 1545.03 Q1806.97 1545.58 1809.44 1545.58 Q1813.45 1545.58 1815.78 1543.48 Q1818.12 1541.37 1818.12 1537.76 Q1818.12 1534.15 1815.78 1532.04 Q1813.45 1529.94 1809.44 1529.94 Q1807.57 1529.94 1805.69 1530.35 Q1803.84 1530.77 1801.9 1531.65 L1801.9 1514.29 Z" fill="#000000" fill-rule="evenodd" fill-opacity="1"></path><path clip-path="url(#clip630)" d="M2247.43 1544.91 L2255.07 1544.91 L2255.07 1518.55 L2246.76 1520.21 L2246.76 1515.95 L2255.03 1514.29 L2259.7 1514.29 L2259.7 1544.91 L2267.34 1544.91 L2267.34 1548.85 L2247.43 1548.85 L2247.43 1544.91 Z" fill="#000000" fill-rule="evenodd" fill-opacity="1"></path><path clip-path="url(#clip630)" d="M2276.79 1542.97 L2281.67 1542.97 L2281.67 1548.85 L2276.79 1548.85 L2276.79 1542.97 Z" fill="#000000" fill-rule="evenodd" fill-opacity="1"></path><path clip-path="url(#clip630)" d="M2301.86 1517.37 Q2298.24 1517.37 2296.42 1520.93 Q2294.61 1524.47 2294.61 1531.6 Q2294.61 1538.71 2296.42 1542.27 Q2298.24 1545.82 2301.86 1545.82 Q2305.49 1545.82 2307.3 1542.27 Q2309.12 1538.71 2309.12 1531.6 Q2309.12 1524.47 2307.3 1520.93 Q2305.49 1517.37 2301.86 1517.37 M2301.86 1513.66 Q2307.67 1513.66 2310.72 1518.27 Q2313.8 1522.85 2313.8 1531.6 Q2313.8 1540.33 2310.72 1544.94 Q2307.67 1549.52 2301.86 1549.52 Q2296.05 1549.52 2292.97 1544.94 Q2289.91 1540.33 2289.91 1531.6 Q2289.91 1522.85 2292.97 1518.27 Q2296.05 1513.66 2301.86 1513.66 Z" fill="#000000" fill-rule="evenodd" fill-opacity="1"></path><path clip-path="url(#clip630)" d="M2332.02 1517.37 Q2328.41 1517.37 2326.58 1520.93 Q2324.77 1524.47 2324.77 1531.6 Q2324.77 1538.71 2326.58 1542.27 Q2328.41 1545.82 2332.02 1545.82 Q2335.65 1545.82 2337.46 1542.27 Q2339.29 1538.71 2339.29 1531.6 Q2339.29 1524.47 2337.46 1520.93 Q2335.65 1517.37 2332.02 1517.37 M2332.02 1513.66 Q2337.83 1513.66 2340.88 1518.27 Q2343.96 1522.85 2343.96 1531.6 Q2343.96 1540.33 2340.88 1544.94 Q2337.83 1549.52 2332.02 1549.52 Q2326.21 1549.52 2323.13 1544.94 Q2320.07 1540.33 2320.07 1531.6 Q2320.07 1522.85 2323.13 1518.27 Q2326.21 1513.66 2332.02 1513.66 Z" fill="#000000" fill-rule="evenodd" fill-opacity="1"></path><polyline clip-path="url(#clip632)" style="stroke:#000000; stroke-linecap:round; stroke-linejoin:round; stroke-width:2; stroke-opacity:0.1; fill:none" points="
  186.274,1453.82 2352.76,1453.82 
  "></polyline>
<polyline clip-path="url(#clip632)" style="stroke:#000000; stroke-linecap:round; stroke-linejoin:round; stroke-width:2; stroke-opacity:0.1; fill:none" points="
  186.274,1108.04 2352.76,1108.04 
  "></polyline>
<polyline clip-path="url(#clip632)" style="stroke:#000000; stroke-linecap:round; stroke-linejoin:round; stroke-width:2; stroke-opacity:0.1; fill:none" points="
  186.274,762.258 2352.76,762.258 
  "></polyline>
<polyline clip-path="url(#clip632)" style="stroke:#000000; stroke-linecap:round; stroke-linejoin:round; stroke-width:2; stroke-opacity:0.1; fill:none" points="
  186.274,416.476 2352.76,416.476 
  "></polyline>
<polyline clip-path="url(#clip632)" style="stroke:#000000; stroke-linecap:round; stroke-linejoin:round; stroke-width:2; stroke-opacity:0.1; fill:none" points="
  186.274,70.6934 2352.76,70.6934 
  "></polyline>
<polyline clip-path="url(#clip630)" style="stroke:#000000; stroke-linecap:round; stroke-linejoin:round; stroke-width:4; stroke-opacity:1; fill:none" points="
  186.274,1486.45 186.274,47.2441 
  "></polyline>
<polyline clip-path="url(#clip630)" style="stroke:#000000; stroke-linecap:round; stroke-linejoin:round; stroke-width:4; stroke-opacity:1; fill:none" points="
  186.274,1453.82 205.172,1453.82 
  "></polyline>
<polyline clip-path="url(#clip630)" style="stroke:#000000; stroke-linecap:round; stroke-linejoin:round; stroke-width:4; stroke-opacity:1; fill:none" points="
  186.274,1108.04 205.172,1108.04 
  "></polyline>
<polyline clip-path="url(#clip630)" style="stroke:#000000; stroke-linecap:round; stroke-linejoin:round; stroke-width:4; stroke-opacity:1; fill:none" points="
  186.274,762.258 205.172,762.258 
  "></polyline>
<polyline clip-path="url(#clip630)" style="stroke:#000000; stroke-linecap:round; stroke-linejoin:round; stroke-width:4; stroke-opacity:1; fill:none" points="
  186.274,416.476 205.172,416.476 
  "></polyline>
<polyline clip-path="url(#clip630)" style="stroke:#000000; stroke-linecap:round; stroke-linejoin:round; stroke-width:4; stroke-opacity:1; fill:none" points="
  186.274,70.6934 205.172,70.6934 
  "></polyline>
<path clip-path="url(#clip630)" d="M62.9365 1439.62 Q59.3254 1439.62 57.4967 1443.19 Q55.6912 1446.73 55.6912 1453.86 Q55.6912 1460.96 57.4967 1464.53 Q59.3254 1468.07 62.9365 1468.07 Q66.5707 1468.07 68.3763 1464.53 Q70.205 1460.96 70.205 1453.86 Q70.205 1446.73 68.3763 1443.19 Q66.5707 1439.62 62.9365 1439.62 M62.9365 1435.92 Q68.7467 1435.92 71.8022 1440.53 Q74.8809 1445.11 74.8809 1453.86 Q74.8809 1462.59 71.8022 1467.19 Q68.7467 1471.77 62.9365 1471.77 Q57.1264 1471.77 54.0477 1467.19 Q50.9921 1462.59 50.9921 1453.86 Q50.9921 1445.11 54.0477 1440.53 Q57.1264 1435.92 62.9365 1435.92 Z" fill="#000000" fill-rule="evenodd" fill-opacity="1"></path><path clip-path="url(#clip630)" d="M83.0984 1465.22 L87.9827 1465.22 L87.9827 1471.1 L83.0984 1471.1 L83.0984 1465.22 Z" fill="#000000" fill-rule="evenodd" fill-opacity="1"></path><path clip-path="url(#clip630)" d="M108.168 1439.62 Q104.557 1439.62 102.728 1443.19 Q100.922 1446.73 100.922 1453.86 Q100.922 1460.96 102.728 1464.53 Q104.557 1468.07 108.168 1468.07 Q111.802 1468.07 113.608 1464.53 Q115.436 1460.96 115.436 1453.86 Q115.436 1446.73 113.608 1443.19 Q111.802 1439.62 108.168 1439.62 M108.168 1435.92 Q113.978 1435.92 117.033 1440.53 Q120.112 1445.11 120.112 1453.86 Q120.112 1462.59 117.033 1467.19 Q113.978 1471.77 108.168 1471.77 Q102.358 1471.77 99.2789 1467.19 Q96.2234 1462.59 96.2234 1453.86 Q96.2234 1445.11 99.2789 1440.53 Q102.358 1435.92 108.168 1435.92 Z" fill="#000000" fill-rule="evenodd" fill-opacity="1"></path><path clip-path="url(#clip630)" d="M138.33 1439.62 Q134.719 1439.62 132.89 1443.19 Q131.084 1446.73 131.084 1453.86 Q131.084 1460.96 132.89 1464.53 Q134.719 1468.07 138.33 1468.07 Q141.964 1468.07 143.769 1464.53 Q145.598 1460.96 145.598 1453.86 Q145.598 1446.73 143.769 1443.19 Q141.964 1439.62 138.33 1439.62 M138.33 1435.92 Q144.14 1435.92 147.195 1440.53 Q150.274 1445.11 150.274 1453.86 Q150.274 1462.59 147.195 1467.19 Q144.14 1471.77 138.33 1471.77 Q132.519 1471.77 129.441 1467.19 Q126.385 1462.59 126.385 1453.86 Q126.385 1445.11 129.441 1440.53 Q132.519 1435.92 138.33 1435.92 Z" fill="#000000" fill-rule="evenodd" fill-opacity="1"></path><path clip-path="url(#clip630)" d="M63.9319 1093.84 Q60.3208 1093.84 58.4921 1097.4 Q56.6865 1100.95 56.6865 1108.08 Q56.6865 1115.18 58.4921 1118.75 Q60.3208 1122.29 63.9319 1122.29 Q67.5661 1122.29 69.3717 1118.75 Q71.2004 1115.18 71.2004 1108.08 Q71.2004 1100.95 69.3717 1097.4 Q67.5661 1093.84 63.9319 1093.84 M63.9319 1090.14 Q69.742 1090.14 72.7976 1094.74 Q75.8763 1099.33 75.8763 1108.08 Q75.8763 1116.8 72.7976 1121.41 Q69.742 1125.99 63.9319 1125.99 Q58.1217 1125.99 55.043 1121.41 Q51.9875 1116.8 51.9875 1108.08 Q51.9875 1099.33 55.043 1094.74 Q58.1217 1090.14 63.9319 1090.14 Z" fill="#000000" fill-rule="evenodd" fill-opacity="1"></path><path clip-path="url(#clip630)" d="M84.0938 1119.44 L88.978 1119.44 L88.978 1125.32 L84.0938 1125.32 L84.0938 1119.44 Z" fill="#000000" fill-rule="evenodd" fill-opacity="1"></path><path clip-path="url(#clip630)" d="M103.191 1121.39 L119.51 1121.39 L119.51 1125.32 L97.566 1125.32 L97.566 1121.39 Q100.228 1118.63 104.811 1114 Q109.418 1109.35 110.598 1108.01 Q112.844 1105.48 113.723 1103.75 Q114.626 1101.99 114.626 1100.3 Q114.626 1097.54 112.682 1095.81 Q110.76 1094.07 107.658 1094.07 Q105.459 1094.07 103.006 1094.84 Q100.575 1095.6 97.7974 1097.15 L97.7974 1092.43 Q100.621 1091.29 103.075 1090.71 Q105.529 1090.14 107.566 1090.14 Q112.936 1090.14 116.131 1092.82 Q119.325 1095.51 119.325 1100 Q119.325 1102.13 118.515 1104.05 Q117.728 1105.95 115.621 1108.54 Q115.043 1109.21 111.941 1112.43 Q108.839 1115.62 103.191 1121.39 Z" fill="#000000" fill-rule="evenodd" fill-opacity="1"></path><path clip-path="url(#clip630)" d="M129.371 1090.76 L147.728 1090.76 L147.728 1094.7 L133.654 1094.7 L133.654 1103.17 Q134.672 1102.82 135.691 1102.66 Q136.709 1102.47 137.728 1102.47 Q143.515 1102.47 146.894 1105.65 Q150.274 1108.82 150.274 1114.23 Q150.274 1119.81 146.802 1122.91 Q143.33 1125.99 137.01 1125.99 Q134.834 1125.99 132.566 1125.62 Q130.32 1125.25 127.913 1124.51 L127.913 1119.81 Q129.996 1120.95 132.219 1121.5 Q134.441 1122.06 136.918 1122.06 Q140.922 1122.06 143.26 1119.95 Q145.598 1117.84 145.598 1114.23 Q145.598 1110.62 143.26 1108.52 Q140.922 1106.41 136.918 1106.41 Q135.043 1106.41 133.168 1106.83 Q131.316 1107.24 129.371 1108.12 L129.371 1090.76 Z" fill="#000000" fill-rule="evenodd" fill-opacity="1"></path><path clip-path="url(#clip630)" d="M62.9365 748.057 Q59.3254 748.057 57.4967 751.622 Q55.6912 755.164 55.6912 762.293 Q55.6912 769.4 57.4967 772.964 Q59.3254 776.506 62.9365 776.506 Q66.5707 776.506 68.3763 772.964 Q70.205 769.4 70.205 762.293 Q70.205 755.164 68.3763 751.622 Q66.5707 748.057 62.9365 748.057 M62.9365 744.353 Q68.7467 744.353 71.8022 748.96 Q74.8809 753.543 74.8809 762.293 Q74.8809 771.02 71.8022 775.626 Q68.7467 780.21 62.9365 780.21 Q57.1264 780.21 54.0477 775.626 Q50.9921 771.02 50.9921 762.293 Q50.9921 753.543 54.0477 748.96 Q57.1264 744.353 62.9365 744.353 Z" fill="#000000" fill-rule="evenodd" fill-opacity="1"></path><path clip-path="url(#clip630)" d="M83.0984 773.659 L87.9827 773.659 L87.9827 779.538 L83.0984 779.538 L83.0984 773.659 Z" fill="#000000" fill-rule="evenodd" fill-opacity="1"></path><path clip-path="url(#clip630)" d="M98.2141 744.978 L116.57 744.978 L116.57 748.914 L102.496 748.914 L102.496 757.386 Q103.515 757.039 104.534 756.877 Q105.552 756.691 106.571 756.691 Q112.358 756.691 115.737 759.863 Q119.117 763.034 119.117 768.451 Q119.117 774.029 115.645 777.131 Q112.172 780.21 105.853 780.21 Q103.677 780.21 101.409 779.839 Q99.1632 779.469 96.7558 778.728 L96.7558 774.029 Q98.8391 775.164 101.061 775.719 Q103.284 776.275 105.76 776.275 Q109.765 776.275 112.103 774.168 Q114.441 772.062 114.441 768.451 Q114.441 764.839 112.103 762.733 Q109.765 760.627 105.76 760.627 Q103.885 760.627 102.01 761.043 Q100.159 761.46 98.2141 762.34 L98.2141 744.978 Z" fill="#000000" fill-rule="evenodd" fill-opacity="1"></path><path clip-path="url(#clip630)" d="M138.33 748.057 Q134.719 748.057 132.89 751.622 Q131.084 755.164 131.084 762.293 Q131.084 769.4 132.89 772.964 Q134.719 776.506 138.33 776.506 Q141.964 776.506 143.769 772.964 Q145.598 769.4 145.598 762.293 Q145.598 755.164 143.769 751.622 Q141.964 748.057 138.33 748.057 M138.33 744.353 Q144.14 744.353 147.195 748.96 Q150.274 753.543 150.274 762.293 Q150.274 771.02 147.195 775.626 Q144.14 780.21 138.33 780.21 Q132.519 780.21 129.441 775.626 Q126.385 771.02 126.385 762.293 Q126.385 753.543 129.441 748.96 Q132.519 744.353 138.33 744.353 Z" fill="#000000" fill-rule="evenodd" fill-opacity="1"></path><path clip-path="url(#clip630)" d="M63.9319 402.275 Q60.3208 402.275 58.4921 405.839 Q56.6865 409.381 56.6865 416.511 Q56.6865 423.617 58.4921 427.182 Q60.3208 430.724 63.9319 430.724 Q67.5661 430.724 69.3717 427.182 Q71.2004 423.617 71.2004 416.511 Q71.2004 409.381 69.3717 405.839 Q67.5661 402.275 63.9319 402.275 M63.9319 398.571 Q69.742 398.571 72.7976 403.177 Q75.8763 407.761 75.8763 416.511 Q75.8763 425.237 72.7976 429.844 Q69.742 434.427 63.9319 434.427 Q58.1217 434.427 55.043 429.844 Q51.9875 425.237 51.9875 416.511 Q51.9875 407.761 55.043 403.177 Q58.1217 398.571 63.9319 398.571 Z" fill="#000000" fill-rule="evenodd" fill-opacity="1"></path><path clip-path="url(#clip630)" d="M84.0938 427.876 L88.978 427.876 L88.978 433.756 L84.0938 433.756 L84.0938 427.876 Z" fill="#000000" fill-rule="evenodd" fill-opacity="1"></path><path clip-path="url(#clip630)" d="M97.9826 399.196 L120.205 399.196 L120.205 401.187 L107.658 433.756 L102.774 433.756 L114.58 403.131 L97.9826 403.131 L97.9826 399.196 Z" fill="#000000" fill-rule="evenodd" fill-opacity="1"></path><path clip-path="url(#clip630)" d="M129.371 399.196 L147.728 399.196 L147.728 403.131 L133.654 403.131 L133.654 411.603 Q134.672 411.256 135.691 411.094 Q136.709 410.909 137.728 410.909 Q143.515 410.909 146.894 414.08 Q150.274 417.251 150.274 422.668 Q150.274 428.247 146.802 431.349 Q143.33 434.427 137.01 434.427 Q134.834 434.427 132.566 434.057 Q130.32 433.686 127.913 432.946 L127.913 428.247 Q129.996 429.381 132.219 429.937 Q134.441 430.492 136.918 430.492 Q140.922 430.492 143.26 428.386 Q145.598 426.279 145.598 422.668 Q145.598 419.057 143.26 416.95 Q140.922 414.844 136.918 414.844 Q135.043 414.844 133.168 415.261 Q131.316 415.677 129.371 416.557 L129.371 399.196 Z" fill="#000000" fill-rule="evenodd" fill-opacity="1"></path><path clip-path="url(#clip630)" d="M53.7467 84.0382 L61.3856 84.0382 L61.3856 57.6726 L53.0754 59.3393 L53.0754 55.08 L61.3393 53.4134 L66.0152 53.4134 L66.0152 84.0382 L73.654 84.0382 L73.654 87.9734 L53.7467 87.9734 L53.7467 84.0382 Z" fill="#000000" fill-rule="evenodd" fill-opacity="1"></path><path clip-path="url(#clip630)" d="M83.0984 82.0938 L87.9827 82.0938 L87.9827 87.9734 L83.0984 87.9734 L83.0984 82.0938 Z" fill="#000000" fill-rule="evenodd" fill-opacity="1"></path><path clip-path="url(#clip630)" d="M108.168 56.4921 Q104.557 56.4921 102.728 60.0569 Q100.922 63.5985 100.922 70.7281 Q100.922 77.8345 102.728 81.3993 Q104.557 84.941 108.168 84.941 Q111.802 84.941 113.608 81.3993 Q115.436 77.8345 115.436 70.7281 Q115.436 63.5985 113.608 60.0569 Q111.802 56.4921 108.168 56.4921 M108.168 52.7884 Q113.978 52.7884 117.033 57.3948 Q120.112 61.9781 120.112 70.7281 Q120.112 79.4549 117.033 84.0614 Q113.978 88.6447 108.168 88.6447 Q102.358 88.6447 99.2789 84.0614 Q96.2234 79.4549 96.2234 70.7281 Q96.2234 61.9781 99.2789 57.3948 Q102.358 52.7884 108.168 52.7884 Z" fill="#000000" fill-rule="evenodd" fill-opacity="1"></path><path clip-path="url(#clip630)" d="M138.33 56.4921 Q134.719 56.4921 132.89 60.0569 Q131.084 63.5985 131.084 70.7281 Q131.084 77.8345 132.89 81.3993 Q134.719 84.941 138.33 84.941 Q141.964 84.941 143.769 81.3993 Q145.598 77.8345 145.598 70.7281 Q145.598 63.5985 143.769 60.0569 Q141.964 56.4921 138.33 56.4921 M138.33 52.7884 Q144.14 52.7884 147.195 57.3948 Q150.274 61.9781 150.274 70.7281 Q150.274 79.4549 147.195 84.0614 Q144.14 88.6447 138.33 88.6447 Q132.519 88.6447 129.441 84.0614 Q126.385 79.4549 126.385 70.7281 Q126.385 61.9781 129.441 57.3948 Q132.519 52.7884 138.33 52.7884 Z" fill="#000000" fill-rule="evenodd" fill-opacity="1"></path><circle clip-path="url(#clip632)" cx="378.737" cy="1243.62" r="14.4" fill="#009af9" fill-rule="evenodd" fill-opacity="1" stroke="#000000" stroke-opacity="1" stroke-width="3.2"></circle>
<circle clip-path="url(#clip632)" cx="413.496" cy="293.068" r="14.4" fill="#009af9" fill-rule="evenodd" fill-opacity="1" stroke="#000000" stroke-opacity="1" stroke-width="3.2"></circle>
<circle clip-path="url(#clip632)" cx="680.085" cy="343.747" r="14.4" fill="#009af9" fill-rule="evenodd" fill-opacity="1" stroke="#000000" stroke-opacity="1" stroke-width="3.2"></circle>
<circle clip-path="url(#clip632)" cx="2102.53" cy="966.534" r="14.4" fill="#009af9" fill-rule="evenodd" fill-opacity="1" stroke="#000000" stroke-opacity="1" stroke-width="3.2"></circle>
<circle clip-path="url(#clip632)" cx="1178.8" cy="141.286" r="14.4" fill="#009af9" fill-rule="evenodd" fill-opacity="1" stroke="#000000" stroke-opacity="1" stroke-width="3.2"></circle>
<circle clip-path="url(#clip632)" cx="887.952" cy="142.964" r="14.4" fill="#009af9" fill-rule="evenodd" fill-opacity="1" stroke="#000000" stroke-opacity="1" stroke-width="3.2"></circle>
<circle clip-path="url(#clip632)" cx="525.804" cy="276.396" r="14.4" fill="#009af9" fill-rule="evenodd" fill-opacity="1" stroke="#000000" stroke-opacity="1" stroke-width="3.2"></circle>
<circle clip-path="url(#clip632)" cx="313.136" cy="635.752" r="14.4" fill="#009af9" fill-rule="evenodd" fill-opacity="1" stroke="#000000" stroke-opacity="1" stroke-width="3.2"></circle>
<circle clip-path="url(#clip632)" cx="2040.18" cy="632.189" r="14.4" fill="#009af9" fill-rule="evenodd" fill-opacity="1" stroke="#000000" stroke-opacity="1" stroke-width="3.2"></circle>
<circle clip-path="url(#clip632)" cx="2082.62" cy="567.13" r="14.4" fill="#009af9" fill-rule="evenodd" fill-opacity="1" stroke="#000000" stroke-opacity="1" stroke-width="3.2"></circle>
<circle clip-path="url(#clip632)" cx="546.238" cy="653.409" r="14.4" fill="#009af9" fill-rule="evenodd" fill-opacity="1" stroke="#000000" stroke-opacity="1" stroke-width="3.2"></circle>
<circle clip-path="url(#clip632)" cx="985.38" cy="164.762" r="14.4" fill="#009af9" fill-rule="evenodd" fill-opacity="1" stroke="#000000" stroke-opacity="1" stroke-width="3.2"></circle>
<circle clip-path="url(#clip632)" cx="2161.13" cy="228.242" r="14.4" fill="#009af9" fill-rule="evenodd" fill-opacity="1" stroke="#000000" stroke-opacity="1" stroke-width="3.2"></circle>
<circle clip-path="url(#clip632)" cx="434.397" cy="94.7438" r="14.4" fill="#009af9" fill-rule="evenodd" fill-opacity="1" stroke="#000000" stroke-opacity="1" stroke-width="3.2"></circle>
<circle clip-path="url(#clip632)" cx="1506.21" cy="118.639" r="14.4" fill="#009af9" fill-rule="evenodd" fill-opacity="1" stroke="#000000" stroke-opacity="1" stroke-width="3.2"></circle>
<circle clip-path="url(#clip632)" cx="821.39" cy="1337.83" r="14.4" fill="#009af9" fill-rule="evenodd" fill-opacity="1" stroke="#000000" stroke-opacity="1" stroke-width="3.2"></circle>
<circle clip-path="url(#clip632)" cx="428.812" cy="1139.58" r="14.4" fill="#009af9" fill-rule="evenodd" fill-opacity="1" stroke="#000000" stroke-opacity="1" stroke-width="3.2"></circle>
<circle clip-path="url(#clip632)" cx="2075.4" cy="391.677" r="14.4" fill="#009af9" fill-rule="evenodd" fill-opacity="1" stroke="#000000" stroke-opacity="1" stroke-width="3.2"></circle>
<circle clip-path="url(#clip632)" cx="580.989" cy="1192.56" r="14.4" fill="#009af9" fill-rule="evenodd" fill-opacity="1" stroke="#000000" stroke-opacity="1" stroke-width="3.2"></circle>
<circle clip-path="url(#clip632)" cx="1291.14" cy="580.405" r="14.4" fill="#009af9" fill-rule="evenodd" fill-opacity="1" stroke="#000000" stroke-opacity="1" stroke-width="3.2"></circle>
<circle clip-path="url(#clip632)" cx="2109.96" cy="1081.82" r="14.4" fill="#009af9" fill-rule="evenodd" fill-opacity="1" stroke="#000000" stroke-opacity="1" stroke-width="3.2"></circle>
<circle clip-path="url(#clip632)" cx="583.076" cy="1152.75" r="14.4" fill="#009af9" fill-rule="evenodd" fill-opacity="1" stroke="#000000" stroke-opacity="1" stroke-width="3.2"></circle>
<circle clip-path="url(#clip632)" cx="1648.6" cy="1132.91" r="14.4" fill="#009af9" fill-rule="evenodd" fill-opacity="1" stroke="#000000" stroke-opacity="1" stroke-width="3.2"></circle>
<circle clip-path="url(#clip632)" cx="364.608" cy="1109.06" r="14.4" fill="#009af9" fill-rule="evenodd" fill-opacity="1" stroke="#000000" stroke-opacity="1" stroke-width="3.2"></circle>
<circle clip-path="url(#clip632)" cx="2011.97" cy="317.426" r="14.4" fill="#009af9" fill-rule="evenodd" fill-opacity="1" stroke="#000000" stroke-opacity="1" stroke-width="3.2"></circle>
<circle clip-path="url(#clip632)" cx="735.76" cy="1088.83" r="14.4" fill="#009af9" fill-rule="evenodd" fill-opacity="1" stroke="#000000" stroke-opacity="1" stroke-width="3.2"></circle>
<circle clip-path="url(#clip632)" cx="1271.89" cy="956.016" r="14.4" fill="#009af9" fill-rule="evenodd" fill-opacity="1" stroke="#000000" stroke-opacity="1" stroke-width="3.2"></circle>
<circle clip-path="url(#clip632)" cx="1101.54" cy="711.56" r="14.4" fill="#009af9" fill-rule="evenodd" fill-opacity="1" stroke="#000000" stroke-opacity="1" stroke-width="3.2"></circle>
<circle clip-path="url(#clip632)" cx="1323.1" cy="1445.72" r="14.4" fill="#009af9" fill-rule="evenodd" fill-opacity="1" stroke="#000000" stroke-opacity="1" stroke-width="3.2"></circle>
<circle clip-path="url(#clip632)" cx="1575.85" cy="230.842" r="14.4" fill="#009af9" fill-rule="evenodd" fill-opacity="1" stroke="#000000" stroke-opacity="1" stroke-width="3.2"></circle>
<circle clip-path="url(#clip632)" cx="810.545" cy="106.269" r="14.4" fill="#009af9" fill-rule="evenodd" fill-opacity="1" stroke="#000000" stroke-opacity="1" stroke-width="3.2"></circle>
<circle clip-path="url(#clip632)" cx="787.985" cy="1165.45" r="14.4" fill="#009af9" fill-rule="evenodd" fill-opacity="1" stroke="#000000" stroke-opacity="1" stroke-width="3.2"></circle>
<circle clip-path="url(#clip632)" cx="738.54" cy="905.079" r="14.4" fill="#009af9" fill-rule="evenodd" fill-opacity="1" stroke="#000000" stroke-opacity="1" stroke-width="3.2"></circle>
<circle clip-path="url(#clip632)" cx="861.812" cy="304.386" r="14.4" fill="#009af9" fill-rule="evenodd" fill-opacity="1" stroke="#000000" stroke-opacity="1" stroke-width="3.2"></circle>
<circle clip-path="url(#clip632)" cx="1262.02" cy="1111.2" r="14.4" fill="#009af9" fill-rule="evenodd" fill-opacity="1" stroke="#000000" stroke-opacity="1" stroke-width="3.2"></circle>
<circle clip-path="url(#clip632)" cx="659.051" cy="105.105" r="14.4" fill="#e26f46" fill-rule="evenodd" fill-opacity="1" stroke="#000000" stroke-opacity="1" stroke-width="3.2"></circle>
<circle clip-path="url(#clip632)" cx="2150.94" cy="277.419" r="14.4" fill="#e26f46" fill-rule="evenodd" fill-opacity="1" stroke="#000000" stroke-opacity="1" stroke-width="3.2"></circle>
<circle clip-path="url(#clip632)" cx="1202.01" cy="541.18" r="14.4" fill="#e26f46" fill-rule="evenodd" fill-opacity="1" stroke="#000000" stroke-opacity="1" stroke-width="3.2"></circle>
<circle clip-path="url(#clip632)" cx="1812.97" cy="580.555" r="14.4" fill="#e26f46" fill-rule="evenodd" fill-opacity="1" stroke="#000000" stroke-opacity="1" stroke-width="3.2"></circle>
<circle clip-path="url(#clip632)" cx="317.206" cy="1184.08" r="14.4" fill="#e26f46" fill-rule="evenodd" fill-opacity="1" stroke="#000000" stroke-opacity="1" stroke-width="3.2"></circle>
<circle clip-path="url(#clip632)" cx="1179.31" cy="800.307" r="14.4" fill="#e26f46" fill-rule="evenodd" fill-opacity="1" stroke="#000000" stroke-opacity="1" stroke-width="3.2"></circle>
<circle clip-path="url(#clip632)" cx="1993.57" cy="109.658" r="14.4" fill="#e26f46" fill-rule="evenodd" fill-opacity="1" stroke="#000000" stroke-opacity="1" stroke-width="3.2"></circle>
<circle clip-path="url(#clip632)" cx="1508.86" cy="101.251" r="14.4" fill="#e26f46" fill-rule="evenodd" fill-opacity="1" stroke="#000000" stroke-opacity="1" stroke-width="3.2"></circle>
<circle clip-path="url(#clip632)" cx="1813.73" cy="87.9763" r="14.4" fill="#e26f46" fill-rule="evenodd" fill-opacity="1" stroke="#000000" stroke-opacity="1" stroke-width="3.2"></circle>
<circle clip-path="url(#clip632)" cx="247.59" cy="803.668" r="14.4" fill="#e26f46" fill-rule="evenodd" fill-opacity="1" stroke="#000000" stroke-opacity="1" stroke-width="3.2"></circle>
<circle clip-path="url(#clip632)" cx="2251.81" cy="781.89" r="14.4" fill="#e26f46" fill-rule="evenodd" fill-opacity="1" stroke="#000000" stroke-opacity="1" stroke-width="3.2"></circle>
<circle clip-path="url(#clip632)" cx="2175.81" cy="1303.76" r="14.4" fill="#e26f46" fill-rule="evenodd" fill-opacity="1" stroke="#000000" stroke-opacity="1" stroke-width="3.2"></circle>
<circle clip-path="url(#clip632)" cx="1026.84" cy="894.501" r="14.4" fill="#e26f46" fill-rule="evenodd" fill-opacity="1" stroke="#000000" stroke-opacity="1" stroke-width="3.2"></circle>
<circle clip-path="url(#clip632)" cx="1590.15" cy="1220.25" r="14.4" fill="#e26f46" fill-rule="evenodd" fill-opacity="1" stroke="#000000" stroke-opacity="1" stroke-width="3.2"></circle>
<circle clip-path="url(#clip632)" cx="427.311" cy="786.982" r="14.4" fill="#e26f46" fill-rule="evenodd" fill-opacity="1" stroke="#000000" stroke-opacity="1" stroke-width="3.2"></circle>
<circle clip-path="url(#clip632)" cx="1532.67" cy="168.994" r="14.4" fill="#e26f46" fill-rule="evenodd" fill-opacity="1" stroke="#000000" stroke-opacity="1" stroke-width="3.2"></circle>
<circle clip-path="url(#clip632)" cx="1807.95" cy="570.429" r="14.4" fill="#e26f46" fill-rule="evenodd" fill-opacity="1" stroke="#000000" stroke-opacity="1" stroke-width="3.2"></circle>
<circle clip-path="url(#clip632)" cx="679.209" cy="460.097" r="14.4" fill="#e26f46" fill-rule="evenodd" fill-opacity="1" stroke="#000000" stroke-opacity="1" stroke-width="3.2"></circle>
<circle clip-path="url(#clip632)" cx="1539.03" cy="1044.71" r="14.4" fill="#e26f46" fill-rule="evenodd" fill-opacity="1" stroke="#000000" stroke-opacity="1" stroke-width="3.2"></circle>
<circle clip-path="url(#clip632)" cx="972.646" cy="385.959" r="14.4" fill="#e26f46" fill-rule="evenodd" fill-opacity="1" stroke="#000000" stroke-opacity="1" stroke-width="3.2"></circle>
<circle clip-path="url(#clip632)" cx="1240.2" cy="1113.76" r="14.4" fill="#e26f46" fill-rule="evenodd" fill-opacity="1" stroke="#000000" stroke-opacity="1" stroke-width="3.2"></circle>
<circle clip-path="url(#clip632)" cx="1306.27" cy="448.43" r="14.4" fill="#e26f46" fill-rule="evenodd" fill-opacity="1" stroke="#000000" stroke-opacity="1" stroke-width="3.2"></circle>
<circle clip-path="url(#clip632)" cx="1759.76" cy="331.744" r="14.4" fill="#e26f46" fill-rule="evenodd" fill-opacity="1" stroke="#000000" stroke-opacity="1" stroke-width="3.2"></circle>
<circle clip-path="url(#clip632)" cx="562.773" cy="315.384" r="14.4" fill="#e26f46" fill-rule="evenodd" fill-opacity="1" stroke="#000000" stroke-opacity="1" stroke-width="3.2"></circle>
<circle clip-path="url(#clip632)" cx="276.384" cy="669.06" r="14.4" fill="#e26f46" fill-rule="evenodd" fill-opacity="1" stroke="#000000" stroke-opacity="1" stroke-width="3.2"></circle>
<circle clip-path="url(#clip632)" cx="564.845" cy="367.965" r="14.4" fill="#e26f46" fill-rule="evenodd" fill-opacity="1" stroke="#000000" stroke-opacity="1" stroke-width="3.2"></circle>
<circle clip-path="url(#clip632)" cx="947.952" cy="105.861" r="14.4" fill="#e26f46" fill-rule="evenodd" fill-opacity="1" stroke="#000000" stroke-opacity="1" stroke-width="3.2"></circle>
<circle clip-path="url(#clip632)" cx="329.514" cy="1281.95" r="14.4" fill="#e26f46" fill-rule="evenodd" fill-opacity="1" stroke="#000000" stroke-opacity="1" stroke-width="3.2"></circle>
<circle clip-path="url(#clip632)" cx="1448.66" cy="1167.87" r="14.4" fill="#e26f46" fill-rule="evenodd" fill-opacity="1" stroke="#000000" stroke-opacity="1" stroke-width="3.2"></circle>
<circle clip-path="url(#clip632)" cx="261.498" cy="987.172" r="14.4" fill="#e26f46" fill-rule="evenodd" fill-opacity="1" stroke="#000000" stroke-opacity="1" stroke-width="3.2"></circle>
<circle clip-path="url(#clip632)" cx="849.751" cy="708.319" r="14.4" fill="#e26f46" fill-rule="evenodd" fill-opacity="1" stroke="#000000" stroke-opacity="1" stroke-width="3.2"></circle>
<circle clip-path="url(#clip632)" cx="842.945" cy="293.421" r="14.4" fill="#e26f46" fill-rule="evenodd" fill-opacity="1" stroke="#000000" stroke-opacity="1" stroke-width="3.2"></circle>
<circle clip-path="url(#clip632)" cx="2291.44" cy="573.053" r="14.4" fill="#e26f46" fill-rule="evenodd" fill-opacity="1" stroke="#000000" stroke-opacity="1" stroke-width="3.2"></circle>
<circle clip-path="url(#clip632)" cx="1032.67" cy="546.545" r="14.4" fill="#e26f46" fill-rule="evenodd" fill-opacity="1" stroke="#000000" stroke-opacity="1" stroke-width="3.2"></circle>
<circle clip-path="url(#clip632)" cx="1709.58" cy="802.4" r="14.4" fill="#3da44d" fill-rule="evenodd" fill-opacity="1" stroke="#000000" stroke-opacity="1" stroke-width="3.2"></circle>
<circle clip-path="url(#clip632)" cx="1976.7" cy="1389.76" r="14.4" fill="#3da44d" fill-rule="evenodd" fill-opacity="1" stroke="#000000" stroke-opacity="1" stroke-width="3.2"></circle>
<circle clip-path="url(#clip632)" cx="1347.67" cy="1014.14" r="14.4" fill="#3da44d" fill-rule="evenodd" fill-opacity="1" stroke="#000000" stroke-opacity="1" stroke-width="3.2"></circle>
<circle clip-path="url(#clip632)" cx="969.798" cy="993.994" r="14.4" fill="#3da44d" fill-rule="evenodd" fill-opacity="1" stroke="#000000" stroke-opacity="1" stroke-width="3.2"></circle>
<circle clip-path="url(#clip632)" cx="2212.87" cy="1325.58" r="14.4" fill="#3da44d" fill-rule="evenodd" fill-opacity="1" stroke="#000000" stroke-opacity="1" stroke-width="3.2"></circle>
<circle clip-path="url(#clip632)" cx="1413.66" cy="1071.21" r="14.4" fill="#3da44d" fill-rule="evenodd" fill-opacity="1" stroke="#000000" stroke-opacity="1" stroke-width="3.2"></circle>
<circle clip-path="url(#clip632)" cx="1871.28" cy="1163.67" r="14.4" fill="#3da44d" fill-rule="evenodd" fill-opacity="1" stroke="#000000" stroke-opacity="1" stroke-width="3.2"></circle>
<circle clip-path="url(#clip632)" cx="642.416" cy="524.279" r="14.4" fill="#3da44d" fill-rule="evenodd" fill-opacity="1" stroke="#000000" stroke-opacity="1" stroke-width="3.2"></circle>
<circle clip-path="url(#clip632)" cx="888.384" cy="681.542" r="14.4" fill="#3da44d" fill-rule="evenodd" fill-opacity="1" stroke="#000000" stroke-opacity="1" stroke-width="3.2"></circle>
<circle clip-path="url(#clip632)" cx="495.788" cy="927.122" r="14.4" fill="#3da44d" fill-rule="evenodd" fill-opacity="1" stroke="#000000" stroke-opacity="1" stroke-width="3.2"></circle>
<circle clip-path="url(#clip632)" cx="975.813" cy="1286.39" r="14.4" fill="#3da44d" fill-rule="evenodd" fill-opacity="1" stroke="#000000" stroke-opacity="1" stroke-width="3.2"></circle>
<circle clip-path="url(#clip632)" cx="608.829" cy="713.899" r="14.4" fill="#3da44d" fill-rule="evenodd" fill-opacity="1" stroke="#000000" stroke-opacity="1" stroke-width="3.2"></circle>
<circle clip-path="url(#clip632)" cx="851.963" cy="1168.74" r="14.4" fill="#3da44d" fill-rule="evenodd" fill-opacity="1" stroke="#000000" stroke-opacity="1" stroke-width="3.2"></circle>
<circle clip-path="url(#clip632)" cx="388.743" cy="1162.73" r="14.4" fill="#3da44d" fill-rule="evenodd" fill-opacity="1" stroke="#000000" stroke-opacity="1" stroke-width="3.2"></circle>
<circle clip-path="url(#clip632)" cx="266.78" cy="432.126" r="14.4" fill="#3da44d" fill-rule="evenodd" fill-opacity="1" stroke="#000000" stroke-opacity="1" stroke-width="3.2"></circle>
<circle clip-path="url(#clip632)" cx="1042.78" cy="605.789" r="14.4" fill="#3da44d" fill-rule="evenodd" fill-opacity="1" stroke="#000000" stroke-opacity="1" stroke-width="3.2"></circle>
<circle clip-path="url(#clip632)" cx="1410.69" cy="225.703" r="14.4" fill="#3da44d" fill-rule="evenodd" fill-opacity="1" stroke="#000000" stroke-opacity="1" stroke-width="3.2"></circle>
<circle clip-path="url(#clip632)" cx="722.571" cy="606.283" r="14.4" fill="#3da44d" fill-rule="evenodd" fill-opacity="1" stroke="#000000" stroke-opacity="1" stroke-width="3.2"></circle>
<circle clip-path="url(#clip632)" cx="1167.63" cy="444.937" r="14.4" fill="#3da44d" fill-rule="evenodd" fill-opacity="1" stroke="#000000" stroke-opacity="1" stroke-width="3.2"></circle>
<circle clip-path="url(#clip632)" cx="1239.42" cy="1304.76" r="14.4" fill="#3da44d" fill-rule="evenodd" fill-opacity="1" stroke="#000000" stroke-opacity="1" stroke-width="3.2"></circle>
<circle clip-path="url(#clip632)" cx="1350.21" cy="655.005" r="14.4" fill="#3da44d" fill-rule="evenodd" fill-opacity="1" stroke="#000000" stroke-opacity="1" stroke-width="3.2"></circle>
<circle clip-path="url(#clip632)" cx="1309.23" cy="433.991" r="14.4" fill="#3da44d" fill-rule="evenodd" fill-opacity="1" stroke="#000000" stroke-opacity="1" stroke-width="3.2"></circle>
<circle clip-path="url(#clip632)" cx="1157.37" cy="313.556" r="14.4" fill="#3da44d" fill-rule="evenodd" fill-opacity="1" stroke="#000000" stroke-opacity="1" stroke-width="3.2"></circle>
<circle clip-path="url(#clip632)" cx="946.04" cy="1287.3" r="14.4" fill="#3da44d" fill-rule="evenodd" fill-opacity="1" stroke="#000000" stroke-opacity="1" stroke-width="3.2"></circle>
<circle clip-path="url(#clip632)" cx="1181.96" cy="999.852" r="14.4" fill="#3da44d" fill-rule="evenodd" fill-opacity="1" stroke="#000000" stroke-opacity="1" stroke-width="3.2"></circle>
<circle clip-path="url(#clip632)" cx="785.243" cy="987.34" r="14.4" fill="#3da44d" fill-rule="evenodd" fill-opacity="1" stroke="#000000" stroke-opacity="1" stroke-width="3.2"></circle>
<circle clip-path="url(#clip632)" cx="1873.3" cy="1100.44" r="14.4" fill="#3da44d" fill-rule="evenodd" fill-opacity="1" stroke="#000000" stroke-opacity="1" stroke-width="3.2"></circle>
<circle clip-path="url(#clip632)" cx="1853.77" cy="1295.93" r="14.4" fill="#3da44d" fill-rule="evenodd" fill-opacity="1" stroke="#000000" stroke-opacity="1" stroke-width="3.2"></circle>
<circle clip-path="url(#clip632)" cx="679.262" cy="902.545" r="14.4" fill="#3da44d" fill-rule="evenodd" fill-opacity="1" stroke="#000000" stroke-opacity="1" stroke-width="3.2"></circle>
<circle clip-path="url(#clip632)" cx="2068.31" cy="1148.63" r="14.4" fill="#3da44d" fill-rule="evenodd" fill-opacity="1" stroke="#000000" stroke-opacity="1" stroke-width="3.2"></circle>
<circle clip-path="url(#clip632)" cx="1562.45" cy="847.067" r="14.4" fill="#3da44d" fill-rule="evenodd" fill-opacity="1" stroke="#000000" stroke-opacity="1" stroke-width="3.2"></circle>
<path clip-path="url(#clip630)" d="
M258.49 1438.47 L506.805 1438.47 L506.805 1231.11 L258.49 1231.11  Z
  " fill="#ffffff" fill-rule="evenodd" fill-opacity="1"></path>
<polyline clip-path="url(#clip630)" style="stroke:#000000; stroke-linecap:round; stroke-linejoin:round; stroke-width:4; stroke-opacity:1; fill:none" points="
  258.49,1438.47 506.805,1438.47 506.805,1231.11 258.49,1231.11 258.49,1438.47 
  "></polyline>
<circle clip-path="url(#clip630)" cx="354.778" cy="1282.95" r="23.04" fill="#009af9" fill-rule="evenodd" fill-opacity="1" stroke="#000000" stroke-opacity="1" stroke-width="5.12"></circle>
<path clip-path="url(#clip630)" d="M466.899 1270.28 L460.557 1287.48 L473.265 1287.48 L466.899 1270.28 M464.261 1265.67 L469.562 1265.67 L482.733 1300.23 L477.872 1300.23 L474.724 1291.37 L459.145 1291.37 L455.997 1300.23 L451.066 1300.23 L464.261 1265.67 Z" fill="#000000" fill-rule="evenodd" fill-opacity="1"></path><circle clip-path="url(#clip630)" cx="354.778" cy="1334.79" r="23.04" fill="#e26f46" fill-rule="evenodd" fill-opacity="1" stroke="#000000" stroke-opacity="1" stroke-width="5.12"></circle>
<path clip-path="url(#clip630)" d="M455.742 1335.57 L455.742 1348.23 L463.242 1348.23 Q467.015 1348.23 468.821 1346.68 Q470.649 1345.11 470.649 1341.89 Q470.649 1338.65 468.821 1337.12 Q467.015 1335.57 463.242 1335.57 L455.742 1335.57 M455.742 1321.36 L455.742 1331.77 L462.663 1331.77 Q466.089 1331.77 467.756 1330.5 Q469.446 1329.2 469.446 1326.57 Q469.446 1323.95 467.756 1322.65 Q466.089 1321.36 462.663 1321.36 L455.742 1321.36 M451.066 1317.51 L463.011 1317.51 Q468.358 1317.51 471.251 1319.74 Q474.145 1321.96 474.145 1326.06 Q474.145 1329.23 472.663 1331.1 Q471.182 1332.98 468.312 1333.44 Q471.761 1334.18 473.659 1336.54 Q475.58 1338.88 475.58 1342.4 Q475.58 1347.03 472.432 1349.55 Q469.284 1352.07 463.474 1352.07 L451.066 1352.07 L451.066 1317.51 Z" fill="#000000" fill-rule="evenodd" fill-opacity="1"></path><circle clip-path="url(#clip630)" cx="354.778" cy="1386.63" r="23.04" fill="#3da44d" fill-rule="evenodd" fill-opacity="1" stroke="#000000" stroke-opacity="1" stroke-width="5.12"></circle>
<path clip-path="url(#clip630)" d="M478.936 1372.02 L478.936 1376.95 Q476.575 1374.75 473.89 1373.66 Q471.228 1372.57 468.219 1372.57 Q462.293 1372.57 459.145 1376.21 Q455.997 1379.82 455.997 1386.67 Q455.997 1393.5 459.145 1397.13 Q462.293 1400.74 468.219 1400.74 Q471.228 1400.74 473.89 1399.66 Q476.575 1398.57 478.936 1396.37 L478.936 1401.25 Q476.483 1402.92 473.728 1403.75 Q470.997 1404.59 467.941 1404.59 Q460.094 1404.59 455.58 1399.79 Q451.066 1394.98 451.066 1386.67 Q451.066 1378.34 455.58 1373.54 Q460.094 1368.73 467.941 1368.73 Q471.043 1368.73 473.774 1369.56 Q476.529 1370.37 478.936 1372.02 Z" fill="#000000" fill-rule="evenodd" fill-opacity="1"></path></svg>