<svg xmlns="http://www.w3.org/2000/svg" xmlns:xlink="http://www.w3.org/1999/xlink" width="600" height="400" viewBox="0 0 2400 1600">
<defs>
  <clipPath id="clip250">
    <rect x="0" y="0" width="2400" height="1600"></rect>
  </clipPath>
</defs>
<path clip-path="url(#clip250)" d="M0 1600 L2400 1600 L2400 0 L0 0  Z" fill="#ffffff" fill-rule="evenodd" fill-opacity="1"></path>
<defs>
  <clipPath id="clip251">
    <rect x="219" y="47" width="2134" height="1377"></rect>
  </clipPath>
</defs>
<path clip-path="url(#clip250)" d="M249.542 1423.18 L2352.76 1423.18 L2352.76 47.2441 L249.542 47.2441  Z" fill="#ffffff" fill-rule="evenodd" fill-opacity="1"></path>
<defs>
  <clipPath id="clip252">
    <rect x="249" y="47" width="2104" height="1377"></rect>
  </clipPath>
</defs>
<polyline clip-path="url(#clip252)" style="stroke:#000000; stroke-linecap:round; stroke-linejoin:round; stroke-width:2; stroke-opacity:0.1; fill:none" points="308.406,1423.18 308.406,47.2441 "></polyline>
<polyline clip-path="url(#clip252)" style="stroke:#000000; stroke-linecap:round; stroke-linejoin:round; stroke-width:2; stroke-opacity:0.1; fill:none" points="969.794,1423.18 969.794,47.2441 "></polyline>
<polyline clip-path="url(#clip252)" style="stroke:#000000; stroke-linecap:round; stroke-linejoin:round; stroke-width:2; stroke-opacity:0.1; fill:none" points="1631.18,1423.18 1631.18,47.2441 "></polyline>
<polyline clip-path="url(#clip252)" style="stroke:#000000; stroke-linecap:round; stroke-linejoin:round; stroke-width:2; stroke-opacity:0.1; fill:none" points="2292.57,1423.18 2292.57,47.2441 "></polyline>
<polyline clip-path="url(#clip252)" style="stroke:#000000; stroke-linecap:round; stroke-linejoin:round; stroke-width:2; stroke-opacity:0.1; fill:none" points="249.542,1384.24 2352.76,1384.24 "></polyline>
<polyline clip-path="url(#clip252)" style="stroke:#000000; stroke-linecap:round; stroke-linejoin:round; stroke-width:2; stroke-opacity:0.1; fill:none" points="249.542,1079.43 2352.76,1079.43 "></polyline>
<polyline clip-path="url(#clip252)" style="stroke:#000000; stroke-linecap:round; stroke-linejoin:round; stroke-width:2; stroke-opacity:0.1; fill:none" points="249.542,774.615 2352.76,774.615 "></polyline>
<polyline clip-path="url(#clip252)" style="stroke:#000000; stroke-linecap:round; stroke-linejoin:round; stroke-width:2; stroke-opacity:0.1; fill:none" points="249.542,469.804 2352.76,469.804 "></polyline>
<polyline clip-path="url(#clip252)" style="stroke:#000000; stroke-linecap:round; stroke-linejoin:round; stroke-width:2; stroke-opacity:0.1; fill:none" points="249.542,164.992 2352.76,164.992 "></polyline>
<polyline clip-path="url(#clip250)" style="stroke:#000000; stroke-linecap:round; stroke-linejoin:round; stroke-width:4; stroke-opacity:1; fill:none" points="249.542,1423.18 2352.76,1423.18 "></polyline>
<polyline clip-path="url(#clip250)" style="stroke:#000000; stroke-linecap:round; stroke-linejoin:round; stroke-width:4; stroke-opacity:1; fill:none" points="308.406,1423.18 308.406,1404.28 "></polyline>
<polyline clip-path="url(#clip250)" style="stroke:#000000; stroke-linecap:round; stroke-linejoin:round; stroke-width:4; stroke-opacity:1; fill:none" points="969.794,1423.18 969.794,1404.28 "></polyline>
<polyline clip-path="url(#clip250)" style="stroke:#000000; stroke-linecap:round; stroke-linejoin:round; stroke-width:4; stroke-opacity:1; fill:none" points="1631.18,1423.18 1631.18,1404.28 "></polyline>
<polyline clip-path="url(#clip250)" style="stroke:#000000; stroke-linecap:round; stroke-linejoin:round; stroke-width:4; stroke-opacity:1; fill:none" points="2292.57,1423.18 2292.57,1404.28 "></polyline>
<path clip-path="url(#clip250)" d="M308.406 1454.1 Q304.794 1454.1 302.966 1457.66 Q301.16 1461.2 301.16 1468.33 Q301.16 1475.44 302.966 1479.01 Q304.794 1482.55 308.406 1482.55 Q312.04 1482.55 313.845 1479.01 Q315.674 1475.44 315.674 1468.33 Q315.674 1461.2 313.845 1457.66 Q312.04 1454.1 308.406 1454.1 M308.406 1450.39 Q314.216 1450.39 317.271 1455 Q320.35 1459.58 320.35 1468.33 Q320.35 1477.06 317.271 1481.67 Q314.216 1486.25 308.406 1486.25 Q302.595 1486.25 299.517 1481.67 Q296.461 1477.06 296.461 1468.33 Q296.461 1459.58 299.517 1455 Q302.595 1450.39 308.406 1450.39 Z" fill="#000000" fill-rule="nonzero" fill-opacity="1"></path><path clip-path="url(#clip250)" d="M914.319 1481.64 L921.958 1481.64 L921.958 1455.28 L913.648 1456.95 L913.648 1452.69 L921.912 1451.02 L926.588 1451.02 L926.588 1481.64 L934.227 1481.64 L934.227 1485.58 L914.319 1485.58 L914.319 1481.64 Z" fill="#000000" fill-rule="nonzero" fill-opacity="1"></path><path clip-path="url(#clip250)" d="M953.671 1454.1 Q950.06 1454.1 948.231 1457.66 Q946.426 1461.2 946.426 1468.33 Q946.426 1475.44 948.231 1479.01 Q950.06 1482.55 953.671 1482.55 Q957.305 1482.55 959.111 1479.01 Q960.939 1475.44 960.939 1468.33 Q960.939 1461.2 959.111 1457.66 Q957.305 1454.1 953.671 1454.1 M953.671 1450.39 Q959.481 1450.39 962.537 1455 Q965.615 1459.58 965.615 1468.33 Q965.615 1477.06 962.537 1481.67 Q959.481 1486.25 953.671 1486.25 Q947.861 1486.25 944.782 1481.67 Q941.727 1477.06 941.727 1468.33 Q941.727 1459.58 944.782 1455 Q947.861 1450.39 953.671 1450.39 Z" fill="#000000" fill-rule="nonzero" fill-opacity="1"></path><path clip-path="url(#clip250)" d="M983.833 1454.1 Q980.222 1454.1 978.393 1457.66 Q976.588 1461.2 976.588 1468.33 Q976.588 1475.44 978.393 1479.01 Q980.222 1482.55 983.833 1482.55 Q987.467 1482.55 989.273 1479.01 Q991.101 1475.44 991.101 1468.33 Q991.101 1461.2 989.273 1457.66 Q987.467 1454.1 983.833 1454.1 M983.833 1450.39 Q989.643 1450.39 992.699 1455 Q995.777 1459.58 995.777 1468.33 Q995.777 1477.06 992.699 1481.67 Q989.643 1486.25 983.833 1486.25 Q978.023 1486.25 974.944 1481.67 Q971.888 1477.06 971.888 1468.33 Q971.888 1459.58 974.944 1455 Q978.023 1450.39 983.833 1450.39 Z" fill="#000000" fill-rule="nonzero" fill-opacity="1"></path><path clip-path="url(#clip250)" d="M1013.99 1454.1 Q1010.38 1454.1 1008.55 1457.66 Q1006.75 1461.2 1006.75 1468.33 Q1006.75 1475.44 1008.55 1479.01 Q1010.38 1482.55 1013.99 1482.55 Q1017.63 1482.55 1019.43 1479.01 Q1021.26 1475.44 1021.26 1468.33 Q1021.26 1461.2 1019.43 1457.66 Q1017.63 1454.1 1013.99 1454.1 M1013.99 1450.39 Q1019.8 1450.39 1022.86 1455 Q1025.94 1459.58 1025.94 1468.33 Q1025.94 1477.06 1022.86 1481.67 Q1019.8 1486.25 1013.99 1486.25 Q1008.18 1486.25 1005.11 1481.67 Q1002.05 1477.06 1002.05 1468.33 Q1002.05 1459.58 1005.11 1455 Q1008.18 1450.39 1013.99 1450.39 Z" fill="#000000" fill-rule="nonzero" fill-opacity="1"></path><path clip-path="url(#clip250)" d="M1579.79 1481.64 L1596.11 1481.64 L1596.11 1485.58 L1574.17 1485.58 L1574.17 1481.64 Q1576.83 1478.89 1581.41 1474.26 Q1586.02 1469.61 1587.2 1468.27 Q1589.45 1465.74 1590.33 1464.01 Q1591.23 1462.25 1591.23 1460.56 Q1591.23 1457.8 1589.28 1456.07 Q1587.36 1454.33 1584.26 1454.33 Q1582.06 1454.33 1579.61 1455.09 Q1577.18 1455.86 1574.4 1457.41 L1574.4 1452.69 Q1577.22 1451.55 1579.68 1450.97 Q1582.13 1450.39 1584.17 1450.39 Q1589.54 1450.39 1592.73 1453.08 Q1595.93 1455.77 1595.93 1460.26 Q1595.93 1462.39 1595.12 1464.31 Q1594.33 1466.2 1592.22 1468.8 Q1591.64 1469.47 1588.54 1472.69 Q1585.44 1475.88 1579.79 1481.64 Z" fill="#000000" fill-rule="nonzero" fill-opacity="1"></path><path clip-path="url(#clip250)" d="M1615.93 1454.1 Q1612.32 1454.1 1610.49 1457.66 Q1608.68 1461.2 1608.68 1468.33 Q1608.68 1475.44 1610.49 1479.01 Q1612.32 1482.55 1615.93 1482.55 Q1619.56 1482.55 1621.37 1479.01 Q1623.2 1475.44 1623.2 1468.33 Q1623.2 1461.2 1621.37 1457.66 Q1619.56 1454.1 1615.93 1454.1 M1615.93 1450.39 Q1621.74 1450.39 1624.79 1455 Q1627.87 1459.58 1627.87 1468.33 Q1627.87 1477.06 1624.79 1481.67 Q1621.74 1486.25 1615.93 1486.25 Q1610.12 1486.25 1607.04 1481.67 Q1603.98 1477.06 1603.98 1468.33 Q1603.98 1459.58 1607.04 1455 Q1610.12 1450.39 1615.93 1450.39 Z" fill="#000000" fill-rule="nonzero" fill-opacity="1"></path><path clip-path="url(#clip250)" d="M1646.09 1454.1 Q1642.48 1454.1 1640.65 1457.66 Q1638.84 1461.2 1638.84 1468.33 Q1638.84 1475.44 1640.65 1479.01 Q1642.48 1482.55 1646.09 1482.55 Q1649.72 1482.55 1651.53 1479.01 Q1653.36 1475.44 1653.36 1468.33 Q1653.36 1461.2 1651.53 1457.66 Q1649.72 1454.1 1646.09 1454.1 M1646.09 1450.39 Q1651.9 1450.39 1654.95 1455 Q1658.03 1459.58 1658.03 1468.33 Q1658.03 1477.06 1654.95 1481.67 Q1651.9 1486.25 1646.09 1486.25 Q1640.28 1486.25 1637.2 1481.67 Q1634.14 1477.06 1634.14 1468.33 Q1634.14 1459.58 1637.2 1455 Q1640.28 1450.39 1646.09 1450.39 Z" fill="#000000" fill-rule="nonzero" fill-opacity="1"></path><path clip-path="url(#clip250)" d="M1676.25 1454.1 Q1672.64 1454.1 1670.81 1457.66 Q1669.01 1461.2 1669.01 1468.33 Q1669.01 1475.44 1670.81 1479.01 Q1672.64 1482.55 1676.25 1482.55 Q1679.89 1482.55 1681.69 1479.01 Q1683.52 1475.44 1683.52 1468.33 Q1683.52 1461.2 1681.69 1457.66 Q1679.89 1454.1 1676.25 1454.1 M1676.25 1450.39 Q1682.06 1450.39 1685.12 1455 Q1688.2 1459.58 1688.2 1468.33 Q1688.2 1477.06 1685.12 1481.67 Q1682.06 1486.25 1676.25 1486.25 Q1670.44 1486.25 1667.36 1481.67 Q1664.31 1477.06 1664.31 1468.33 Q1664.31 1459.58 1667.36 1455 Q1670.44 1450.39 1676.25 1450.39 Z" fill="#000000" fill-rule="nonzero" fill-opacity="1"></path><path clip-path="url(#clip250)" d="M2251.25 1466.95 Q2254.61 1467.66 2256.48 1469.93 Q2258.38 1472.2 2258.38 1475.53 Q2258.38 1480.65 2254.86 1483.45 Q2251.34 1486.25 2244.86 1486.25 Q2242.69 1486.25 2240.37 1485.81 Q2238.08 1485.39 2235.63 1484.54 L2235.63 1480.02 Q2237.57 1481.16 2239.88 1481.74 Q2242.2 1482.32 2244.72 1482.32 Q2249.12 1482.32 2251.41 1480.58 Q2253.73 1478.84 2253.73 1475.53 Q2253.73 1472.48 2251.57 1470.77 Q2249.44 1469.03 2245.63 1469.03 L2241.6 1469.03 L2241.6 1465.19 L2245.81 1465.19 Q2249.26 1465.19 2251.09 1463.82 Q2252.92 1462.43 2252.92 1459.84 Q2252.92 1457.18 2251.02 1455.77 Q2249.14 1454.33 2245.63 1454.33 Q2243.7 1454.33 2241.51 1454.75 Q2239.31 1455.16 2236.67 1456.04 L2236.67 1451.88 Q2239.33 1451.14 2241.64 1450.77 Q2243.98 1450.39 2246.04 1450.39 Q2251.37 1450.39 2254.47 1452.83 Q2257.57 1455.23 2257.57 1459.35 Q2257.57 1462.22 2255.93 1464.21 Q2254.28 1466.18 2251.25 1466.95 Z" fill="#000000" fill-rule="nonzero" fill-opacity="1"></path><path clip-path="url(#clip250)" d="M2277.25 1454.1 Q2273.63 1454.1 2271.81 1457.66 Q2270 1461.2 2270 1468.33 Q2270 1475.44 2271.81 1479.01 Q2273.63 1482.55 2277.25 1482.55 Q2280.88 1482.55 2282.69 1479.01 Q2284.51 1475.44 2284.51 1468.33 Q2284.51 1461.2 2282.69 1457.66 Q2280.88 1454.1 2277.25 1454.1 M2277.25 1450.39 Q2283.06 1450.39 2286.11 1455 Q2289.19 1459.58 2289.19 1468.33 Q2289.19 1477.06 2286.11 1481.67 Q2283.06 1486.25 2277.25 1486.25 Q2271.44 1486.25 2268.36 1481.67 Q2265.3 1477.06 2265.3 1468.33 Q2265.3 1459.58 2268.36 1455 Q2271.44 1450.39 2277.25 1450.39 Z" fill="#000000" fill-rule="nonzero" fill-opacity="1"></path><path clip-path="url(#clip250)" d="M2307.41 1454.1 Q2303.8 1454.1 2301.97 1457.66 Q2300.16 1461.2 2300.16 1468.33 Q2300.16 1475.44 2301.97 1479.01 Q2303.8 1482.55 2307.41 1482.55 Q2311.04 1482.55 2312.85 1479.01 Q2314.68 1475.44 2314.68 1468.33 Q2314.68 1461.2 2312.85 1457.66 Q2311.04 1454.1 2307.41 1454.1 M2307.41 1450.39 Q2313.22 1450.39 2316.27 1455 Q2319.35 1459.58 2319.35 1468.33 Q2319.35 1477.06 2316.27 1481.67 Q2313.22 1486.25 2307.41 1486.25 Q2301.6 1486.25 2298.52 1481.67 Q2295.46 1477.06 2295.46 1468.33 Q2295.46 1459.58 2298.52 1455 Q2301.6 1450.39 2307.41 1450.39 Z" fill="#000000" fill-rule="nonzero" fill-opacity="1"></path><path clip-path="url(#clip250)" d="M2337.57 1454.1 Q2333.96 1454.1 2332.13 1457.66 Q2330.32 1461.2 2330.32 1468.33 Q2330.32 1475.44 2332.13 1479.01 Q2333.96 1482.55 2337.57 1482.55 Q2341.2 1482.55 2343.01 1479.01 Q2344.84 1475.44 2344.84 1468.33 Q2344.84 1461.2 2343.01 1457.66 Q2341.2 1454.1 2337.57 1454.1 M2337.57 1450.39 Q2343.38 1450.39 2346.44 1455 Q2349.51 1459.58 2349.51 1468.33 Q2349.51 1477.06 2346.44 1481.67 Q2343.38 1486.25 2337.57 1486.25 Q2331.76 1486.25 2328.68 1481.67 Q2325.62 1477.06 2325.62 1468.33 Q2325.62 1459.58 2328.68 1455 Q2331.76 1450.39 2337.57 1450.39 Z" fill="#000000" fill-rule="nonzero" fill-opacity="1"></path><path clip-path="url(#clip250)" d="M1309.62 1531.91 Q1309.62 1532.81 1309.2 1533.04 Q1308.78 1533.23 1307.62 1533.23 L1301.44 1533.23 L1296.54 1552.69 Q1296.16 1554.39 1296.16 1555.84 Q1296.16 1557.45 1296.64 1558.16 Q1297.16 1558.87 1298.22 1558.87 Q1300.31 1558.87 1302.57 1556.97 Q1304.85 1555.07 1306.79 1550.43 Q1307.04 1549.82 1307.17 1549.69 Q1307.33 1549.53 1307.75 1549.53 Q1308.56 1549.53 1308.56 1550.17 Q1308.56 1550.4 1308.11 1551.43 Q1307.69 1552.46 1306.75 1553.97 Q1305.85 1555.49 1304.66 1556.9 Q1303.5 1558.32 1301.73 1559.35 Q1299.96 1560.35 1298.06 1560.35 Q1295.38 1560.35 1293.68 1558.64 Q1292 1556.94 1292 1554.26 Q1292 1553.39 1292.68 1550.62 Q1293.36 1547.82 1297.03 1533.23 L1291.2 1533.23 Q1290.39 1533.23 1290.07 1533.2 Q1289.78 1533.17 1289.56 1533.01 Q1289.36 1532.81 1289.36 1532.43 Q1289.36 1531.82 1289.62 1531.56 Q1289.88 1531.27 1290.2 1531.24 Q1290.55 1531.17 1291.36 1531.17 L1297.54 1531.17 L1300.12 1520.71 Q1300.38 1519.67 1301.02 1519.09 Q1301.7 1518.48 1302.08 1518.42 Q1302.47 1518.32 1302.76 1518.32 Q1303.63 1518.32 1304.14 1518.81 Q1304.66 1519.26 1304.66 1520.09 Q1304.66 1520.54 1301.95 1531.17 L1307.75 1531.17 Q1308.49 1531.17 1308.78 1531.2 Q1309.1 1531.24 1309.36 1531.4 Q1309.62 1531.56 1309.62 1531.91 Z" fill="#000000" fill-rule="nonzero" fill-opacity="1"></path><polyline clip-path="url(#clip250)" style="stroke:#000000; stroke-linecap:round; stroke-linejoin:round; stroke-width:4; stroke-opacity:1; fill:none" points="249.542,1423.18 249.542,47.2441 "></polyline>
<polyline clip-path="url(#clip250)" style="stroke:#000000; stroke-linecap:round; stroke-linejoin:round; stroke-width:4; stroke-opacity:1; fill:none" points="249.542,1384.24 268.44,1384.24 "></polyline>
<polyline clip-path="url(#clip250)" style="stroke:#000000; stroke-linecap:round; stroke-linejoin:round; stroke-width:4; stroke-opacity:1; fill:none" points="249.542,1079.43 268.44,1079.43 "></polyline>
<polyline clip-path="url(#clip250)" style="stroke:#000000; stroke-linecap:round; stroke-linejoin:round; stroke-width:4; stroke-opacity:1; fill:none" points="249.542,774.615 268.44,774.615 "></polyline>
<polyline clip-path="url(#clip250)" style="stroke:#000000; stroke-linecap:round; stroke-linejoin:round; stroke-width:4; stroke-opacity:1; fill:none" points="249.542,469.804 268.44,469.804 "></polyline>
<polyline clip-path="url(#clip250)" style="stroke:#000000; stroke-linecap:round; stroke-linejoin:round; stroke-width:4; stroke-opacity:1; fill:none" points="249.542,164.992 268.44,164.992 "></polyline>
<path clip-path="url(#clip250)" d="M126.205 1370.04 Q122.593 1370.04 120.765 1373.6 Q118.959 1377.14 118.959 1384.27 Q118.959 1391.38 120.765 1394.94 Q122.593 1398.49 126.205 1398.49 Q129.839 1398.49 131.644 1394.94 Q133.473 1391.38 133.473 1384.27 Q133.473 1377.14 131.644 1373.6 Q129.839 1370.04 126.205 1370.04 M126.205 1366.33 Q132.015 1366.33 135.07 1370.94 Q138.149 1375.52 138.149 1384.27 Q138.149 1393 135.07 1397.61 Q132.015 1402.19 126.205 1402.19 Q120.394 1402.19 117.316 1397.61 Q114.26 1393 114.26 1384.27 Q114.26 1375.52 117.316 1370.94 Q120.394 1366.33 126.205 1366.33 Z" fill="#000000" fill-rule="nonzero" fill-opacity="1"></path><path clip-path="url(#clip250)" d="M146.366 1395.64 L151.251 1395.64 L151.251 1401.52 L146.366 1401.52 L146.366 1395.64 Z" fill="#000000" fill-rule="nonzero" fill-opacity="1"></path><path clip-path="url(#clip250)" d="M171.436 1370.04 Q167.825 1370.04 165.996 1373.6 Q164.19 1377.14 164.19 1384.27 Q164.19 1391.38 165.996 1394.94 Q167.825 1398.49 171.436 1398.49 Q175.07 1398.49 176.876 1394.94 Q178.704 1391.38 178.704 1384.27 Q178.704 1377.14 176.876 1373.6 Q175.07 1370.04 171.436 1370.04 M171.436 1366.33 Q177.246 1366.33 180.301 1370.94 Q183.38 1375.52 183.38 1384.27 Q183.38 1393 180.301 1397.61 Q177.246 1402.19 171.436 1402.19 Q165.626 1402.19 162.547 1397.61 Q159.491 1393 159.491 1384.27 Q159.491 1375.52 162.547 1370.94 Q165.626 1366.33 171.436 1366.33 Z" fill="#000000" fill-rule="nonzero" fill-opacity="1"></path><path clip-path="url(#clip250)" d="M201.598 1370.04 Q197.987 1370.04 196.158 1373.6 Q194.352 1377.14 194.352 1384.27 Q194.352 1391.38 196.158 1394.94 Q197.987 1398.49 201.598 1398.49 Q205.232 1398.49 207.037 1394.94 Q208.866 1391.38 208.866 1384.27 Q208.866 1377.14 207.037 1373.6 Q205.232 1370.04 201.598 1370.04 M201.598 1366.33 Q207.408 1366.33 210.463 1370.94 Q213.542 1375.52 213.542 1384.27 Q213.542 1393 210.463 1397.61 Q207.408 1402.19 201.598 1402.19 Q195.787 1402.19 192.709 1397.61 Q189.653 1393 189.653 1384.27 Q189.653 1375.52 192.709 1370.94 Q195.787 1366.33 201.598 1366.33 Z" fill="#000000" fill-rule="nonzero" fill-opacity="1"></path><path clip-path="url(#clip250)" d="M127.2 1065.23 Q123.589 1065.23 121.76 1068.79 Q119.955 1072.33 119.955 1079.46 Q119.955 1086.57 121.76 1090.13 Q123.589 1093.67 127.2 1093.67 Q130.834 1093.67 132.64 1090.13 Q134.468 1086.57 134.468 1079.46 Q134.468 1072.33 132.64 1068.79 Q130.834 1065.23 127.2 1065.23 M127.2 1061.52 Q133.01 1061.52 136.066 1066.13 Q139.144 1070.71 139.144 1079.46 Q139.144 1088.19 136.066 1092.79 Q133.01 1097.38 127.2 1097.38 Q121.39 1097.38 118.311 1092.79 Q115.256 1088.19 115.256 1079.46 Q115.256 1070.71 118.311 1066.13 Q121.39 1061.52 127.2 1061.52 Z" fill="#000000" fill-rule="nonzero" fill-opacity="1"></path><path clip-path="url(#clip250)" d="M147.362 1090.83 L152.246 1090.83 L152.246 1096.71 L147.362 1096.71 L147.362 1090.83 Z" fill="#000000" fill-rule="nonzero" fill-opacity="1"></path><path clip-path="url(#clip250)" d="M166.459 1092.77 L182.778 1092.77 L182.778 1096.71 L160.834 1096.71 L160.834 1092.77 Q163.496 1090.02 168.079 1085.39 Q172.686 1080.73 173.866 1079.39 Q176.112 1076.87 176.991 1075.13 Q177.894 1073.37 177.894 1071.68 Q177.894 1068.93 175.95 1067.19 Q174.028 1065.46 170.927 1065.46 Q168.727 1065.46 166.274 1066.22 Q163.843 1066.98 161.065 1068.54 L161.065 1063.81 Q163.89 1062.68 166.343 1062.1 Q168.797 1061.52 170.834 1061.52 Q176.204 1061.52 179.399 1064.21 Q182.593 1066.89 182.593 1071.38 Q182.593 1073.51 181.783 1075.43 Q180.996 1077.33 178.889 1079.92 Q178.311 1080.6 175.209 1083.81 Q172.107 1087.01 166.459 1092.77 Z" fill="#000000" fill-rule="nonzero" fill-opacity="1"></path><path clip-path="url(#clip250)" d="M192.639 1062.15 L210.996 1062.15 L210.996 1066.08 L196.922 1066.08 L196.922 1074.55 Q197.94 1074.21 198.959 1074.04 Q199.977 1073.86 200.996 1073.86 Q206.783 1073.86 210.162 1077.03 Q213.542 1080.2 213.542 1085.62 Q213.542 1091.2 210.07 1094.3 Q206.598 1097.38 200.278 1097.38 Q198.102 1097.38 195.834 1097.01 Q193.588 1096.64 191.181 1095.9 L191.181 1091.2 Q193.264 1092.33 195.487 1092.89 Q197.709 1093.44 200.186 1093.44 Q204.19 1093.44 206.528 1091.34 Q208.866 1089.23 208.866 1085.62 Q208.866 1082.01 206.528 1079.9 Q204.19 1077.79 200.186 1077.79 Q198.311 1077.79 196.436 1078.21 Q194.584 1078.63 192.639 1079.51 L192.639 1062.15 Z" fill="#000000" fill-rule="nonzero" fill-opacity="1"></path><path clip-path="url(#clip250)" d="M126.205 760.414 Q122.593 760.414 120.765 763.979 Q118.959 767.52 118.959 774.65 Q118.959 781.756 120.765 785.321 Q122.593 788.863 126.205 788.863 Q129.839 788.863 131.644 785.321 Q133.473 781.756 133.473 774.65 Q133.473 767.52 131.644 763.979 Q129.839 760.414 126.205 760.414 M126.205 756.71 Q132.015 756.71 135.07 761.317 Q138.149 765.9 138.149 774.65 Q138.149 783.377 135.07 787.983 Q132.015 792.567 126.205 792.567 Q120.394 792.567 117.316 787.983 Q114.26 783.377 114.26 774.65 Q114.26 765.9 117.316 761.317 Q120.394 756.71 126.205 756.71 Z" fill="#000000" fill-rule="nonzero" fill-opacity="1"></path><path clip-path="url(#clip250)" d="M146.366 786.016 L151.251 786.016 L151.251 791.895 L146.366 791.895 L146.366 786.016 Z" fill="#000000" fill-rule="nonzero" fill-opacity="1"></path><path clip-path="url(#clip250)" d="M161.482 757.335 L179.839 757.335 L179.839 761.27 L165.765 761.27 L165.765 769.743 Q166.783 769.395 167.802 769.233 Q168.82 769.048 169.839 769.048 Q175.626 769.048 179.005 772.219 Q182.385 775.391 182.385 780.807 Q182.385 786.386 178.913 789.488 Q175.44 792.567 169.121 792.567 Q166.945 792.567 164.677 792.196 Q162.431 791.826 160.024 791.085 L160.024 786.386 Q162.107 787.52 164.329 788.076 Q166.552 788.631 169.028 788.631 Q173.033 788.631 175.371 786.525 Q177.709 784.418 177.709 780.807 Q177.709 777.196 175.371 775.09 Q173.033 772.983 169.028 772.983 Q167.153 772.983 165.278 773.4 Q163.427 773.817 161.482 774.696 L161.482 757.335 Z" fill="#000000" fill-rule="nonzero" fill-opacity="1"></path><path clip-path="url(#clip250)" d="M201.598 760.414 Q197.987 760.414 196.158 763.979 Q194.352 767.52 194.352 774.65 Q194.352 781.756 196.158 785.321 Q197.987 788.863 201.598 788.863 Q205.232 788.863 207.037 785.321 Q208.866 781.756 208.866 774.65 Q208.866 767.52 207.037 763.979 Q205.232 760.414 201.598 760.414 M201.598 756.71 Q207.408 756.71 210.463 761.317 Q213.542 765.9 213.542 774.65 Q213.542 783.377 210.463 787.983 Q207.408 792.567 201.598 792.567 Q195.787 792.567 192.709 787.983 Q189.653 783.377 189.653 774.65 Q189.653 765.9 192.709 761.317 Q195.787 756.71 201.598 756.71 Z" fill="#000000" fill-rule="nonzero" fill-opacity="1"></path><path clip-path="url(#clip250)" d="M127.2 455.602 Q123.589 455.602 121.76 459.167 Q119.955 462.709 119.955 469.838 Q119.955 476.945 121.76 480.51 Q123.589 484.051 127.2 484.051 Q130.834 484.051 132.64 480.51 Q134.468 476.945 134.468 469.838 Q134.468 462.709 132.64 459.167 Q130.834 455.602 127.2 455.602 M127.2 451.899 Q133.01 451.899 136.066 456.505 Q139.144 461.089 139.144 469.838 Q139.144 478.565 136.066 483.172 Q133.01 487.755 127.2 487.755 Q121.39 487.755 118.311 483.172 Q115.256 478.565 115.256 469.838 Q115.256 461.089 118.311 456.505 Q121.39 451.899 127.2 451.899 Z" fill="#000000" fill-rule="nonzero" fill-opacity="1"></path><path clip-path="url(#clip250)" d="M147.362 481.204 L152.246 481.204 L152.246 487.084 L147.362 487.084 L147.362 481.204 Z" fill="#000000" fill-rule="nonzero" fill-opacity="1"></path><path clip-path="url(#clip250)" d="M161.251 452.524 L183.473 452.524 L183.473 454.514 L170.927 487.084 L166.042 487.084 L177.848 456.459 L161.251 456.459 L161.251 452.524 Z" fill="#000000" fill-rule="nonzero" fill-opacity="1"></path><path clip-path="url(#clip250)" d="M192.639 452.524 L210.996 452.524 L210.996 456.459 L196.922 456.459 L196.922 464.931 Q197.94 464.584 198.959 464.422 Q199.977 464.237 200.996 464.237 Q206.783 464.237 210.162 467.408 Q213.542 470.579 213.542 475.996 Q213.542 481.575 210.07 484.676 Q206.598 487.755 200.278 487.755 Q198.102 487.755 195.834 487.385 Q193.588 487.014 191.181 486.274 L191.181 481.575 Q193.264 482.709 195.487 483.264 Q197.709 483.82 200.186 483.82 Q204.19 483.82 206.528 481.713 Q208.866 479.607 208.866 475.996 Q208.866 472.385 206.528 470.278 Q204.19 468.172 200.186 468.172 Q198.311 468.172 196.436 468.588 Q194.584 469.005 192.639 469.885 L192.639 452.524 Z" fill="#000000" fill-rule="nonzero" fill-opacity="1"></path><path clip-path="url(#clip250)" d="M117.015 178.337 L124.654 178.337 L124.654 151.972 L116.343 153.638 L116.343 149.379 L124.607 147.712 L129.283 147.712 L129.283 178.337 L136.922 178.337 L136.922 182.272 L117.015 182.272 L117.015 178.337 Z" fill="#000000" fill-rule="nonzero" fill-opacity="1"></path><path clip-path="url(#clip250)" d="M146.366 176.393 L151.251 176.393 L151.251 182.272 L146.366 182.272 L146.366 176.393 Z" fill="#000000" fill-rule="nonzero" fill-opacity="1"></path><path clip-path="url(#clip250)" d="M171.436 150.791 Q167.825 150.791 165.996 154.356 Q164.19 157.897 164.19 165.027 Q164.19 172.133 165.996 175.698 Q167.825 179.24 171.436 179.24 Q175.07 179.24 176.876 175.698 Q178.704 172.133 178.704 165.027 Q178.704 157.897 176.876 154.356 Q175.07 150.791 171.436 150.791 M171.436 147.087 Q177.246 147.087 180.301 151.694 Q183.38 156.277 183.38 165.027 Q183.38 173.754 180.301 178.36 Q177.246 182.944 171.436 182.944 Q165.626 182.944 162.547 178.36 Q159.491 173.754 159.491 165.027 Q159.491 156.277 162.547 151.694 Q165.626 147.087 171.436 147.087 Z" fill="#000000" fill-rule="nonzero" fill-opacity="1"></path><path clip-path="url(#clip250)" d="M201.598 150.791 Q197.987 150.791 196.158 154.356 Q194.352 157.897 194.352 165.027 Q194.352 172.133 196.158 175.698 Q197.987 179.24 201.598 179.24 Q205.232 179.24 207.037 175.698 Q208.866 172.133 208.866 165.027 Q208.866 157.897 207.037 154.356 Q205.232 150.791 201.598 150.791 M201.598 147.087 Q207.408 147.087 210.463 151.694 Q213.542 156.277 213.542 165.027 Q213.542 173.754 210.463 178.36 Q207.408 182.944 201.598 182.944 Q195.787 182.944 192.709 178.36 Q189.653 173.754 189.653 165.027 Q189.653 156.277 192.709 151.694 Q195.787 147.087 201.598 147.087 Z" fill="#000000" fill-rule="nonzero" fill-opacity="1"></path><path clip-path="url(#clip250)" d="M36.9563 709.084 Q40.5633 709.084 43.8805 711.757 Q47.1977 714.398 49.2267 718.714 Q51.2235 722.997 51.2235 727.603 L51.2235 738.81 L67.7129 742.9 Q67.8095 742.933 68.2282 743.029 Q68.6146 743.126 68.8401 743.126 Q69.6452 743.126 69.8385 742.128 Q70.0317 741.097 70.0317 738.81 Q70.0317 737.329 70.2893 737.103 Q70.4504 736.975 70.7402 736.975 Q71.1911 736.975 71.5132 737.103 Q71.803 737.232 71.8996 737.49 Q71.9962 737.715 72.0285 737.876 Q72.0607 738.037 72.0607 738.295 Q72.0607 738.971 71.9962 740.421 Q71.9318 741.838 71.9318 742.578 L71.8674 746.797 L72.0607 755.171 Q72.0607 756.169 71.2555 756.169 Q70.6436 756.169 70.386 755.912 Q70.0961 755.654 70.0639 755.364 Q70.0317 755.074 70.0317 754.334 Q70.0317 752.723 69.9351 751.757 Q69.8385 750.791 69.7096 750.179 Q69.5486 749.535 69.0977 749.213 Q68.6468 748.859 68.2604 748.698 Q67.8417 748.536 66.9077 748.311 L31.4813 739.487 Q30.4185 739.229 30.2574 739.229 Q29.7099 739.229 29.5167 739.551 Q29.2913 739.841 29.1947 740.678 Q29.0658 742.289 29.0658 743.512 Q29.0658 744.318 29.0336 744.64 Q29.0014 744.929 28.8404 745.187 Q28.6472 745.413 28.2607 745.413 Q27.6488 745.413 27.3911 745.155 Q27.1013 744.865 27.0691 744.543 Q27.0047 744.221 27.0047 743.448 L27.0047 722.063 Q27.0047 715.912 29.9354 712.498 Q32.8661 709.084 36.9563 709.084 M35.3782 715.203 Q29.0658 715.203 29.0658 724.189 L29.0658 730.501 Q29.0658 732.595 29.4523 733.11 Q29.8066 733.625 31.5779 734.076 L49.5166 738.553 L49.5166 729.245 Q49.5166 722.997 46.0061 719.1 Q44.3958 717.329 41.0464 716.266 Q37.697 715.203 35.3782 715.203 Z" fill="#000000" fill-rule="nonzero" fill-opacity="1"></path><polyline clip-path="url(#clip252)" style="stroke:#000000; stroke-linecap:round; stroke-linejoin:round; stroke-width:4; stroke-opacity:1; fill:none" points="309.067,565.085 309.728,541.946 310.39,513.807 311.051,481.02 311.713,444.239 312.374,404.652 313.035,364.274 313.697,326.214 314.358,294.594 315.019,273.608 315.681,265.805 316.342,270.866 317.004,286.063 317.665,307.923 318.326,333.57 318.988,361.09 319.649,389.312 320.311,417.504 320.972,445.17 321.633,471.944 322.295,497.528 322.956,521.671 323.617,544.154 324.279,564.777 324.94,583.356 325.602,599.717 326.263,613.69 326.924,625.108 327.586,633.797 328.247,639.582 328.909,642.278 329.57,641.694 330.231,637.634 330.893,629.901 331.554,618.308 332.216,602.693 332.877,582.947 333.538,559.05 334.2,531.135 334.861,499.583 335.522,465.152 336.184,429.155 336.845,393.64 337.507,361.427 338.168,335.746 338.829,319.299 339.491,313.16 340.152,316.377 340.814,326.654 341.475,341.482 342.136,358.869 342.798,377.482 343.459,396.479 344.121,415.319 344.782,433.624 345.443,451.102 346.105,467.514 346.766,482.646 347.427,496.305 348.089,508.308 348.75,518.484 349.412,526.664 350.073,532.686 350.734,536.39 351.396,537.62 352.057,536.225 352.719,532.056 353.38,524.978 354.041,514.869 354.703,501.632 355.364,485.207 356.026,465.589 356.687,442.847 357.348,417.155 358.01,388.823 358.671,358.331 359.332,326.354 359.994,293.775 360.655,261.655 361.317,231.148 361.978,203.368 362.639,179.228 363.301,159.323 363.962,143.91 364.624,132.979 365.285,126.381 365.946,123.927 366.608,125.442 367.269,130.771 367.93,139.762 368.592,152.238 369.253,167.981 369.915,186.717 370.576,208.126 371.237,231.837 371.899,257.449 372.56,284.544 373.222,312.696 373.883,341.491 374.544,370.53 375.206,399.443 375.867,427.886 376.529,455.55 377.19,482.152 377.851,507.44 378.513,531.188 379.174,553.189 379.835,573.252 380.497,591.198 381.158,606.858 381.82,620.062 382.481,630.642 383.142,638.425 383.804,643.232 384.465,644.875 385.127,643.161 385.788,637.891 386.449,628.87 387.111,615.916 387.772,598.879 388.434,577.675 389.095,552.327 389.756,523.044 390.418,490.325 391.079,455.114 391.74,418.99 392.402,384.331 393.063,354.239 393.725,331.95 394.386,319.711 395.047,317.812 395.709,324.608 396.37,337.52 397.032,354.122 397.693,372.646 398.354,391.952 399.016,411.328 399.677,430.305 400.338,448.544 401,465.778 401.661,481.779 402.323,496.346 402.984,509.289 403.645,520.431 404.307,529.601 404.968,536.635 405.63,541.369 406.291,543.643 406.952,543.301 407.614,540.191 408.275,534.167 408.937,525.097 409.598,512.869 410.259,497.405 410.921,478.673 411.582,456.713 412.243,431.661 412.905,403.785 413.566,373.521 414.228,341.508 414.889,308.608 415.55,275.896 416.212,244.582 416.873,215.879 417.535,190.823 418.196,170.114 418.857,154.058 419.519,142.636 420.18,135.639 420.842,132.803 421.503,133.887 422.164,138.689 422.826,147.03 423.487,158.724 424.148,173.56 424.81,191.282 425.471,211.589 426.133,234.137 426.794,258.553 427.455,284.442 428.117,311.401 428.778,339.035 429.44,366.961 430.101,394.817 430.762,422.271 431.424,449.013 432.085,474.766 432.747,499.277 433.408,522.317 434.069,543.676 434.731,563.162 435.392,580.592 436.053,595.793 436.715,608.595 437.376,618.827 438.038,626.315 438.699,630.882 439.36,632.342 440.022,630.506 440.683,625.18 441.345,616.174 442.006,603.315 442.667,586.458 443.329,565.525 443.99,540.536 444.651,511.684 445.313,479.425 445.974,444.607 446.636,408.633 447.297,373.593 447.958,342.218 448.62,317.448 449.281,301.537 449.943,295.176 450.604,297.313 451.265,305.858 451.927,318.63 452.588,333.928 453.25,350.6 453.911,367.904 454.572,385.347 455.234,402.572 455.895,419.298 456.556,435.285 457.218,450.321 457.879,464.207 458.541,476.761 459.202,487.807 459.863,497.178 460.525,504.713 461.186,510.257 461.848,513.659 462.509,514.771 463.17,513.453 463.832,509.572 464.493,503.004 465.155,493.644 465.816,481.406 466.477,466.243 467.139,448.148 467.8,427.183 468.461,403.488 469.123,377.312 469.784,349.031 470.446,319.168 471.107,288.398 471.768,257.536 472.43,227.487 473.091,199.175 473.753,173.445 474.414,150.981 475.075,132.26 475.737,117.567 476.398,107.043 477.06,100.746 477.721,98.6912 478.382,100.865 479.044,107.218 479.705,117.649 480.366,131.991 481.028,149.997 481.689,171.345 482.351,195.644 483.012,222.448 483.673,251.28 484.335,281.648 484.996,313.061 485.658,345.051 486.319,377.177 486.98,409.037 487.642,440.267 488.303,470.545 488.964,499.585 489.626,527.139 490.287,552.983 490.949,576.92 491.61,598.769 492.271,618.364 492.933,635.542 493.594,650.144 494.256,662.01 494.917,670.969 495.578,676.845 496.24,679.447 496.901,678.575 497.563,674.019 498.224,665.568 498.885,653.019 499.547,636.198 500.208,614.998 500.869,589.431 501.531,559.718 502.192,526.436 502.854,490.739 503.515,454.661 504.176,421.386 504.838,395.08 505.499,379.725 506.161,377.288 506.822,386.731 507.483,404.832 508.145,427.953 508.806,453.272 509.468,479.013 510.129,504.149 510.79,528.084 511.452,550.441 512.113,570.952 512.774,589.403 513.436,605.605 514.097,619.385 514.759,630.57 515.42,638.986 516.081,644.457 516.743,646.795 517.404,645.806 518.066,641.294 518.727,633.059 519.388,620.914 520.05,604.701 520.711,584.316 521.373,559.757 522.034,531.189 522.695,499.047 523.357,464.183 524.018,428.055 524.679,392.917 525.341,361.81 526.002,338.074 526.664,324.261 527.325,321.035 527.986,326.991 528.648,339.559 529.309,356.178 529.971,374.924 530.632,394.552 531.293,414.283 531.955,433.614 532.616,452.191 533.277,469.739 533.939,486.024 534.6,500.843 535.262,514.005 535.923,525.333 536.584,534.654 537.246,541.802 537.907,546.612 538.569,548.924 539.23,548.579 539.891,545.42 540.553,539.3 541.214,530.083 541.876,517.655 542.537,501.934 543.198,482.889 543.86,460.559 544.521,435.09 545.182,406.763 545.844,376.04 546.505,343.598 547.167,310.358 547.828,277.462 548.489,246.193 549.151,217.821 549.812,193.397 550.474,173.584 551.135,158.612 551.796,148.362 552.458,142.536 553.119,140.802 553.781,142.869 554.442,148.503 555.103,157.501 555.765,169.663 556.426,184.767 557.087,202.555 557.749,222.73 558.41,244.958 559.072,268.878 559.733,294.113 560.394,320.282 561.056,347.009 561.717,373.931 562.379,400.708 563.04,427.022 563.701,452.579 564.363,477.114 565.024,500.382 565.686,522.161 566.347,542.247 567.008,560.449 567.67,576.587 568.331,590.486 568.992,601.975 569.654,610.883 570.315,617.035 570.977,620.251 571.638,620.347 572.299,617.136 572.961,610.431 573.622,600.053 574.284,585.843 574.945,567.684 575.606,545.531 576.268,519.455 576.929,489.714 577.59,456.843 578.252,421.777 578.913,385.986 579.575,351.548 580.236,321.031 580.897,297.011 581.559,281.289 582.22,274.24 582.882,274.813 583.543,281.191 584.204,291.553 584.866,304.485 585.527,319.021 586.189,334.517 586.85,350.532 587.511,366.734 588.173,382.853 588.834,398.65 589.495,413.91 590.157,428.432 590.818,442.024 591.48,454.506 592.141,465.705 592.802,475.455 593.464,483.598 594.125,489.982 594.787,494.457 595.448,496.884 596.109,497.125 596.771,495.052 597.432,490.545 598.094,483.498 598.755,473.822 599.416,461.454 600.078,446.364 600.739,428.569 601.4,408.145 602.062,385.243 602.723,360.109 603.385,333.096 604.046,304.679 604.707,275.452 605.369,246.117 606.03,217.443 606.692,190.216 607.353,165.178 608.014,142.964 608.676,124.077 609.337,108.889 609.998,97.6611 610.66,90.5756 611.321,87.7575 611.983,89.2788 612.644,95.1518 613.305,105.315 613.967,119.62 614.628,137.827 615.29,159.605 615.951,184.546 616.612,212.18 617.274,242 617.935,273.479 618.597,306.099 619.258,339.36 619.919,372.797 620.581,405.985 621.242,438.546 621.903,470.143 622.565,500.485 623.226,529.314 623.888,556.409 624.549,581.57 625.21,604.62 625.872,625.395 626.533,643.738 627.195,659.495 627.856,672.509 628.517,682.617 629.179,689.644 629.84,693.405 630.502,693.699 631.163,690.316 631.824,683.039 632.486,671.653 633.147,655.969 633.808,635.851 634.47,611.27 635.131,582.391 635.793,549.721 636.454,514.333 637.115,478.214 637.777,444.622 638.438,418.023 639.1,402.886 639.761,401.55 640.422,412.983 641.084,433.646 641.745,459.502 642.407,487.438 643.068,515.529 643.729,542.703 644.391,568.362 645.052,592.145 645.713,613.802 646.375,633.139 647.036,649.985 647.698,664.177 648.359,675.55 649.02,683.934 649.682,689.148 650.343,690.997 651.005,689.277 651.666,683.772 652.327,674.267 652.989,660.559 653.65,642.483 654.311,619.955 654.973,593.037 655.634,562.051 656.296,527.763 656.957,491.659 657.618,456.318 658.28,425.621 658.941,404.186 659.603,395.604 660.264,400.545 660.925,416.562 661.587,439.702 662.248,466.352 662.91,494.048 663.571,521.353 664.232,547.469 664.894,571.932 665.555,594.443 666.216,614.78 666.878,632.758 667.539,648.208 668.201,660.965 668.862,670.861 669.523,677.721 670.185,681.358 670.846,681.574 671.508,678.161 672.169,670.905 672.83,659.599 673.492,644.056 674.153,624.145 674.815,599.832 675.476,571.267 676.137,538.909 676.799,503.727 677.46,467.493 678.121,433.098 678.783,404.566 679.444,386.168 680.106,380.606 680.767,387.609 681.428,404.304 682.09,426.935 682.751,452.362 683.413,478.531 684.074,504.251 684.735,528.839 685.397,551.878 686.058,573.081 686.72,592.226 687.381,609.125 688.042,623.6 688.704,635.483 689.365,644.601 690.026,650.776 690.688,653.823 691.349,653.549 692.011,649.753 692.672,642.233 693.333,630.795 693.995,615.269 694.656,595.536 695.318,571.571 695.979,543.508 696.64,511.74 697.302,477.074 697.963,440.933 698.624,405.568 699.286,374.116 699.947,350.133 700.609,336.446 701.27,333.897 701.931,341.05 702.593,355.143 703.254,373.387 703.916,393.694 704.577,414.725 705.238,435.662 705.9,455.985 706.561,475.334 707.223,493.435 707.884,510.059 708.545,525.003 709.207,538.08 709.868,549.114 710.529,557.931 711.191,564.363 711.852,568.24 712.514,569.397 713.175,567.664 713.836,562.881 714.498,554.89 715.159,543.553 715.821,528.759 716.482,510.439 717.143,488.596 717.805,463.333 718.466,434.899 719.128,403.739 719.789,370.554 720.45,336.348 721.112,302.434 721.773,270.36 722.434,241.704 723.096,217.783 723.757,199.364 724.419,186.563 725.08,178.984 725.741,175.985 726.403,176.923 727.064,181.271 727.726,188.632 728.387,198.704 729.048,211.23 729.71,225.969 730.371,242.671 731.033,261.07 731.694,280.886 732.355,301.822 733.017,323.577 733.678,345.846 734.339,368.332 735.001,390.744 735.662,412.808 736.324,434.262 736.985,454.864 737.646,474.384 738.308,492.61 738.969,509.341 739.631,524.388 740.292,537.57 740.953,548.712 741.615,557.644 742.276,564.198 742.937,568.205 743.599,569.497 744.26,567.908 744.922,563.275 745.583,555.441 746.244,544.266 746.906,529.638 747.567,511.485 748.229,489.805 748.89,464.698 749.551,436.401 750.213,405.352 750.874,372.238 751.536,338.049 752.197,304.085 752.858,271.887 753.52,243.041 754.181,218.883 754.842,200.211 755.504,187.17 756.165,179.378 756.827,176.198 757.488,176.982 758.149,181.195 758.811,188.435 759.472,198.394 760.134,210.816 760.795,225.458 761.456,242.071 762.118,260.391 762.779,280.138 763.441,301.015 764.102,322.723 764.763,344.956 765.425,367.418 766.086,389.817 766.747,411.879 767.409,433.343 768.07,453.963 768.732,473.512 769.393,491.775 770.054,508.552 770.716,523.653 771.377,536.898 772.039,548.11 772.7,557.121 773.361,563.76 774.023,567.86 774.684,569.254 775.346,567.774 776.007,563.258 776.668,555.549 777.33,544.506 777.991,530.014 778.652,512.003 779.314,490.466 779.975,465.497 780.637,437.33 781.298,406.39 781.959,373.353 782.621,339.195 783.282,305.202 783.944,272.904 784.605,243.886 785.266,219.498 785.928,200.563 786.589,187.255 787.25,179.212 787.912,175.807 788.573,176.394 789.235,180.436 789.896,187.526 790.557,197.356 791.219,209.669 791.88,224.221 792.542,240.765 793.203,259.038 793.864,278.757 794.526,299.629 795.187,321.35 795.849,343.617 796.51,366.129 797.171,388.597 797.833,410.741 798.494,432.301 799.155,453.031 799.817,472.7 800.478,491.093 801.14,508.01 801.801,523.259 802.462,536.659 803.124,548.035 803.785,557.217 804.447,564.034 805.108,568.32 805.769,569.906 806.431,568.625 807.092,564.312 807.754,556.812 808.415,545.981 809.076,531.702 809.738,513.899 810.399,492.562 811.06,467.777 811.722,439.767 812.383,408.947 813.045,375.979 813.706,341.823 814.367,307.757 815.029,275.309 815.69,246.081 816.352,221.451 817.013,202.279 817.674,188.77 818.336,180.573 818.997,177.056 819.658,177.558 820.32,181.525 820.981,188.54 821.643,198.286 822.304,210.503 822.965,224.946 823.627,241.369 824.288,259.508 824.95,279.086 825.611,299.81 826.272,321.381 826.934,343.495 827.595,365.855 828.257,388.174 828.918,410.173 829.579,431.593 830.241,452.189 830.902,471.731 831.563,490.005 832.225,506.809 832.886,521.954 833.548,535.258 834.209,546.546 834.87,555.647 835.532,562.393 836.193,566.617 836.855,568.15 837.516,566.826 838.177,562.483 838.839,554.964 839.5,544.128 840.162,529.859 840.823,512.084 841.484,490.792 842.146,466.07 842.807,438.14 843.468,407.414 844.13,374.543 844.791,340.475 845.453,306.465 846.114,274.013 846.775,244.692 847.437,219.865 848.098,200.395 848.76,186.511 849.421,177.902 850.082,173.972 850.744,174.089 851.405,177.719 852.067,184.458 852.728,193.996 853.389,206.077 854.051,220.46 854.712,236.898 855.373,255.127 856.035,274.866 856.696,295.816 857.358,317.673 858.019,340.127 858.68,362.874 859.342,385.618 860.003,408.078 860.665,429.986 861.326,451.092 861.987,471.163 862.649,489.98 863.31,507.339 863.971,523.049 864.633,536.926 865.294,548.793 865.956,558.48 866.617,565.816 867.278,570.633 867.94,572.761 868.601,572.033 869.263,568.282 869.924,561.348 870.585,551.082 871.247,537.359 871.908,520.094 872.57,499.262 873.231,474.929 873.892,447.295 874.554,416.745 875.215,383.91 875.876,349.722 876.538,315.444 877.199,282.619 877.861,252.903 878.522,227.766 879.183,208.167 879.845,194.376 880.506,186.056 881.168,182.533 881.829,183.086 882.49,187.107 883.152,194.134 883.813,203.825 884.475,215.904 885.136,230.121 885.797,246.231 886.459,263.975 887.12,283.084 887.781,303.273 888.443,324.254 889.104,345.734 889.766,367.427 890.427,389.053 891.088,410.344 891.75,431.047 892.411,450.923 893.073,469.747 893.734,487.308 894.395,503.41 895.057,517.863 895.718,530.488 896.38,541.113 897.041,549.567 897.702,555.683 898.364,559.297 899.025,560.243 899.686,558.36 900.348,553.489 901.009,545.481 901.671,534.205 902.332,519.554 902.993,501.469 903.655,479.954 904.316,455.113 904.978,427.181 905.639,396.577 906.3,363.951 906.962,330.222 907.623,296.583 908.284,264.438 908.946,235.232 909.607,210.213 910.269,190.187 910.93,175.412 911.591,165.686 912.253,160.552 912.914,159.51 913.576,162.129 914.237,168.072 914.898,177.075 915.56,188.905 916.221,203.334 916.883,220.113 917.544,238.968 918.205,259.599 918.867,281.686 919.528,304.894 920.189,328.885 920.851,353.323 921.512,377.886 922.174,402.263 922.835,426.163 923.496,449.317 924.158,471.474 924.819,492.403 925.481,511.889 926.142,529.732 926.803,545.744 927.465,559.745 928.126,571.561 928.788,581.019 929.449,587.949 930.11,592.176 930.772,593.526 931.433,591.822 932.094,586.89 932.756,578.559 933.417,566.676 934.079,551.114 934.74,531.8 935.401,508.736 936.063,482.049 936.724,452.048 937.386,419.295 938.047,384.695 938.708,349.567 939.37,315.654 940.031,284.972 940.693,259.457 941.354,240.468 942.015,228.411 942.677,222.757 943.338,222.429 943.999,226.264 944.661,233.294 945.322,242.813 945.984,254.323 946.645,267.46 947.306,281.931 947.968,297.478 948.629,313.857 949.291,330.831 949.952,348.163 950.613,365.621 951.275,382.977 951.936,400.01 952.597,416.504 953.259,432.254 953.92,447.063 954.582,460.745 955.243,473.118 955.904,484.011 956.566,493.26 957.227,500.704 957.889,506.189 958.55,509.567 959.211,510.692 959.873,509.425 960.534,505.636 961.196,499.204 961.857,490.024 962.518,478.015 963.18,463.128 963.841,445.36 964.502,424.766 965.164,401.483 965.825,375.747 966.487,347.918 967.148,318.493 967.809,288.114 968.471,257.557 969.132,227.687 969.794,199.397 970.455,173.514 971.116,150.727 971.778,131.542 972.439,116.282 973.101,105.133 973.762,98.1906 974.423,95.5031 975.085,97.0827 975.746,102.901 976.407,112.873 977.069,126.843 977.73,144.574 978.392,165.748 979.053,189.974 979.714,216.805 980.376,245.757 981.037,276.328 981.699,308.019 982.36,340.349 983.021,372.867 983.683,405.161 984.344,436.859 985.006,467.631 985.667,497.186 986.328,525.268 986.99,551.654 987.651,576.143 988.312,598.553 988.974,618.718 989.635,636.477 990.297,651.672 990.958,664.144 991.619,673.725 992.281,680.239 992.942,683.501 993.604,683.309 994.265,679.455 994.926,671.724 995.588,659.909 996.249,643.828 996.91,623.357 997.572,598.481 998.233,569.38 998.895,536.571 999.556,501.118 1000.22,464.947 1000.88,431.154 1001.54,403.93 1002.2,387.496 1002.86,384.189 1003.52,393.25 1004.19,411.497 1004.85,435.139 1005.51,461.163 1006.17,487.655 1006.83,513.519 1007.49,538.127 1008.15,561.09 1008.82,582.139 1009.48,601.062 1010.14,617.672 1010.8,631.8 1011.46,643.274 1012.12,651.922 1012.78,657.566 1013.45,660.017 1014.11,659.08 1014.77,654.55 1015.43,646.224 1016.09,633.908 1016.75,617.437 1017.41,596.705 1018.07,571.716 1018.74,542.654 1019.4,510.007 1020.06,474.739 1020.72,438.52 1021.38,403.946 1022.04,374.5 1022.7,353.838 1023.37,344.41 1024.03,346.301 1024.69,357.368 1025.35,374.525 1026.01,395.02 1026.67,416.939 1027.33,439.102 1028,460.796 1028.66,481.564 1029.32,501.085 1029.98,519.104 1030.64,535.408 1031.3,549.804 1031.96,562.109 1032.63,572.151 1033.29,579.755 1033.95,584.751 1034.61,586.966 1035.27,586.224 1035.93,582.354 1036.59,575.186 1037.26,564.564 1037.92,550.355 1038.58,532.469 1039.24,510.881 1039.9,485.667 1040.56,457.058 1041.22,425.5 1041.88,391.729 1042.55,356.845 1043.21,322.346 1043.87,290.052 1044.53,261.863 1045.19,239.34 1045.85,223.305 1046.51,213.683 1047.18,209.721 1047.84,210.398 1048.5,214.764 1049.16,222.079 1049.82,231.812 1050.48,243.578 1051.14,257.074 1051.81,272.036 1052.47,288.218 1053.13,305.374 1053.79,323.255 1054.45,341.615 1055.11,360.206 1055.77,378.784 1056.44,397.114 1057.1,414.966 1057.76,432.123 1058.42,448.376 1059.08,463.526 1059.74,477.386 1060.4,489.776 1061.07,500.523 1061.73,509.461 1062.39,516.429 1063.05,521.27 1063.71,523.832 1064.37,523.965 1065.03,521.526 1065.69,516.379 1066.36,508.404 1067.02,497.494 1067.68,483.574 1068.34,466.609 1069,446.619 1069.66,423.703 1070.32,398.059 1070.99,370.017 1071.65,340.059 1072.31,308.837 1072.97,277.175 1073.63,246.029 1074.29,216.414 1074.95,189.296 1075.62,165.474 1076.28,145.504 1076.94,129.693 1077.6,118.147 1078.26,110.862 1078.92,107.786 1079.58,108.851 1080.25,113.978 1080.91,123.06 1081.57,135.94 1082.23,152.397 1082.89,172.144 1083.55,194.827 1084.21,220.041 1084.88,247.339 1085.54,276.259 1086.2,306.333 1086.86,337.106 1087.52,368.146 1088.18,399.054 1088.84,429.465 1089.5,459.051 1090.17,487.523 1090.83,514.62 1091.49,540.114 1092.15,563.797 1092.81,585.484 1093.47,604.999 1094.13,622.176 1094.8,636.852 1095.46,648.864 1096.12,658.043 1096.78,664.21 1097.44,667.181 1098.1,666.757 1098.76,662.734 1099.43,654.904 1100.09,643.069 1100.75,627.054 1101.41,606.741 1102.07,582.117 1102.73,553.347 1103.39,520.897 1104.06,485.711 1104.72,449.466 1105.38,414.821 1106.04,385.414 1106.7,365.125 1107.36,356.571 1108.02,359.829 1108.69,372.576 1109.35,391.497 1110.01,413.668 1110.67,437.086 1111.33,460.537 1111.99,483.301 1112.65,504.926 1113.31,525.097 1113.98,543.569 1114.64,560.132 1115.3,574.6 1115.96,586.794 1116.62,596.54 1117.28,603.664 1117.94,607.99 1118.61,609.338 1119.27,607.525 1119.93,602.37 1120.59,593.693 1121.25,581.333 1121.91,565.157 1122.57,545.087 1123.24,521.137 1123.9,493.459 1124.56,462.417 1125.22,428.684 1125.88,393.35 1126.54,358.014 1127.2,324.786 1127.87,296.047 1128.53,273.921 1129.19,259.614 1129.85,253.049 1130.51,253.091 1131.17,258.17 1131.83,266.837 1132.5,278 1133.16,290.907 1133.82,305.043 1134.48,320.035 1135.14,335.586 1135.8,351.441 1136.46,367.368 1137.12,383.148 1137.79,398.57 1138.45,413.434 1139.11,427.548 1139.77,440.728 1140.43,452.796 1141.09,463.583 1141.75,472.928 1142.42,480.673 1143.08,486.668 1143.74,490.77 1144.4,492.837 1145.06,492.739 1145.72,490.349 1146.38,485.552 1147.05,478.248 1147.71,468.353 1148.37,455.81 1149.03,440.598 1149.69,422.741 1150.35,402.322 1151.01,379.501 1151.68,354.527 1152.34,327.756 1153,299.657 1153.66,270.813 1154.32,241.906 1154.98,213.679 1155.64,186.889 1156.3,162.249 1156.97,140.376 1157.63,121.768 1158.29,106.804 1158.95,95.7616 1159.61,88.8413 1160.27,86.1857 1160.93,87.8799 1161.6,93.9438 1162.26,104.318 1162.92,118.855 1163.58,137.309 1164.24,159.344 1164.9,184.546 1165.56,212.438 1166.23,242.506 1166.89,274.221 1167.55,307.059 1168.21,340.519 1168.87,374.134 1169.53,407.479 1170.19,440.175 1170.86,471.888 1171.52,502.326 1172.18,531.235 1172.84,558.393 1173.5,583.603 1174.16,606.689 1174.82,627.487 1175.49,645.842 1176.15,661.601 1176.81,674.606 1177.47,684.695 1178.13,691.695 1178.79,695.417 1179.45,695.663 1180.11,692.221 1180.78,684.872 1181.44,673.402 1182.1,657.622 1182.76,637.395 1183.42,612.696 1184.08,583.7 1184.74,550.925 1185.41,515.478 1186.07,479.402 1186.73,446.042 1187.39,419.951 1188.05,405.599 1188.71,405.196 1189.37,417.524 1190.04,438.917 1190.7,465.312 1191.36,493.628 1192.02,521.986 1192.68,549.342 1193.34,575.119 1194,598.966 1194.67,620.643 1195.33,639.958 1195.99,656.745 1196.65,670.841 1197.31,682.085 1197.97,690.306 1198.63,695.32 1199.3,696.934 1199.96,694.938 1200.62,689.116 1201.28,679.251 1201.94,665.139 1202.6,646.619 1203.26,623.614 1203.92,596.21 1204.59,564.772 1205.25,530.154 1205.91,494.004 1206.57,459.161 1207.23,429.825 1207.89,410.759 1208.55,405.264 1209.22,413.378 1209.88,432.092 1210.54,457.243 1211.2,485.291 1211.86,513.933 1212.52,541.866 1213.18,568.376 1213.85,593.05 1214.51,615.618 1215.17,635.876 1215.83,653.651 1216.49,668.784 1217.15,681.112 1217.81,690.469 1218.48,696.677 1219.14,699.545 1219.8,698.87 1220.46,694.437 1221.12,686.024 1221.78,673.421 1222.44,656.447 1223.11,634.988 1223.77,609.061 1224.43,578.923 1225.09,545.236 1225.75,509.356 1226.41,473.722 1227.07,442.172 1227.73,419.538 1228.4,409.894 1229.06,414.386 1229.72,430.742 1230.38,454.849 1231.04,482.794 1231.7,511.864 1232.36,540.486 1233.03,567.804 1233.69,593.338 1234.35,616.789 1235.01,637.944 1235.67,656.628 1236.33,672.68 1236.99,685.944 1237.66,696.256 1238.32,703.442 1238.98,707.315 1239.64,707.675 1240.3,704.306 1240.96,696.986 1241.62,685.496 1242.29,669.641 1242.95,649.283 1243.61,624.399 1244.27,595.178 1244.93,562.185 1245.59,526.636 1246.25,490.798 1246.92,458.402 1247.58,434.419 1248.24,423.384 1248.9,426.993 1249.56,443.258 1250.22,467.978 1250.88,496.956 1251.54,527.211 1252.21,557.01 1252.87,585.426 1253.53,611.957 1254.19,636.304 1254.85,658.26 1255.51,677.66 1256.17,694.352 1256.84,708.188 1257.5,719.01 1258.16,726.648 1258.82,730.918 1259.48,731.616 1260.14,728.523 1260.8,721.412 1261.47,710.053 1262.13,694.243 1262.79,673.834 1263.45,648.806 1264.11,619.372 1264.77,586.179 1265.43,550.652 1266.1,515.519 1266.76,485.283 1267.42,465.624 1268.08,460.888 1268.74,471.546 1269.4,494.236 1270.06,524.049 1270.73,556.776 1271.39,589.72 1272.05,621.435 1272.71,651.194 1273.37,678.626 1274.03,703.517 1274.69,725.721 1275.35,745.115 1276.02,761.578 1276.68,774.981 1277.34,785.179 1278,792.005 1278.66,795.271 1279.32,794.762 1279.98,790.246 1280.65,781.478 1281.31,768.222 1281.97,750.279 1282.63,727.555 1283.29,700.173 1283.95,668.698 1284.61,634.58 1285.28,600.948 1285.94,573.38 1286.6,558.649 1287.26,560.8 1287.92,578.804 1288.58,607.953 1289.24,642.825 1289.91,679.289 1290.57,714.921 1291.23,748.532 1291.89,779.607 1292.55,807.932 1293.21,833.418 1293.87,856.013 1294.54,875.675 1295.2,892.346 1295.86,905.946 1296.52,916.37 1297.18,923.481 1297.84,927.107 1298.5,927.048 1299.16,923.073 1299.83,914.936 1300.49,902.401 1301.15,885.285 1301.81,863.559 1302.47,837.564 1303.13,808.52 1303.79,779.688 1304.46,757.401 1305.12,748.166 1305.78,754.234 1306.44,773.376 1307.1,801.107 1307.76,832.984 1308.42,865.764 1309.09,897.52 1309.75,927.291 1310.41,954.688 1311.07,979.589 1311.73,1001.98 1312.39,1021.89 1313.05,1039.33 1313.72,1054.3 1314.38,1066.77 1315.04,1076.71 1315.7,1084.01 1316.36,1088.57 1317.02,1090.24 1317.68,1088.84 1318.35,1084.18 1319.01,1076.07 1319.67,1064.35 1320.33,1048.99 1320.99,1030.29 1321.65,1009.56 1322.31,990.423 1322.97,978.135 1323.64,975.579 1324.3,982.596 1324.96,997.105 1325.62,1016.36 1326.28,1037.89 1326.94,1059.94 1327.6,1081.37 1328.27,1101.55 1328.93,1120.18 1329.59,1137.15 1330.25,1152.46 1330.91,1166.1 1331.57,1178.1 1332.23,1188.47 1332.9,1197.19 1333.56,1204.23 1334.22,1209.54 1334.88,1213.05 1335.54,1214.66 1336.2,1214.26 1336.86,1211.72 1337.53,1206.91 1338.19,1199.74 1338.85,1190.2 1339.51,1178.54 1340.17,1165.9 1340.83,1155.07 1341.49,1148.83 1342.16,1148.12 1342.82,1152.55 1343.48,1160.95 1344.14,1171.95 1344.8,1184.3 1345.46,1197.05 1346.12,1209.6 1346.78,1221.55 1347.45,1232.69 1348.11,1242.9 1348.77,1252.15 1349.43,1260.45 1350.09,1267.79 1350.75,1274.17 1351.41,1279.6 1352.08,1284.04 1352.74,1287.48 1353.4,1289.86 1354.06,1291.13 1354.72,1291.23 1355.38,1290.08 1356.04,1287.6 1356.71,1283.75 1357.37,1278.5 1358.03,1271.99 1358.69,1264.85 1359.35,1258.7 1360.01,1255 1360.67,1254.23 1361.34,1256.22 1362,1260.41 1362.66,1266.12 1363.32,1272.69 1363.98,1279.62 1364.64,1286.56 1365.3,1293.25 1365.96,1299.56 1366.63,1305.4 1367.29,1310.73 1367.95,1315.54 1368.61,1319.83 1369.27,1323.6 1369.93,1326.83 1370.59,1329.54 1371.26,1331.69 1371.92,1333.26 1372.58,1334.24 1373.24,1334.57 1373.9,1334.23 1374.56,1333.16 1375.22,1331.34 1375.89,1328.74 1376.55,1325.41 1377.21,1321.57 1377.87,1317.97 1378.53,1315.5 1379.19,1314.54 1379.85,1315.07 1380.52,1316.87 1381.18,1319.61 1381.84,1322.94 1382.5,1326.56 1383.16,1330.28 1383.82,1333.93 1384.48,1337.41 1385.15,1340.68 1385.81,1343.68 1386.47,1346.41 1387.13,1348.87 1387.79,1351.05 1388.45,1352.95 1389.11,1354.56 1389.77,1355.88 1390.44,1356.9 1391.1,1357.61 1391.76,1357.98 1392.42,1358 1393.08,1357.64 1393.74,1356.88 1394.4,1355.71 1395.07,1354.13 1395.73,1352.19 1396.39,1350.15 1397.05,1348.5 1397.71,1347.58 1398.37,1347.45 1399.03,1348.06 1399.7,1349.25 1400.36,1350.84 1401.02,1352.68 1401.68,1354.62 1402.34,1356.57 1403,1358.46 1403.66,1360.26 1404.33,1361.93 1404.99,1363.46 1405.65,1364.85 1406.31,1366.1 1406.97,1367.2 1407.63,1368.15 1408.29,1368.94 1408.96,1369.59 1409.62,1370.07 1410.28,1370.38 1410.94,1370.51 1411.6,1370.45 1412.26,1370.18 1412.92,1369.7 1413.58,1369 1414.25,1368.09 1414.91,1367.02 1415.57,1366 1416.23,1365.27 1416.89,1364.94 1417.55,1365.03 1418.21,1365.47 1418.88,1366.18 1419.54,1367.06 1420.2,1368.05 1420.86,1369.07 1421.52,1370.08 1422.18,1371.06 1422.84,1371.98 1423.51,1372.83 1424.17,1373.62 1424.83,1374.32 1425.49,1374.95 1426.15,1375.5 1426.81,1375.97 1427.47,1376.37 1428.14,1376.68 1428.8,1376.9 1429.46,1377.04 1430.12,1377.07 1430.78,1377.01 1431.44,1376.83 1432.1,1376.54 1432.77,1376.14 1433.43,1375.63 1434.09,1375.06 1434.75,1374.57 1435.41,1374.26 1436.07,1374.16 1436.73,1374.26 1437.39,1374.54 1438.06,1374.94 1438.72,1375.43 1439.38,1375.95 1440.04,1376.48 1440.7,1377.01 1441.36,1377.51 1442.02,1377.98 1442.69,1378.41 1443.35,1378.81 1444.01,1379.17 1444.67,1379.48 1445.33,1379.76 1445.99,1380 1446.65,1380.19 1447.32,1380.34 1447.98,1380.44 1448.64,1380.5 1449.3,1380.5 1449.96,1380.45 1450.62,1380.34 1451.28,1380.18 1451.95,1379.95 1452.61,1379.67 1453.27,1379.38 1453.93,1379.14 1454.59,1379.01 1455.25,1378.99 1455.91,1379.07 1456.58,1379.24 1457.24,1379.46 1457.9,1379.72 1458.56,1380 1459.22,1380.28 1459.88,1380.55 1460.54,1380.8 1461.2,1381.04 1461.87,1381.26 1462.53,1381.47 1463.19,1381.65 1463.85,1381.8 1464.51,1381.94 1465.17,1382.06 1465.83,1382.15 1466.5,1382.23 1467.16,1382.27 1467.82,1382.3 1468.48,1382.29 1469.14,1382.26 1469.8,1382.19 1470.46,1382.09 1471.13,1381.97 1471.79,1381.82 1472.45,1381.67 1473.11,1381.56 1473.77,1381.51 1474.43,1381.51 1475.09,1381.57 1475.76,1381.67 1476.42,1381.79 1477.08,1381.93 1477.74,1382.07 1478.4,1382.21 1479.06,1382.35 1479.72,1382.49 1480.39,1382.61 1481.05,1382.72 1481.71,1382.82 1482.37,1382.91 1483.03,1382.99 1483.69,1383.06 1484.35,1383.12 1485.01,1383.17 1485.68,1383.2 1486.34,1383.22 1487,1383.23 1487.66,1383.22 1488.32,1383.2 1488.98,1383.16 1489.64,1383.11 1490.31,1383.04 1490.97,1382.96 1491.63,1382.88 1492.29,1382.84 1492.95,1382.82 1493.61,1382.83 1494.27,1382.86 1494.94,1382.92 1495.6,1382.98 1496.26,1383.06 1496.92,1383.13 1497.58,1383.21 1498.24,1383.28 1498.9,1383.34 1499.57,1383.41 1500.23,1383.46 1500.89,1383.51 1501.55,1383.56 1502.21,1383.6 1502.87,1383.63 1503.53,1383.66 1504.2,1383.69 1504.86,1383.7 1505.52,1383.71 1506.18,1383.71 1506.84,1383.71 1507.5,1383.69 1508.16,1383.67 1508.82,1383.64 1509.49,1383.6 1510.15,1383.56 1510.81,1383.53 1511.47,1383.5 1512.13,1383.5 1512.79,1383.51 1513.45,1383.53 1514.12,1383.56 1514.78,1383.6 1515.44,1383.63 1516.1,1383.67 1516.76,1383.71 1517.42,1383.75 1518.08,1383.78 1518.75,1383.81 1519.41,1383.84 1520.07,1383.87 1520.73,1383.89 1521.39,1383.91 1522.05,1383.93 1522.71,1383.94 1523.38,1383.95 1524.04,1383.96 1524.7,1383.96 1525.36,1383.96 1526.02,1383.96 1526.68,1383.95 1527.34,1383.94 1528.01,1383.92 1528.67,1383.9 1529.33,1383.88 1529.99,1383.86 1530.65,1383.86 1531.31,1383.85 1531.97,1383.86 1532.63,1383.87 1533.3,1383.89 1533.96,1383.91 1534.62,1383.93 1535.28,1383.95 1535.94,1383.97 1536.6,1383.99 1537.26,1384.01 1537.93,1384.02 1538.59,1384.04 1539.25,1384.05 1539.91,1384.06 1540.57,1384.07 1541.23,1384.08 1541.89,1384.09 1542.56,1384.09 1543.22,1384.09 1543.88,1384.1 1544.54,1384.1 1545.2,1384.09 1545.86,1384.09 1546.52,1384.08 1547.19,1384.07 1547.85,1384.06 1548.51,1384.05 1549.17,1384.04 1549.83,1384.04 1550.49,1384.04 1551.15,1384.04 1551.82,1384.05 1552.48,1384.06 1553.14,1384.07 1553.8,1384.08 1554.46,1384.09 1555.12,1384.1 1555.78,1384.11 1556.44,1384.12 1557.11,1384.13 1557.77,1384.14 1558.43,1384.14 1559.09,1384.15 1559.75,1384.15 1560.41,1384.16 1561.07,1384.16 1561.74,1384.16 1562.4,1384.16 1563.06,1384.16 1563.72,1384.16 1564.38,1384.16 1565.04,1384.16 1565.7,1384.16 1566.37,1384.15 1567.03,1384.14 1567.69,1384.14 1568.35,1384.14 1569.01,1384.13 1569.67,1384.14 1570.33,1384.14 1571,1384.14 1571.66,1384.15 1572.32,1384.15 1572.98,1384.16 1573.64,1384.16 1574.3,1384.17 1574.96,1384.17 1575.62,1384.18 1576.29,1384.18 1576.95,1384.19 1577.61,1384.19 1578.27,1384.19 1578.93,1384.19 1579.59,1384.2 1580.25,1384.2 1580.92,1384.2 1581.58,1384.2 1582.24,1384.2 1582.9,1384.2 1583.56,1384.2 1584.22,1384.2 1584.88,1384.19 1585.55,1384.19 1586.21,1384.19 1586.87,1384.19 1587.53,1384.18 1588.19,1384.18 1588.85,1384.19 1589.51,1384.19 1590.18,1384.19 1590.84,1384.19 1591.5,1384.19 1592.16,1384.2 1592.82,1384.2 1593.48,1384.2 1594.14,1384.21 1594.81,1384.21 1595.47,1384.21 1596.13,1384.21 1596.79,1384.21 1597.45,1384.21 1598.11,1384.22 1598.77,1384.22 1599.43,1384.22 1600.1,1384.22 1600.76,1384.22 1601.42,1384.22 1602.08,1384.22 1602.74,1384.22 1603.4,1384.22 1604.06,1384.22 1604.73,1384.21 1605.39,1384.21 1606.05,1384.21 1606.71,1384.21 1607.37,1384.21 1608.03,1384.21 1608.69,1384.21 1609.36,1384.21 1610.02,1384.21 1610.68,1384.22 1611.34,1384.22 1612,1384.22 1612.66,1384.22 1613.32,1384.22 1613.99,1384.22 1614.65,1384.22 1615.31,1384.22 1615.97,1384.23 1616.63,1384.23 1617.29,1384.23 1617.95,1384.23 1618.62,1384.23 1619.28,1384.23 1619.94,1384.23 1620.6,1384.23 1621.26,1384.23 1621.92,1384.23 1622.58,1384.23 1623.24,1384.23 1623.91,1384.23 1624.57,1384.22 1625.23,1384.22 1625.89,1384.22 1626.55,1384.22 1627.21,1384.22 1627.87,1384.22 1628.54,1384.23 1629.2,1384.23 1629.86,1384.23 1630.52,1384.23 1631.18,1384.23 1631.84,1384.23 1632.5,1384.23 1633.17,1384.23 1633.83,1384.23 1634.49,1384.23 1635.15,1384.23 1635.81,1384.23 1636.47,1384.23 1637.13,1384.23 1637.8,1384.23 1638.46,1384.23 1639.12,1384.23 1639.78,1384.23 1640.44,1384.23 1641.1,1384.23 1641.76,1384.23 1642.43,1384.23 1643.09,1384.23 1643.75,1384.23 1644.41,1384.23 1645.07,1384.23 1645.73,1384.23 1646.39,1384.23 1647.05,1384.23 1647.72,1384.23 1648.38,1384.23 1649.04,1384.23 1649.7,1384.23 1650.36,1384.23 1651.02,1384.23 1651.68,1384.23 1652.35,1384.23 1653.01,1384.23 1653.67,1384.23 1654.33,1384.23 1654.99,1384.24 1655.65,1384.24 1656.31,1384.24 1656.98,1384.24 1657.64,1384.24 1658.3,1384.24 1658.96,1384.24 1659.62,1384.24 1660.28,1384.24 1660.94,1384.24 1661.61,1384.23 1662.27,1384.23 1662.93,1384.23 1663.59,1384.23 1664.25,1384.23 1664.91,1384.23 1665.57,1384.23 1666.24,1384.23 1666.9,1384.23 1667.56,1384.24 1668.22,1384.24 1668.88,1384.24 1669.54,1384.24 1670.2,1384.24 1670.86,1384.24 1671.53,1384.24 1672.19,1384.24 1672.85,1384.24 1673.51,1384.24 1674.17,1384.24 1674.83,1384.24 1675.49,1384.24 1676.16,1384.24 1676.82,1384.24 1677.48,1384.24 1678.14,1384.24 1678.8,1384.24 1679.46,1384.24 1680.12,1384.24 1680.79,1384.24 1681.45,1384.24 1682.11,1384.24 1682.77,1384.24 1683.43,1384.24 1684.09,1384.24 1684.75,1384.24 1685.42,1384.24 1686.08,1384.24 1686.74,1384.24 1687.4,1384.24 1688.06,1384.24 1688.72,1384.24 1689.38,1384.24 1690.05,1384.24 1690.71,1384.24 1691.37,1384.24 1692.03,1384.24 1692.69,1384.24 1693.35,1384.24 1694.01,1384.24 1694.67,1384.24 1695.34,1384.24 1696,1384.24 1696.66,1384.24 1697.32,1384.24 1697.98,1384.24 1698.64,1384.24 1699.3,1384.24 1699.97,1384.24 1700.63,1384.24 1701.29,1384.24 1701.95,1384.24 1702.61,1384.24 1703.27,1384.24 1703.93,1384.24 1704.6,1384.24 1705.26,1384.24 1705.92,1384.24 1706.58,1384.24 1707.24,1384.24 1707.9,1384.24 1708.56,1384.24 1709.23,1384.24 1709.89,1384.24 1710.55,1384.24 1711.21,1384.24 1711.87,1384.24 1712.53,1384.24 1713.19,1384.24 1713.86,1384.24 1714.52,1384.24 1715.18,1384.24 1715.84,1384.24 1716.5,1384.24 1717.16,1384.24 1717.82,1384.24 1718.48,1384.24 1719.15,1384.24 1719.81,1384.24 1720.47,1384.24 1721.13,1384.24 1721.79,1384.24 1722.45,1384.24 1723.11,1384.24 1723.78,1384.24 1724.44,1384.24 1725.1,1384.24 1725.76,1384.24 1726.42,1384.24 1727.08,1384.24 1727.74,1384.24 1728.41,1384.24 1729.07,1384.24 1729.73,1384.24 1730.39,1384.24 1731.05,1384.24 1731.71,1384.24 1732.37,1384.24 1733.04,1384.24 1733.7,1384.24 1734.36,1384.24 1735.02,1384.24 1735.68,1384.24 1736.34,1384.24 1737,1384.24 1737.67,1384.24 1738.33,1384.24 1738.99,1384.24 1739.65,1384.24 1740.31,1384.24 1740.97,1384.24 1741.63,1384.24 1742.29,1384.24 1742.96,1384.24 1743.62,1384.24 1744.28,1384.24 1744.94,1384.24 1745.6,1384.24 1746.26,1384.24 1746.92,1384.24 1747.59,1384.24 1748.25,1384.24 1748.91,1384.24 1749.57,1384.24 1750.23,1384.24 1750.89,1384.24 1751.55,1384.24 1752.22,1384.24 1752.88,1384.24 1753.54,1384.24 1754.2,1384.24 1754.86,1384.24 1755.52,1384.24 1756.18,1384.24 1756.85,1384.24 1757.51,1384.24 1758.17,1384.24 1758.83,1384.24 1759.49,1384.24 1760.15,1384.24 1760.81,1384.24 1761.48,1384.24 1762.14,1384.24 1762.8,1384.24 1763.46,1384.24 1764.12,1384.24 1764.78,1384.24 1765.44,1384.24 1766.1,1384.24 1766.77,1384.24 1767.43,1384.24 1768.09,1384.24 1768.75,1384.24 1769.41,1384.24 1770.07,1384.24 1770.73,1384.24 1771.4,1384.24 1772.06,1384.24 1772.72,1384.24 1773.38,1384.24 1774.04,1384.24 1774.7,1384.24 1775.36,1384.24 1776.03,1384.24 1776.69,1384.24 1777.35,1384.24 1778.01,1384.24 1778.67,1384.24 1779.33,1384.24 1779.99,1384.24 1780.66,1384.24 1781.32,1384.24 1781.98,1384.24 1782.64,1384.24 1783.3,1384.24 1783.96,1384.24 1784.62,1384.24 1785.28,1384.24 1785.95,1384.24 1786.61,1384.24 1787.27,1384.24 1787.93,1384.24 1788.59,1384.24 1789.25,1384.24 1789.91,1384.24 1790.58,1384.24 1791.24,1384.24 1791.9,1384.24 1792.56,1384.24 1793.22,1384.24 1793.88,1384.24 1794.54,1384.24 1795.21,1384.24 1795.87,1384.24 1796.53,1384.24 1797.19,1384.24 1797.85,1384.24 1798.51,1384.24 1799.17,1384.24 1799.84,1384.24 1800.5,1384.24 1801.16,1384.24 1801.82,1384.24 1802.48,1384.24 1803.14,1384.24 1803.8,1384.24 1804.47,1384.24 1805.13,1384.24 1805.79,1384.24 1806.45,1384.24 1807.11,1384.24 1807.77,1384.24 1808.43,1384.24 1809.09,1384.24 1809.76,1384.24 1810.42,1384.24 1811.08,1384.24 1811.74,1384.24 1812.4,1384.24 1813.06,1384.24 1813.72,1384.24 1814.39,1384.24 1815.05,1384.24 1815.71,1384.24 1816.37,1384.24 1817.03,1384.24 1817.69,1384.24 1818.35,1384.24 1819.02,1384.24 1819.68,1384.24 1820.34,1384.24 1821,1384.24 1821.66,1384.24 1822.32,1384.24 1822.98,1384.24 1823.65,1384.24 1824.31,1384.24 1824.97,1384.24 1825.63,1384.24 1826.29,1384.24 1826.95,1384.24 1827.61,1384.24 1828.28,1384.24 1828.94,1384.24 1829.6,1384.24 1830.26,1384.24 1830.92,1384.24 1831.58,1384.24 1832.24,1384.24 1832.9,1384.24 1833.57,1384.24 1834.23,1384.24 1834.89,1384.24 1835.55,1384.24 1836.21,1384.24 1836.87,1384.24 1837.53,1384.24 1838.2,1384.24 1838.86,1384.24 1839.52,1384.24 1840.18,1384.24 1840.84,1384.24 1841.5,1384.24 1842.16,1384.24 1842.83,1384.24 1843.49,1384.24 1844.15,1384.24 1844.81,1384.24 1845.47,1384.24 1846.13,1384.24 1846.79,1384.24 1847.46,1384.24 1848.12,1384.24 1848.78,1384.24 1849.44,1384.24 1850.1,1384.24 1850.76,1384.24 1851.42,1384.24 1852.09,1384.24 1852.75,1384.24 1853.41,1384.24 1854.07,1384.24 1854.73,1384.24 1855.39,1384.24 1856.05,1384.24 1856.71,1384.24 1857.38,1384.24 1858.04,1384.24 1858.7,1384.24 1859.36,1384.24 1860.02,1384.24 1860.68,1384.24 1861.34,1384.24 1862.01,1384.24 1862.67,1384.24 1863.33,1384.24 1863.99,1384.24 1864.65,1384.24 1865.31,1384.24 1865.97,1384.24 1866.64,1384.24 1867.3,1384.24 1867.96,1384.24 1868.62,1384.24 1869.28,1384.24 1869.94,1384.24 1870.6,1384.24 1871.27,1384.24 1871.93,1384.24 1872.59,1384.24 1873.25,1384.24 1873.91,1384.24 1874.57,1384.24 1875.23,1384.24 1875.9,1384.24 1876.56,1384.24 1877.22,1384.24 1877.88,1384.24 1878.54,1384.24 1879.2,1384.24 1879.86,1384.24 1880.52,1384.24 1881.19,1384.24 1881.85,1384.24 1882.51,1384.24 1883.17,1384.24 1883.83,1384.24 1884.49,1384.24 1885.15,1384.24 1885.82,1384.24 1886.48,1384.24 1887.14,1384.24 1887.8,1384.24 1888.46,1384.24 1889.12,1384.24 1889.78,1384.24 1890.45,1384.24 1891.11,1384.24 1891.77,1384.24 1892.43,1384.24 1893.09,1384.24 1893.75,1384.24 1894.41,1384.24 1895.08,1384.24 1895.74,1384.24 1896.4,1384.24 1897.06,1384.24 1897.72,1384.24 1898.38,1384.24 1899.04,1384.24 1899.71,1384.24 1900.37,1384.24 1901.03,1384.24 1901.69,1384.24 1902.35,1384.24 1903.01,1384.24 1903.67,1384.24 1904.33,1384.24 1905,1384.24 1905.66,1384.24 1906.32,1384.24 1906.98,1384.24 1907.64,1384.24 1908.3,1384.24 1908.96,1384.24 1909.63,1384.24 1910.29,1384.24 1910.95,1384.24 1911.61,1384.24 1912.27,1384.24 1912.93,1384.24 1913.59,1384.24 1914.26,1384.24 1914.92,1384.24 1915.58,1384.24 1916.24,1384.24 1916.9,1384.24 1917.56,1384.24 1918.22,1384.24 1918.89,1384.24 1919.55,1384.24 1920.21,1384.24 1920.87,1384.24 1921.53,1384.24 1922.19,1384.24 1922.85,1384.24 1923.52,1384.24 1924.18,1384.24 1924.84,1384.24 1925.5,1384.24 1926.16,1384.24 1926.82,1384.24 1927.48,1384.24 1928.14,1384.24 1928.81,1384.24 1929.47,1384.24 1930.13,1384.24 1930.79,1384.24 1931.45,1384.24 1932.11,1384.24 1932.77,1384.24 1933.44,1384.24 1934.1,1384.24 1934.76,1384.24 1935.42,1384.24 1936.08,1384.24 1936.74,1384.24 1937.4,1384.24 1938.07,1384.24 1938.73,1384.24 1939.39,1384.24 1940.05,1384.24 1940.71,1384.24 1941.37,1384.24 1942.03,1384.24 1942.7,1384.24 1943.36,1384.24 1944.02,1384.24 1944.68,1384.24 1945.34,1384.24 1946,1384.24 1946.66,1384.24 1947.33,1384.24 1947.99,1384.24 1948.65,1384.24 1949.31,1384.24 1949.97,1384.24 1950.63,1384.24 1951.29,1384.24 1951.95,1384.24 1952.62,1384.24 1953.28,1384.24 1953.94,1384.24 1954.6,1384.24 1955.26,1384.24 1955.92,1384.24 1956.58,1384.24 1957.25,1384.24 1957.91,1384.24 1958.57,1384.24 1959.23,1384.24 1959.89,1384.24 1960.55,1384.24 1961.21,1384.24 1961.88,1384.24 1962.54,1384.24 1963.2,1384.24 1963.86,1384.24 1964.52,1384.24 1965.18,1384.24 1965.84,1384.24 1966.51,1384.24 1967.17,1384.24 1967.83,1384.24 1968.49,1384.24 1969.15,1384.24 1969.81,1384.24 1970.47,1384.24 1971.14,1384.24 1971.8,1384.24 1972.46,1384.24 1973.12,1384.24 1973.78,1384.24 1974.44,1384.24 1975.1,1384.24 1975.76,1384.24 1976.43,1384.24 1977.09,1384.24 1977.75,1384.24 1978.41,1384.24 1979.07,1384.24 1979.73,1384.24 1980.39,1384.24 1981.06,1384.24 1981.72,1384.24 1982.38,1384.24 1983.04,1384.24 1983.7,1384.24 1984.36,1384.24 1985.02,1384.24 1985.69,1384.24 1986.35,1384.24 1987.01,1384.24 1987.67,1384.24 1988.33,1384.24 1988.99,1384.24 1989.65,1384.24 1990.32,1384.24 1990.98,1384.24 1991.64,1384.24 1992.3,1384.24 1992.96,1384.24 1993.62,1384.24 1994.28,1384.24 1994.94,1384.24 1995.61,1384.24 1996.27,1384.24 1996.93,1384.24 1997.59,1384.24 1998.25,1384.24 1998.91,1384.24 1999.57,1384.24 2000.24,1384.24 2000.9,1384.24 2001.56,1384.24 2002.22,1384.24 2002.88,1384.24 2003.54,1384.24 2004.2,1384.24 2004.87,1384.24 2005.53,1384.24 2006.19,1384.24 2006.85,1384.24 2007.51,1384.24 2008.17,1384.24 2008.83,1384.24 2009.5,1384.24 2010.16,1384.24 2010.82,1384.24 2011.48,1384.24 2012.14,1384.24 2012.8,1384.24 2013.46,1384.24 2014.13,1384.24 2014.79,1384.24 2015.45,1384.24 2016.11,1384.24 2016.77,1384.24 2017.43,1384.24 2018.09,1384.24 2018.75,1384.24 2019.42,1384.24 2020.08,1384.24 2020.74,1384.24 2021.4,1384.24 2022.06,1384.24 2022.72,1384.24 2023.38,1384.24 2024.05,1384.24 2024.71,1384.24 2025.37,1384.24 2026.03,1384.24 2026.69,1384.24 2027.35,1384.24 2028.01,1384.24 2028.68,1384.24 2029.34,1384.24 2030,1384.24 2030.66,1384.24 2031.32,1384.24 2031.98,1384.24 2032.64,1384.24 2033.31,1384.24 2033.97,1384.24 2034.63,1384.24 2035.29,1384.24 2035.95,1384.24 2036.61,1384.24 2037.27,1384.24 2037.94,1384.24 2038.6,1384.24 2039.26,1384.24 2039.92,1384.24 2040.58,1384.24 2041.24,1384.24 2041.9,1384.24 2042.56,1384.24 2043.23,1384.24 2043.89,1384.24 2044.55,1384.24 2045.21,1384.24 2045.87,1384.24 2046.53,1384.24 2047.19,1384.24 2047.86,1384.24 2048.52,1384.24 2049.18,1384.24 2049.84,1384.24 2050.5,1384.24 2051.16,1384.24 2051.82,1384.24 2052.49,1384.24 2053.15,1384.24 2053.81,1384.24 2054.47,1384.24 2055.13,1384.24 2055.79,1384.24 2056.45,1384.24 2057.12,1384.24 2057.78,1384.24 2058.44,1384.24 2059.1,1384.24 2059.76,1384.24 2060.42,1384.24 2061.08,1384.24 2061.75,1384.24 2062.41,1384.24 2063.07,1384.24 2063.73,1384.24 2064.39,1384.24 2065.05,1384.24 2065.71,1384.24 2066.37,1384.24 2067.04,1384.24 2067.7,1384.24 2068.36,1384.24 2069.02,1384.24 2069.68,1384.24 2070.34,1384.24 2071,1384.24 2071.67,1384.24 2072.33,1384.24 2072.99,1384.24 2073.65,1384.24 2074.31,1384.24 2074.97,1384.24 2075.63,1384.24 2076.3,1384.24 2076.96,1384.24 2077.62,1384.24 2078.28,1384.24 2078.94,1384.24 2079.6,1384.24 2080.26,1384.24 2080.93,1384.24 2081.59,1384.24 2082.25,1384.24 2082.91,1384.24 2083.57,1384.24 2084.23,1384.24 2084.89,1384.24 2085.56,1384.24 2086.22,1384.24 2086.88,1384.24 2087.54,1384.24 2088.2,1384.24 2088.86,1384.24 2089.52,1384.24 2090.18,1384.24 2090.85,1384.24 2091.51,1384.24 2092.17,1384.24 2092.83,1384.24 2093.49,1384.24 2094.15,1384.24 2094.81,1384.24 2095.48,1384.24 2096.14,1384.24 2096.8,1384.24 2097.46,1384.24 2098.12,1384.24 2098.78,1384.24 2099.44,1384.24 2100.11,1384.24 2100.77,1384.24 2101.43,1384.24 2102.09,1384.24 2102.75,1384.24 2103.41,1384.24 2104.07,1384.24 2104.74,1384.24 2105.4,1384.24 2106.06,1384.24 2106.72,1384.24 2107.38,1384.24 2108.04,1384.24 2108.7,1384.24 2109.37,1384.24 2110.03,1384.24 2110.69,1384.24 2111.35,1384.24 2112.01,1384.24 2112.67,1384.24 2113.33,1384.24 2113.99,1384.24 2114.66,1384.24 2115.32,1384.24 2115.98,1384.24 2116.64,1384.24 2117.3,1384.24 2117.96,1384.24 2118.62,1384.24 2119.29,1384.24 2119.95,1384.24 2120.61,1384.24 2121.27,1384.24 2121.93,1384.24 2122.59,1384.24 2123.25,1384.24 2123.92,1384.24 2124.58,1384.24 2125.24,1384.24 2125.9,1384.24 2126.56,1384.24 2127.22,1384.24 2127.88,1384.24 2128.55,1384.24 2129.21,1384.24 2129.87,1384.24 2130.53,1384.24 2131.19,1384.24 2131.85,1384.24 2132.51,1384.24 2133.18,1384.24 2133.84,1384.24 2134.5,1384.24 2135.16,1384.24 2135.82,1384.24 2136.48,1384.24 2137.14,1384.24 2137.8,1384.24 2138.47,1384.24 2139.13,1384.24 2139.79,1384.24 2140.45,1384.24 2141.11,1384.24 2141.77,1384.24 2142.43,1384.24 2143.1,1384.24 2143.76,1384.24 2144.42,1384.24 2145.08,1384.24 2145.74,1384.24 2146.4,1384.24 2147.06,1384.24 2147.73,1384.24 2148.39,1384.24 2149.05,1384.24 2149.71,1384.24 2150.37,1384.24 2151.03,1384.24 2151.69,1384.24 2152.36,1384.24 2153.02,1384.24 2153.68,1384.24 2154.34,1384.24 2155,1384.24 2155.66,1384.24 2156.32,1384.24 2156.99,1384.24 2157.65,1384.24 2158.31,1384.24 2158.97,1384.24 2159.63,1384.24 2160.29,1384.24 2160.95,1384.24 2161.61,1384.24 2162.28,1384.24 2162.94,1384.24 2163.6,1384.24 2164.26,1384.24 2164.92,1384.24 2165.58,1384.24 2166.24,1384.24 2166.91,1384.24 2167.57,1384.24 2168.23,1384.24 2168.89,1384.24 2169.55,1384.24 2170.21,1384.24 2170.87,1384.24 2171.54,1384.24 2172.2,1384.24 2172.86,1384.24 2173.52,1384.24 2174.18,1384.24 2174.84,1384.24 2175.5,1384.24 2176.17,1384.24 2176.83,1384.24 2177.49,1384.24 2178.15,1384.24 2178.81,1384.24 2179.47,1384.24 2180.13,1384.24 2180.8,1384.24 2181.46,1384.24 2182.12,1384.24 2182.78,1384.24 2183.44,1384.24 2184.1,1384.24 2184.76,1384.24 2185.42,1384.24 2186.09,1384.24 2186.75,1384.24 2187.41,1384.24 2188.07,1384.24 2188.73,1384.24 2189.39,1384.24 2190.05,1384.24 2190.72,1384.24 2191.38,1384.24 2192.04,1384.24 2192.7,1384.24 2193.36,1384.24 2194.02,1384.24 2194.68,1384.24 2195.35,1384.24 2196.01,1384.24 2196.67,1384.24 2197.33,1384.24 2197.99,1384.24 2198.65,1384.24 2199.31,1384.24 2199.98,1384.24 2200.64,1384.24 2201.3,1384.24 2201.96,1384.24 2202.62,1384.24 2203.28,1384.24 2203.94,1384.24 2204.6,1384.24 2205.27,1384.24 2205.93,1384.24 2206.59,1384.24 2207.25,1384.24 2207.91,1384.24 2208.57,1384.24 2209.23,1384.24 2209.9,1384.24 2210.56,1384.24 2211.22,1384.24 2211.88,1384.24 2212.54,1384.24 2213.2,1384.24 2213.86,1384.24 2214.53,1384.24 2215.19,1384.24 2215.85,1384.24 2216.51,1384.24 2217.17,1384.24 2217.83,1384.24 2218.49,1384.24 2219.16,1384.24 2219.82,1384.24 2220.48,1384.24 2221.14,1384.24 2221.8,1384.24 2222.46,1384.24 2223.12,1384.24 2223.79,1384.24 2224.45,1384.24 2225.11,1384.24 2225.77,1384.24 2226.43,1384.24 2227.09,1384.24 2227.75,1384.24 2228.41,1384.24 2229.08,1384.24 2229.74,1384.24 2230.4,1384.24 2231.06,1384.24 2231.72,1384.24 2232.38,1384.24 2233.04,1384.24 2233.71,1384.24 2234.37,1384.24 2235.03,1384.24 2235.69,1384.24 2236.35,1384.24 2237.01,1384.24 2237.67,1384.24 2238.34,1384.24 2239,1384.24 2239.66,1384.24 2240.32,1384.24 2240.98,1384.24 2241.64,1384.24 2242.3,1384.24 2242.97,1384.24 2243.63,1384.24 2244.29,1384.24 2244.95,1384.24 2245.61,1384.24 2246.27,1384.24 2246.93,1384.24 2247.6,1384.24 2248.26,1384.24 2248.92,1384.24 2249.58,1384.24 2250.24,1384.24 2250.9,1384.24 2251.56,1384.24 2252.22,1384.24 2252.89,1384.24 2253.55,1384.24 2254.21,1384.24 2254.87,1384.24 2255.53,1384.24 2256.19,1384.24 2256.85,1384.24 2257.52,1384.24 2258.18,1384.24 2258.84,1384.24 2259.5,1384.24 2260.16,1384.24 2260.82,1384.24 2261.48,1384.24 2262.15,1384.24 2262.81,1384.24 2263.47,1384.24 2264.13,1384.24 2264.79,1384.24 2265.45,1384.24 2266.11,1384.24 2266.78,1384.24 2267.44,1384.24 2268.1,1384.24 2268.76,1384.24 2269.42,1384.24 2270.08,1384.24 2270.74,1384.24 2271.41,1384.24 2272.07,1384.24 2272.73,1384.24 2273.39,1384.24 2274.05,1384.24 2274.71,1384.24 2275.37,1384.24 2276.03,1384.24 2276.7,1384.24 2277.36,1384.24 2278.02,1384.24 2278.68,1384.24 2279.34,1384.24 2280,1384.24 2280.66,1384.24 2281.33,1384.24 2281.99,1384.24 2282.65,1384.24 2283.31,1384.24 2283.97,1384.24 2284.63,1384.24 2285.29,1384.24 2285.96,1384.24 2286.62,1384.24 2287.28,1384.24 2287.94,1384.24 2288.6,1384.24 2289.26,1384.24 2289.92,1384.24 2290.59,1384.24 2291.25,1384.24 2291.91,1384.24 2292.57,1384.24 2293.23,1384.24 "></polyline>
</svg>