<svg xmlns="http://www.w3.org/2000/svg" xmlns:xlink="http://www.w3.org/1999/xlink" width="600" height="400" viewBox="0 0 2400 1600">
<defs>
  <clipPath id="clip790">
    <rect x="0" y="0" width="2400" height="1600"></rect>
  </clipPath>
</defs>
<path clip-path="url(#clip790)" d="M0 1600 L2400 1600 L2400 0 L0 0  Z" fill="#ffffff" fill-rule="evenodd" fill-opacity="1"></path>
<defs>
  <clipPath id="clip791">
    <rect x="480" y="0" width="1681" height="1600"></rect>
  </clipPath>
</defs>
<path clip-path="url(#clip790)" d="M156.922 1486.45 L2352.76 1486.45 L2352.76 47.2441 L156.922 47.2441  Z" fill="#ffffff" fill-rule="evenodd" fill-opacity="1"></path>
<defs>
  <clipPath id="clip792">
    <rect x="156" y="47" width="2197" height="1440"></rect>
  </clipPath>
</defs>
<polyline clip-path="url(#clip792)" style="stroke:#000000; stroke-linecap:round; stroke-linejoin:round; stroke-width:2; stroke-opacity:0.1; fill:none" points="621.868,1486.45 621.868,47.2441 "></polyline>
<polyline clip-path="url(#clip792)" style="stroke:#000000; stroke-linecap:round; stroke-linejoin:round; stroke-width:2; stroke-opacity:0.1; fill:none" points="1197.3,1486.45 1197.3,47.2441 "></polyline>
<polyline clip-path="url(#clip792)" style="stroke:#000000; stroke-linecap:round; stroke-linejoin:round; stroke-width:2; stroke-opacity:0.1; fill:none" points="1772.72,1486.45 1772.72,47.2441 "></polyline>
<polyline clip-path="url(#clip792)" style="stroke:#000000; stroke-linecap:round; stroke-linejoin:round; stroke-width:2; stroke-opacity:0.1; fill:none" points="2348.15,1486.45 2348.15,47.2441 "></polyline>
<polyline clip-path="url(#clip790)" style="stroke:#000000; stroke-linecap:round; stroke-linejoin:round; stroke-width:4; stroke-opacity:1; fill:none" points="156.922,1486.45 2352.76,1486.45 "></polyline>
<polyline clip-path="url(#clip790)" style="stroke:#000000; stroke-linecap:round; stroke-linejoin:round; stroke-width:4; stroke-opacity:1; fill:none" points="621.868,1486.45 621.868,1467.55 "></polyline>
<polyline clip-path="url(#clip790)" style="stroke:#000000; stroke-linecap:round; stroke-linejoin:round; stroke-width:4; stroke-opacity:1; fill:none" points="1197.3,1486.45 1197.3,1467.55 "></polyline>
<polyline clip-path="url(#clip790)" style="stroke:#000000; stroke-linecap:round; stroke-linejoin:round; stroke-width:4; stroke-opacity:1; fill:none" points="1772.72,1486.45 1772.72,1467.55 "></polyline>
<polyline clip-path="url(#clip790)" style="stroke:#000000; stroke-linecap:round; stroke-linejoin:round; stroke-width:4; stroke-opacity:1; fill:none" points="2348.15,1486.45 2348.15,1467.55 "></polyline>
<path clip-path="url(#clip790)" d="M612.146 1514.29 L630.502 1514.29 L630.502 1518.22 L616.428 1518.22 L616.428 1526.7 Q617.447 1526.35 618.465 1526.19 Q619.484 1526 620.502 1526 Q626.289 1526 629.669 1529.17 Q633.049 1532.34 633.049 1537.76 Q633.049 1543.34 629.576 1546.44 Q626.104 1549.52 619.785 1549.52 Q617.609 1549.52 615.34 1549.15 Q613.095 1548.78 610.688 1548.04 L610.688 1543.34 Q612.771 1544.47 614.993 1545.03 Q617.215 1545.58 619.692 1545.58 Q623.697 1545.58 626.035 1543.48 Q628.373 1541.37 628.373 1537.76 Q628.373 1534.15 626.035 1532.04 Q623.697 1529.94 619.692 1529.94 Q617.817 1529.94 615.942 1530.35 Q614.09 1530.77 612.146 1531.65 L612.146 1514.29 Z" fill="#000000" fill-rule="nonzero" fill-opacity="1"></path><path clip-path="url(#clip790)" d="M1197.7 1529.7 Q1194.55 1529.7 1192.7 1531.86 Q1190.87 1534.01 1190.87 1537.76 Q1190.87 1541.49 1192.7 1543.66 Q1194.55 1545.82 1197.7 1545.82 Q1200.85 1545.82 1202.68 1543.66 Q1204.53 1541.49 1204.53 1537.76 Q1204.53 1534.01 1202.68 1531.86 Q1200.85 1529.7 1197.7 1529.7 M1206.98 1515.05 L1206.98 1519.31 Q1205.22 1518.48 1203.42 1518.04 Q1201.64 1517.6 1199.88 1517.6 Q1195.25 1517.6 1192.79 1520.72 Q1190.36 1523.85 1190.02 1530.17 Q1191.38 1528.15 1193.44 1527.09 Q1195.5 1526 1197.98 1526 Q1203.19 1526 1206.2 1529.17 Q1209.23 1532.32 1209.23 1537.76 Q1209.23 1543.08 1206.08 1546.3 Q1202.93 1549.52 1197.7 1549.52 Q1191.71 1549.52 1188.53 1544.94 Q1185.36 1540.33 1185.36 1531.6 Q1185.36 1523.41 1189.25 1518.55 Q1193.14 1513.66 1199.69 1513.66 Q1201.45 1513.66 1203.23 1514.01 Q1205.04 1514.36 1206.98 1515.05 Z" fill="#000000" fill-rule="nonzero" fill-opacity="1"></path><path clip-path="url(#clip790)" d="M1761.61 1514.29 L1783.84 1514.29 L1783.84 1516.28 L1771.29 1548.85 L1766.4 1548.85 L1778.21 1518.22 L1761.61 1518.22 L1761.61 1514.29 Z" fill="#000000" fill-rule="nonzero" fill-opacity="1"></path><path clip-path="url(#clip790)" d="M2348.15 1532.44 Q2344.82 1532.44 2342.9 1534.22 Q2341 1536 2341 1539.13 Q2341 1542.25 2342.9 1544.03 Q2344.82 1545.82 2348.15 1545.82 Q2351.49 1545.82 2353.41 1544.03 Q2355.33 1542.23 2355.33 1539.13 Q2355.33 1536 2353.41 1534.22 Q2351.51 1532.44 2348.15 1532.44 M2343.48 1530.45 Q2340.47 1529.7 2338.78 1527.64 Q2337.11 1525.58 2337.11 1522.62 Q2337.11 1518.48 2340.05 1516.07 Q2343.01 1513.66 2348.15 1513.66 Q2353.31 1513.66 2356.25 1516.07 Q2359.19 1518.48 2359.19 1522.62 Q2359.19 1525.58 2357.5 1527.64 Q2355.84 1529.7 2352.85 1530.45 Q2356.23 1531.23 2358.11 1533.52 Q2360 1535.82 2360 1539.13 Q2360 1544.15 2356.93 1546.83 Q2353.87 1549.52 2348.15 1549.52 Q2342.43 1549.52 2339.36 1546.83 Q2336.3 1544.15 2336.3 1539.13 Q2336.3 1535.82 2338.2 1533.52 Q2340.1 1531.23 2343.48 1530.45 M2341.76 1523.06 Q2341.76 1525.75 2343.43 1527.25 Q2345.12 1528.76 2348.15 1528.76 Q2351.16 1528.76 2352.85 1527.25 Q2354.56 1525.75 2354.56 1523.06 Q2354.56 1520.38 2352.85 1518.87 Q2351.16 1517.37 2348.15 1517.37 Q2345.12 1517.37 2343.43 1518.87 Q2341.76 1520.38 2341.76 1523.06 Z" fill="#000000" fill-rule="nonzero" fill-opacity="1"></path><polyline clip-path="url(#clip792)" style="stroke:#000000; stroke-linecap:round; stroke-linejoin:round; stroke-width:2; stroke-opacity:0.1; fill:none" points="156.922,1445.72 2352.76,1445.72 "></polyline>
<polyline clip-path="url(#clip792)" style="stroke:#000000; stroke-linecap:round; stroke-linejoin:round; stroke-width:2; stroke-opacity:0.1; fill:none" points="156.922,1162.85 2352.76,1162.85 "></polyline>
<polyline clip-path="url(#clip792)" style="stroke:#000000; stroke-linecap:round; stroke-linejoin:round; stroke-width:2; stroke-opacity:0.1; fill:none" points="156.922,879.991 2352.76,879.991 "></polyline>
<polyline clip-path="url(#clip792)" style="stroke:#000000; stroke-linecap:round; stroke-linejoin:round; stroke-width:2; stroke-opacity:0.1; fill:none" points="156.922,597.129 2352.76,597.129 "></polyline>
<polyline clip-path="url(#clip792)" style="stroke:#000000; stroke-linecap:round; stroke-linejoin:round; stroke-width:2; stroke-opacity:0.1; fill:none" points="156.922,314.266 2352.76,314.266 "></polyline>
<polyline clip-path="url(#clip790)" style="stroke:#000000; stroke-linecap:round; stroke-linejoin:round; stroke-width:4; stroke-opacity:1; fill:none" points="156.922,1486.45 156.922,47.2441 "></polyline>
<polyline clip-path="url(#clip790)" style="stroke:#000000; stroke-linecap:round; stroke-linejoin:round; stroke-width:4; stroke-opacity:1; fill:none" points="156.922,1445.72 175.82,1445.72 "></polyline>
<polyline clip-path="url(#clip790)" style="stroke:#000000; stroke-linecap:round; stroke-linejoin:round; stroke-width:4; stroke-opacity:1; fill:none" points="156.922,1162.85 175.82,1162.85 "></polyline>
<polyline clip-path="url(#clip790)" style="stroke:#000000; stroke-linecap:round; stroke-linejoin:round; stroke-width:4; stroke-opacity:1; fill:none" points="156.922,879.991 175.82,879.991 "></polyline>
<polyline clip-path="url(#clip790)" style="stroke:#000000; stroke-linecap:round; stroke-linejoin:round; stroke-width:4; stroke-opacity:1; fill:none" points="156.922,597.129 175.82,597.129 "></polyline>
<polyline clip-path="url(#clip790)" style="stroke:#000000; stroke-linecap:round; stroke-linejoin:round; stroke-width:4; stroke-opacity:1; fill:none" points="156.922,314.266 175.82,314.266 "></polyline>
<path clip-path="url(#clip790)" d="M57.7745 1459.06 L74.0939 1459.06 L74.0939 1463 L52.1495 1463 L52.1495 1459.06 Q54.8115 1456.31 59.3949 1451.68 Q64.0013 1447.02 65.1819 1445.68 Q67.4272 1443.16 68.3068 1441.42 Q69.2096 1439.66 69.2096 1437.97 Q69.2096 1435.22 67.2652 1433.48 Q65.3439 1431.75 62.2421 1431.75 Q60.043 1431.75 57.5893 1432.51 Q55.1588 1433.27 52.381 1434.82 L52.381 1430.1 Q55.2051 1428.97 57.6588 1428.39 Q60.1124 1427.81 62.1495 1427.81 Q67.5198 1427.81 70.7142 1430.5 Q73.9087 1433.18 73.9087 1437.67 Q73.9087 1439.8 73.0985 1441.72 Q72.3115 1443.62 70.205 1446.21 Q69.6263 1446.88 66.5245 1450.1 Q63.4226 1453.3 57.7745 1459.06 Z" fill="#000000" fill-rule="nonzero" fill-opacity="1"></path><path clip-path="url(#clip790)" d="M83.9086 1457.12 L88.7928 1457.12 L88.7928 1463 L83.9086 1463 L83.9086 1457.12 Z" fill="#000000" fill-rule="nonzero" fill-opacity="1"></path><path clip-path="url(#clip790)" d="M108.978 1431.51 Q105.367 1431.51 103.538 1435.08 Q101.733 1438.62 101.733 1445.75 Q101.733 1452.86 103.538 1456.42 Q105.367 1459.96 108.978 1459.96 Q112.612 1459.96 114.418 1456.42 Q116.246 1452.86 116.246 1445.75 Q116.246 1438.62 114.418 1435.08 Q112.612 1431.51 108.978 1431.51 M108.978 1427.81 Q114.788 1427.81 117.844 1432.42 Q120.922 1437 120.922 1445.75 Q120.922 1454.48 117.844 1459.08 Q114.788 1463.67 108.978 1463.67 Q103.168 1463.67 100.089 1459.08 Q97.0335 1454.48 97.0335 1445.75 Q97.0335 1437 100.089 1432.42 Q103.168 1427.81 108.978 1427.81 Z" fill="#000000" fill-rule="nonzero" fill-opacity="1"></path><path clip-path="url(#clip790)" d="M58.7699 1176.2 L75.0892 1176.2 L75.0892 1180.13 L53.1449 1180.13 L53.1449 1176.2 Q55.8069 1173.44 60.3902 1168.81 Q64.9967 1164.16 66.1772 1162.82 Q68.4226 1160.3 69.3022 1158.56 Q70.205 1156.8 70.205 1155.11 Q70.205 1152.36 68.2606 1150.62 Q66.3393 1148.88 63.2374 1148.88 Q61.0384 1148.88 58.5847 1149.65 Q56.1541 1150.41 53.3764 1151.96 L53.3764 1147.24 Q56.2004 1146.11 58.6541 1145.53 Q61.1078 1144.95 63.1448 1144.95 Q68.5152 1144.95 71.7096 1147.63 Q74.904 1150.32 74.904 1154.81 Q74.904 1156.94 74.0939 1158.86 Q73.3068 1160.76 71.2004 1163.35 Q70.6217 1164.02 67.5198 1167.24 Q64.418 1170.43 58.7699 1176.2 Z" fill="#000000" fill-rule="nonzero" fill-opacity="1"></path><path clip-path="url(#clip790)" d="M84.904 1174.25 L89.7882 1174.25 L89.7882 1180.13 L84.904 1180.13 L84.904 1174.25 Z" fill="#000000" fill-rule="nonzero" fill-opacity="1"></path><path clip-path="url(#clip790)" d="M100.02 1145.57 L118.376 1145.57 L118.376 1149.51 L104.302 1149.51 L104.302 1157.98 Q105.321 1157.63 106.339 1157.47 Q107.358 1157.29 108.376 1157.29 Q114.163 1157.29 117.543 1160.46 Q120.922 1163.63 120.922 1169.05 Q120.922 1174.62 117.45 1177.73 Q113.978 1180.8 107.658 1180.8 Q105.483 1180.8 103.214 1180.43 Q100.969 1180.06 98.5613 1179.32 L98.5613 1174.62 Q100.645 1175.76 102.867 1176.31 Q105.089 1176.87 107.566 1176.87 Q111.571 1176.87 113.908 1174.76 Q116.246 1172.66 116.246 1169.05 Q116.246 1165.43 113.908 1163.33 Q111.571 1161.22 107.566 1161.22 Q105.691 1161.22 103.816 1161.64 Q101.964 1162.05 100.02 1162.93 L100.02 1145.57 Z" fill="#000000" fill-rule="nonzero" fill-opacity="1"></path><path clip-path="url(#clip790)" d="M67.9133 878.637 Q71.2698 879.354 73.1448 881.623 Q75.0429 883.891 75.0429 887.225 Q75.0429 892.34 71.5244 895.141 Q68.0059 897.942 61.5245 897.942 Q59.3486 897.942 57.0338 897.502 Q54.7421 897.086 52.2884 896.229 L52.2884 891.715 Q54.2328 892.85 56.5477 893.428 Q58.8625 894.007 61.3856 894.007 Q65.7837 894.007 68.0754 892.271 Q70.3902 890.535 70.3902 887.225 Q70.3902 884.169 68.2374 882.456 Q66.1078 880.72 62.2884 880.72 L58.2606 880.72 L58.2606 876.878 L62.4735 876.878 Q65.9226 876.878 67.7513 875.512 Q69.58 874.123 69.58 871.53 Q69.58 868.868 67.6819 867.456 Q65.8069 866.021 62.2884 866.021 Q60.3671 866.021 58.168 866.438 Q55.969 866.854 53.3301 867.734 L53.3301 863.567 Q55.9921 862.827 58.3069 862.456 Q60.6449 862.086 62.705 862.086 Q68.0291 862.086 71.1309 864.516 Q74.2327 866.924 74.2327 871.044 Q74.2327 873.915 72.5892 875.905 Q70.9457 877.873 67.9133 878.637 Z" fill="#000000" fill-rule="nonzero" fill-opacity="1"></path><path clip-path="url(#clip790)" d="M83.9086 891.391 L88.7928 891.391 L88.7928 897.271 L83.9086 897.271 L83.9086 891.391 Z" fill="#000000" fill-rule="nonzero" fill-opacity="1"></path><path clip-path="url(#clip790)" d="M108.978 865.79 Q105.367 865.79 103.538 869.354 Q101.733 872.896 101.733 880.026 Q101.733 887.132 103.538 890.697 Q105.367 894.239 108.978 894.239 Q112.612 894.239 114.418 890.697 Q116.246 887.132 116.246 880.026 Q116.246 872.896 114.418 869.354 Q112.612 865.79 108.978 865.79 M108.978 862.086 Q114.788 862.086 117.844 866.692 Q120.922 871.276 120.922 880.026 Q120.922 888.752 117.844 893.359 Q114.788 897.942 108.978 897.942 Q103.168 897.942 100.089 893.359 Q97.0335 888.752 97.0335 880.026 Q97.0335 871.276 100.089 866.692 Q103.168 862.086 108.978 862.086 Z" fill="#000000" fill-rule="nonzero" fill-opacity="1"></path><path clip-path="url(#clip790)" d="M68.9087 595.774 Q72.2652 596.492 74.1402 598.76 Q76.0383 601.029 76.0383 604.362 Q76.0383 609.478 72.5198 612.279 Q69.0013 615.08 62.5198 615.08 Q60.3439 615.08 58.0291 614.64 Q55.7375 614.223 53.2838 613.367 L53.2838 608.853 Q55.2282 609.987 57.543 610.566 Q59.8578 611.145 62.381 611.145 Q66.7791 611.145 69.0707 609.409 Q71.3855 607.672 71.3855 604.362 Q71.3855 601.307 69.2328 599.594 Q67.1032 597.858 63.2837 597.858 L59.256 597.858 L59.256 594.015 L63.4689 594.015 Q66.918 594.015 68.7467 592.649 Q70.5754 591.261 70.5754 588.668 Q70.5754 586.006 68.6772 584.594 Q66.8022 583.159 63.2837 583.159 Q61.3624 583.159 59.1634 583.575 Q56.9643 583.992 54.3254 584.872 L54.3254 580.705 Q56.9875 579.964 59.3023 579.594 Q61.6402 579.224 63.7004 579.224 Q69.0244 579.224 72.1263 581.654 Q75.2281 584.061 75.2281 588.182 Q75.2281 591.052 73.5846 593.043 Q71.9411 595.011 68.9087 595.774 Z" fill="#000000" fill-rule="nonzero" fill-opacity="1"></path><path clip-path="url(#clip790)" d="M84.904 608.529 L89.7882 608.529 L89.7882 614.409 L84.904 614.409 L84.904 608.529 Z" fill="#000000" fill-rule="nonzero" fill-opacity="1"></path><path clip-path="url(#clip790)" d="M100.02 579.849 L118.376 579.849 L118.376 583.784 L104.302 583.784 L104.302 592.256 Q105.321 591.909 106.339 591.747 Q107.358 591.561 108.376 591.561 Q114.163 591.561 117.543 594.733 Q120.922 597.904 120.922 603.321 Q120.922 608.899 117.45 612.001 Q113.978 615.08 107.658 615.08 Q105.483 615.08 103.214 614.709 Q100.969 614.339 98.5613 613.598 L98.5613 608.899 Q100.645 610.034 102.867 610.589 Q105.089 611.145 107.566 611.145 Q111.571 611.145 113.908 609.038 Q116.246 606.932 116.246 603.321 Q116.246 599.71 113.908 597.603 Q111.571 595.497 107.566 595.497 Q105.691 595.497 103.816 595.913 Q101.964 596.33 100.02 597.21 L100.02 579.849 Z" fill="#000000" fill-rule="nonzero" fill-opacity="1"></path><path clip-path="url(#clip790)" d="M66.5939 301.06 L54.7884 319.509 L66.5939 319.509 L66.5939 301.06 M65.367 296.986 L71.2466 296.986 L71.2466 319.509 L76.1772 319.509 L76.1772 323.398 L71.2466 323.398 L71.2466 331.546 L66.5939 331.546 L66.5939 323.398 L50.9921 323.398 L50.9921 318.884 L65.367 296.986 Z" fill="#000000" fill-rule="nonzero" fill-opacity="1"></path><path clip-path="url(#clip790)" d="M83.9086 325.667 L88.7928 325.667 L88.7928 331.546 L83.9086 331.546 L83.9086 325.667 Z" fill="#000000" fill-rule="nonzero" fill-opacity="1"></path><path clip-path="url(#clip790)" d="M108.978 300.065 Q105.367 300.065 103.538 303.63 Q101.733 307.171 101.733 314.301 Q101.733 321.407 103.538 324.972 Q105.367 328.514 108.978 328.514 Q112.612 328.514 114.418 324.972 Q116.246 321.407 116.246 314.301 Q116.246 307.171 114.418 303.63 Q112.612 300.065 108.978 300.065 M108.978 296.361 Q114.788 296.361 117.844 300.968 Q120.922 305.551 120.922 314.301 Q120.922 323.028 117.844 327.634 Q114.788 332.217 108.978 332.217 Q103.168 332.217 100.089 327.634 Q97.0335 323.028 97.0335 314.301 Q97.0335 305.551 100.089 300.968 Q103.168 296.361 108.978 296.361 Z" fill="#000000" fill-rule="nonzero" fill-opacity="1"></path><circle clip-path="url(#clip792)" cx="679.411" cy="597.129" r="14.4" fill="#009af9" fill-rule="evenodd" fill-opacity="1" stroke="#000000" stroke-opacity="1" stroke-width="3.2"></circle>
<circle clip-path="url(#clip792)" cx="564.325" cy="879.991" r="14.4" fill="#009af9" fill-rule="evenodd" fill-opacity="1" stroke="#000000" stroke-opacity="1" stroke-width="3.2"></circle>
<circle clip-path="url(#clip792)" cx="449.24" cy="766.846" r="14.4" fill="#009af9" fill-rule="evenodd" fill-opacity="1" stroke="#000000" stroke-opacity="1" stroke-width="3.2"></circle>
<circle clip-path="url(#clip792)" cx="391.697" cy="823.418" r="14.4" fill="#009af9" fill-rule="evenodd" fill-opacity="1" stroke="#000000" stroke-opacity="1" stroke-width="3.2"></circle>
<circle clip-path="url(#clip792)" cx="621.868" cy="540.556" r="14.4" fill="#009af9" fill-rule="evenodd" fill-opacity="1" stroke="#000000" stroke-opacity="1" stroke-width="3.2"></circle>
<circle clip-path="url(#clip792)" cx="852.039" cy="370.839" r="14.4" fill="#009af9" fill-rule="evenodd" fill-opacity="1" stroke="#000000" stroke-opacity="1" stroke-width="3.2"></circle>
<circle clip-path="url(#clip792)" cx="391.697" cy="653.701" r="14.4" fill="#009af9" fill-rule="evenodd" fill-opacity="1" stroke="#000000" stroke-opacity="1" stroke-width="3.2"></circle>
<circle clip-path="url(#clip792)" cx="621.868" cy="653.701" r="14.4" fill="#009af9" fill-rule="evenodd" fill-opacity="1" stroke="#000000" stroke-opacity="1" stroke-width="3.2"></circle>
<circle clip-path="url(#clip792)" cx="276.611" cy="936.563" r="14.4" fill="#009af9" fill-rule="evenodd" fill-opacity="1" stroke="#000000" stroke-opacity="1" stroke-width="3.2"></circle>
<circle clip-path="url(#clip792)" cx="564.325" cy="823.418" r="14.4" fill="#009af9" fill-rule="evenodd" fill-opacity="1" stroke="#000000" stroke-opacity="1" stroke-width="3.2"></circle>
<circle clip-path="url(#clip792)" cx="852.039" cy="483.984" r="14.4" fill="#009af9" fill-rule="evenodd" fill-opacity="1" stroke="#000000" stroke-opacity="1" stroke-width="3.2"></circle>
<circle clip-path="url(#clip792)" cx="506.783" cy="653.701" r="14.4" fill="#009af9" fill-rule="evenodd" fill-opacity="1" stroke="#000000" stroke-opacity="1" stroke-width="3.2"></circle>
<circle clip-path="url(#clip792)" cx="506.783" cy="879.991" r="14.4" fill="#009af9" fill-rule="evenodd" fill-opacity="1" stroke="#000000" stroke-opacity="1" stroke-width="3.2"></circle>
<circle clip-path="url(#clip792)" cx="219.069" cy="879.991" r="14.4" fill="#009af9" fill-rule="evenodd" fill-opacity="1" stroke="#000000" stroke-opacity="1" stroke-width="3.2"></circle>
<circle clip-path="url(#clip792)" cx="1082.21" cy="314.266" r="14.4" fill="#009af9" fill-rule="evenodd" fill-opacity="1" stroke="#000000" stroke-opacity="1" stroke-width="3.2"></circle>
<circle clip-path="url(#clip792)" cx="1024.67" cy="87.9763" r="14.4" fill="#009af9" fill-rule="evenodd" fill-opacity="1" stroke="#000000" stroke-opacity="1" stroke-width="3.2"></circle>
<circle clip-path="url(#clip792)" cx="852.039" cy="370.839" r="14.4" fill="#009af9" fill-rule="evenodd" fill-opacity="1" stroke="#000000" stroke-opacity="1" stroke-width="3.2"></circle>
<circle clip-path="url(#clip792)" cx="679.411" cy="597.129" r="14.4" fill="#009af9" fill-rule="evenodd" fill-opacity="1" stroke="#000000" stroke-opacity="1" stroke-width="3.2"></circle>
<circle clip-path="url(#clip792)" cx="1024.67" cy="427.411" r="14.4" fill="#009af9" fill-rule="evenodd" fill-opacity="1" stroke="#000000" stroke-opacity="1" stroke-width="3.2"></circle>
<circle clip-path="url(#clip792)" cx="679.411" cy="427.411" r="14.4" fill="#009af9" fill-rule="evenodd" fill-opacity="1" stroke="#000000" stroke-opacity="1" stroke-width="3.2"></circle>
<circle clip-path="url(#clip792)" cx="852.039" cy="653.701" r="14.4" fill="#009af9" fill-rule="evenodd" fill-opacity="1" stroke="#000000" stroke-opacity="1" stroke-width="3.2"></circle>
<circle clip-path="url(#clip792)" cx="679.411" cy="483.984" r="14.4" fill="#009af9" fill-rule="evenodd" fill-opacity="1" stroke="#000000" stroke-opacity="1" stroke-width="3.2"></circle>
<circle clip-path="url(#clip792)" cx="391.697" cy="540.556" r="14.4" fill="#009af9" fill-rule="evenodd" fill-opacity="1" stroke="#000000" stroke-opacity="1" stroke-width="3.2"></circle>
<circle clip-path="url(#clip792)" cx="679.411" cy="710.274" r="14.4" fill="#009af9" fill-rule="evenodd" fill-opacity="1" stroke="#000000" stroke-opacity="1" stroke-width="3.2"></circle>
<circle clip-path="url(#clip792)" cx="506.783" cy="653.701" r="14.4" fill="#009af9" fill-rule="evenodd" fill-opacity="1" stroke="#000000" stroke-opacity="1" stroke-width="3.2"></circle>
<circle clip-path="url(#clip792)" cx="621.868" cy="879.991" r="14.4" fill="#009af9" fill-rule="evenodd" fill-opacity="1" stroke="#000000" stroke-opacity="1" stroke-width="3.2"></circle>
<circle clip-path="url(#clip792)" cx="621.868" cy="653.701" r="14.4" fill="#009af9" fill-rule="evenodd" fill-opacity="1" stroke="#000000" stroke-opacity="1" stroke-width="3.2"></circle>
<circle clip-path="url(#clip792)" cx="736.954" cy="597.129" r="14.4" fill="#009af9" fill-rule="evenodd" fill-opacity="1" stroke="#000000" stroke-opacity="1" stroke-width="3.2"></circle>
<circle clip-path="url(#clip792)" cx="736.954" cy="653.701" r="14.4" fill="#009af9" fill-rule="evenodd" fill-opacity="1" stroke="#000000" stroke-opacity="1" stroke-width="3.2"></circle>
<circle clip-path="url(#clip792)" cx="449.24" cy="766.846" r="14.4" fill="#009af9" fill-rule="evenodd" fill-opacity="1" stroke="#000000" stroke-opacity="1" stroke-width="3.2"></circle>
<circle clip-path="url(#clip792)" cx="506.783" cy="823.418" r="14.4" fill="#009af9" fill-rule="evenodd" fill-opacity="1" stroke="#000000" stroke-opacity="1" stroke-width="3.2"></circle>
<circle clip-path="url(#clip792)" cx="852.039" cy="653.701" r="14.4" fill="#009af9" fill-rule="evenodd" fill-opacity="1" stroke="#000000" stroke-opacity="1" stroke-width="3.2"></circle>
<circle clip-path="url(#clip792)" cx="736.954" cy="257.694" r="14.4" fill="#009af9" fill-rule="evenodd" fill-opacity="1" stroke="#000000" stroke-opacity="1" stroke-width="3.2"></circle>
<circle clip-path="url(#clip792)" cx="909.582" cy="201.121" r="14.4" fill="#009af9" fill-rule="evenodd" fill-opacity="1" stroke="#000000" stroke-opacity="1" stroke-width="3.2"></circle>
<circle clip-path="url(#clip792)" cx="564.325" cy="823.418" r="14.4" fill="#009af9" fill-rule="evenodd" fill-opacity="1" stroke="#000000" stroke-opacity="1" stroke-width="3.2"></circle>
<circle clip-path="url(#clip792)" cx="621.868" cy="766.846" r="14.4" fill="#009af9" fill-rule="evenodd" fill-opacity="1" stroke="#000000" stroke-opacity="1" stroke-width="3.2"></circle>
<circle clip-path="url(#clip792)" cx="909.582" cy="597.129" r="14.4" fill="#009af9" fill-rule="evenodd" fill-opacity="1" stroke="#000000" stroke-opacity="1" stroke-width="3.2"></circle>
<circle clip-path="url(#clip792)" cx="564.325" cy="540.556" r="14.4" fill="#009af9" fill-rule="evenodd" fill-opacity="1" stroke="#000000" stroke-opacity="1" stroke-width="3.2"></circle>
<circle clip-path="url(#clip792)" cx="276.611" cy="879.991" r="14.4" fill="#009af9" fill-rule="evenodd" fill-opacity="1" stroke="#000000" stroke-opacity="1" stroke-width="3.2"></circle>
<circle clip-path="url(#clip792)" cx="679.411" cy="653.701" r="14.4" fill="#009af9" fill-rule="evenodd" fill-opacity="1" stroke="#000000" stroke-opacity="1" stroke-width="3.2"></circle>
<circle clip-path="url(#clip792)" cx="621.868" cy="597.129" r="14.4" fill="#009af9" fill-rule="evenodd" fill-opacity="1" stroke="#000000" stroke-opacity="1" stroke-width="3.2"></circle>
<circle clip-path="url(#clip792)" cx="334.154" cy="1276" r="14.4" fill="#009af9" fill-rule="evenodd" fill-opacity="1" stroke="#000000" stroke-opacity="1" stroke-width="3.2"></circle>
<circle clip-path="url(#clip792)" cx="276.611" cy="766.846" r="14.4" fill="#009af9" fill-rule="evenodd" fill-opacity="1" stroke="#000000" stroke-opacity="1" stroke-width="3.2"></circle>
<circle clip-path="url(#clip792)" cx="621.868" cy="597.129" r="14.4" fill="#009af9" fill-rule="evenodd" fill-opacity="1" stroke="#000000" stroke-opacity="1" stroke-width="3.2"></circle>
<circle clip-path="url(#clip792)" cx="679.411" cy="427.411" r="14.4" fill="#009af9" fill-rule="evenodd" fill-opacity="1" stroke="#000000" stroke-opacity="1" stroke-width="3.2"></circle>
<circle clip-path="url(#clip792)" cx="506.783" cy="879.991" r="14.4" fill="#009af9" fill-rule="evenodd" fill-opacity="1" stroke="#000000" stroke-opacity="1" stroke-width="3.2"></circle>
<circle clip-path="url(#clip792)" cx="679.411" cy="427.411" r="14.4" fill="#009af9" fill-rule="evenodd" fill-opacity="1" stroke="#000000" stroke-opacity="1" stroke-width="3.2"></circle>
<circle clip-path="url(#clip792)" cx="391.697" cy="766.846" r="14.4" fill="#009af9" fill-rule="evenodd" fill-opacity="1" stroke="#000000" stroke-opacity="1" stroke-width="3.2"></circle>
<circle clip-path="url(#clip792)" cx="794.497" cy="483.984" r="14.4" fill="#009af9" fill-rule="evenodd" fill-opacity="1" stroke="#000000" stroke-opacity="1" stroke-width="3.2"></circle>
<circle clip-path="url(#clip792)" cx="621.868" cy="710.274" r="14.4" fill="#009af9" fill-rule="evenodd" fill-opacity="1" stroke="#000000" stroke-opacity="1" stroke-width="3.2"></circle>
<circle clip-path="url(#clip792)" cx="1772.72" cy="766.846" r="14.4" fill="#009af9" fill-rule="evenodd" fill-opacity="1" stroke="#000000" stroke-opacity="1" stroke-width="3.2"></circle>
<circle clip-path="url(#clip792)" cx="1427.47" cy="766.846" r="14.4" fill="#009af9" fill-rule="evenodd" fill-opacity="1" stroke="#000000" stroke-opacity="1" stroke-width="3.2"></circle>
<circle clip-path="url(#clip792)" cx="1715.18" cy="823.418" r="14.4" fill="#009af9" fill-rule="evenodd" fill-opacity="1" stroke="#000000" stroke-opacity="1" stroke-width="3.2"></circle>
<circle clip-path="url(#clip792)" cx="909.582" cy="1276" r="14.4" fill="#009af9" fill-rule="evenodd" fill-opacity="1" stroke="#000000" stroke-opacity="1" stroke-width="3.2"></circle>
<circle clip-path="url(#clip792)" cx="1485.01" cy="993.136" r="14.4" fill="#009af9" fill-rule="evenodd" fill-opacity="1" stroke="#000000" stroke-opacity="1" stroke-width="3.2"></circle>
<circle clip-path="url(#clip792)" cx="1024.67" cy="993.136" r="14.4" fill="#009af9" fill-rule="evenodd" fill-opacity="1" stroke="#000000" stroke-opacity="1" stroke-width="3.2"></circle>
<circle clip-path="url(#clip792)" cx="1369.92" cy="710.274" r="14.4" fill="#009af9" fill-rule="evenodd" fill-opacity="1" stroke="#000000" stroke-opacity="1" stroke-width="3.2"></circle>
<circle clip-path="url(#clip792)" cx="564.325" cy="1219.43" r="14.4" fill="#009af9" fill-rule="evenodd" fill-opacity="1" stroke="#000000" stroke-opacity="1" stroke-width="3.2"></circle>
<circle clip-path="url(#clip792)" cx="1542.55" cy="936.563" r="14.4" fill="#009af9" fill-rule="evenodd" fill-opacity="1" stroke="#000000" stroke-opacity="1" stroke-width="3.2"></circle>
<circle clip-path="url(#clip792)" cx="736.954" cy="1049.71" r="14.4" fill="#009af9" fill-rule="evenodd" fill-opacity="1" stroke="#000000" stroke-opacity="1" stroke-width="3.2"></circle>
<circle clip-path="url(#clip792)" cx="621.868" cy="1445.72" r="14.4" fill="#009af9" fill-rule="evenodd" fill-opacity="1" stroke="#000000" stroke-opacity="1" stroke-width="3.2"></circle>
<circle clip-path="url(#clip792)" cx="1139.75" cy="879.991" r="14.4" fill="#009af9" fill-rule="evenodd" fill-opacity="1" stroke="#000000" stroke-opacity="1" stroke-width="3.2"></circle>
<circle clip-path="url(#clip792)" cx="1197.3" cy="1332.57" r="14.4" fill="#009af9" fill-rule="evenodd" fill-opacity="1" stroke="#000000" stroke-opacity="1" stroke-width="3.2"></circle>
<circle clip-path="url(#clip792)" cx="1254.84" cy="936.563" r="14.4" fill="#009af9" fill-rule="evenodd" fill-opacity="1" stroke="#000000" stroke-opacity="1" stroke-width="3.2"></circle>
<circle clip-path="url(#clip792)" cx="967.125" cy="936.563" r="14.4" fill="#009af9" fill-rule="evenodd" fill-opacity="1" stroke="#000000" stroke-opacity="1" stroke-width="3.2"></circle>
<circle clip-path="url(#clip792)" cx="1600.1" cy="823.418" r="14.4" fill="#009af9" fill-rule="evenodd" fill-opacity="1" stroke="#000000" stroke-opacity="1" stroke-width="3.2"></circle>
<circle clip-path="url(#clip792)" cx="967.125" cy="879.991" r="14.4" fill="#009af9" fill-rule="evenodd" fill-opacity="1" stroke="#000000" stroke-opacity="1" stroke-width="3.2"></circle>
<circle clip-path="url(#clip792)" cx="1082.21" cy="1049.71" r="14.4" fill="#009af9" fill-rule="evenodd" fill-opacity="1" stroke="#000000" stroke-opacity="1" stroke-width="3.2"></circle>
<circle clip-path="url(#clip792)" cx="1312.38" cy="1332.57" r="14.4" fill="#009af9" fill-rule="evenodd" fill-opacity="1" stroke="#000000" stroke-opacity="1" stroke-width="3.2"></circle>
<circle clip-path="url(#clip792)" cx="967.125" cy="1162.85" r="14.4" fill="#009af9" fill-rule="evenodd" fill-opacity="1" stroke="#000000" stroke-opacity="1" stroke-width="3.2"></circle>
<circle clip-path="url(#clip792)" cx="1139.75" cy="766.846" r="14.4" fill="#009af9" fill-rule="evenodd" fill-opacity="1" stroke="#000000" stroke-opacity="1" stroke-width="3.2"></circle>
<circle clip-path="url(#clip792)" cx="1254.84" cy="993.136" r="14.4" fill="#009af9" fill-rule="evenodd" fill-opacity="1" stroke="#000000" stroke-opacity="1" stroke-width="3.2"></circle>
<circle clip-path="url(#clip792)" cx="1369.92" cy="1162.85" r="14.4" fill="#009af9" fill-rule="evenodd" fill-opacity="1" stroke="#000000" stroke-opacity="1" stroke-width="3.2"></circle>
<circle clip-path="url(#clip792)" cx="1254.84" cy="993.136" r="14.4" fill="#009af9" fill-rule="evenodd" fill-opacity="1" stroke="#000000" stroke-opacity="1" stroke-width="3.2"></circle>
<circle clip-path="url(#clip792)" cx="1427.47" cy="936.563" r="14.4" fill="#009af9" fill-rule="evenodd" fill-opacity="1" stroke="#000000" stroke-opacity="1" stroke-width="3.2"></circle>
<circle clip-path="url(#clip792)" cx="1542.55" cy="879.991" r="14.4" fill="#009af9" fill-rule="evenodd" fill-opacity="1" stroke="#000000" stroke-opacity="1" stroke-width="3.2"></circle>
<circle clip-path="url(#clip792)" cx="1657.64" cy="993.136" r="14.4" fill="#009af9" fill-rule="evenodd" fill-opacity="1" stroke="#000000" stroke-opacity="1" stroke-width="3.2"></circle>
<circle clip-path="url(#clip792)" cx="1600.1" cy="879.991" r="14.4" fill="#009af9" fill-rule="evenodd" fill-opacity="1" stroke="#000000" stroke-opacity="1" stroke-width="3.2"></circle>
<circle clip-path="url(#clip792)" cx="1197.3" cy="936.563" r="14.4" fill="#009af9" fill-rule="evenodd" fill-opacity="1" stroke="#000000" stroke-opacity="1" stroke-width="3.2"></circle>
<circle clip-path="url(#clip792)" cx="1024.67" cy="1106.28" r="14.4" fill="#009af9" fill-rule="evenodd" fill-opacity="1" stroke="#000000" stroke-opacity="1" stroke-width="3.2"></circle>
<circle clip-path="url(#clip792)" cx="909.582" cy="1219.43" r="14.4" fill="#009af9" fill-rule="evenodd" fill-opacity="1" stroke="#000000" stroke-opacity="1" stroke-width="3.2"></circle>
<circle clip-path="url(#clip792)" cx="909.582" cy="1219.43" r="14.4" fill="#009af9" fill-rule="evenodd" fill-opacity="1" stroke="#000000" stroke-opacity="1" stroke-width="3.2"></circle>
<circle clip-path="url(#clip792)" cx="1082.21" cy="1049.71" r="14.4" fill="#009af9" fill-rule="evenodd" fill-opacity="1" stroke="#000000" stroke-opacity="1" stroke-width="3.2"></circle>
<circle clip-path="url(#clip792)" cx="1197.3" cy="1049.71" r="14.4" fill="#009af9" fill-rule="evenodd" fill-opacity="1" stroke="#000000" stroke-opacity="1" stroke-width="3.2"></circle>
<circle clip-path="url(#clip792)" cx="852.039" cy="879.991" r="14.4" fill="#009af9" fill-rule="evenodd" fill-opacity="1" stroke="#000000" stroke-opacity="1" stroke-width="3.2"></circle>
<circle clip-path="url(#clip792)" cx="1197.3" cy="653.701" r="14.4" fill="#009af9" fill-rule="evenodd" fill-opacity="1" stroke="#000000" stroke-opacity="1" stroke-width="3.2"></circle>
<circle clip-path="url(#clip792)" cx="1600.1" cy="823.418" r="14.4" fill="#009af9" fill-rule="evenodd" fill-opacity="1" stroke="#000000" stroke-opacity="1" stroke-width="3.2"></circle>
<circle clip-path="url(#clip792)" cx="1369.92" cy="1276" r="14.4" fill="#009af9" fill-rule="evenodd" fill-opacity="1" stroke="#000000" stroke-opacity="1" stroke-width="3.2"></circle>
<circle clip-path="url(#clip792)" cx="967.125" cy="879.991" r="14.4" fill="#009af9" fill-rule="evenodd" fill-opacity="1" stroke="#000000" stroke-opacity="1" stroke-width="3.2"></circle>
<circle clip-path="url(#clip792)" cx="909.582" cy="1162.85" r="14.4" fill="#009af9" fill-rule="evenodd" fill-opacity="1" stroke="#000000" stroke-opacity="1" stroke-width="3.2"></circle>
<circle clip-path="url(#clip792)" cx="909.582" cy="1106.28" r="14.4" fill="#009af9" fill-rule="evenodd" fill-opacity="1" stroke="#000000" stroke-opacity="1" stroke-width="3.2"></circle>
<circle clip-path="url(#clip792)" cx="1254.84" cy="879.991" r="14.4" fill="#009af9" fill-rule="evenodd" fill-opacity="1" stroke="#000000" stroke-opacity="1" stroke-width="3.2"></circle>
<circle clip-path="url(#clip792)" cx="1082.21" cy="1106.28" r="14.4" fill="#009af9" fill-rule="evenodd" fill-opacity="1" stroke="#000000" stroke-opacity="1" stroke-width="3.2"></circle>
<circle clip-path="url(#clip792)" cx="621.868" cy="1276" r="14.4" fill="#009af9" fill-rule="evenodd" fill-opacity="1" stroke="#000000" stroke-opacity="1" stroke-width="3.2"></circle>
<circle clip-path="url(#clip792)" cx="967.125" cy="1049.71" r="14.4" fill="#009af9" fill-rule="evenodd" fill-opacity="1" stroke="#000000" stroke-opacity="1" stroke-width="3.2"></circle>
<circle clip-path="url(#clip792)" cx="1024.67" cy="879.991" r="14.4" fill="#009af9" fill-rule="evenodd" fill-opacity="1" stroke="#000000" stroke-opacity="1" stroke-width="3.2"></circle>
<circle clip-path="url(#clip792)" cx="1024.67" cy="936.563" r="14.4" fill="#009af9" fill-rule="evenodd" fill-opacity="1" stroke="#000000" stroke-opacity="1" stroke-width="3.2"></circle>
<circle clip-path="url(#clip792)" cx="1312.38" cy="936.563" r="14.4" fill="#009af9" fill-rule="evenodd" fill-opacity="1" stroke="#000000" stroke-opacity="1" stroke-width="3.2"></circle>
<circle clip-path="url(#clip792)" cx="679.411" cy="1162.85" r="14.4" fill="#009af9" fill-rule="evenodd" fill-opacity="1" stroke="#000000" stroke-opacity="1" stroke-width="3.2"></circle>
<circle clip-path="url(#clip792)" cx="1024.67" cy="993.136" r="14.4" fill="#009af9" fill-rule="evenodd" fill-opacity="1" stroke="#000000" stroke-opacity="1" stroke-width="3.2"></circle>
<circle clip-path="url(#clip792)" cx="1369.92" cy="710.274" r="14.4" fill="#009af9" fill-rule="evenodd" fill-opacity="1" stroke="#000000" stroke-opacity="1" stroke-width="3.2"></circle>
<circle clip-path="url(#clip792)" cx="1082.21" cy="1049.71" r="14.4" fill="#009af9" fill-rule="evenodd" fill-opacity="1" stroke="#000000" stroke-opacity="1" stroke-width="3.2"></circle>
<circle clip-path="url(#clip792)" cx="1830.27" cy="879.991" r="14.4" fill="#009af9" fill-rule="evenodd" fill-opacity="1" stroke="#000000" stroke-opacity="1" stroke-width="3.2"></circle>
<circle clip-path="url(#clip792)" cx="1369.92" cy="936.563" r="14.4" fill="#009af9" fill-rule="evenodd" fill-opacity="1" stroke="#000000" stroke-opacity="1" stroke-width="3.2"></circle>
<circle clip-path="url(#clip792)" cx="1485.01" cy="879.991" r="14.4" fill="#009af9" fill-rule="evenodd" fill-opacity="1" stroke="#000000" stroke-opacity="1" stroke-width="3.2"></circle>
<circle clip-path="url(#clip792)" cx="2117.98" cy="879.991" r="14.4" fill="#009af9" fill-rule="evenodd" fill-opacity="1" stroke="#000000" stroke-opacity="1" stroke-width="3.2"></circle>
<circle clip-path="url(#clip792)" cx="564.325" cy="1162.85" r="14.4" fill="#009af9" fill-rule="evenodd" fill-opacity="1" stroke="#000000" stroke-opacity="1" stroke-width="3.2"></circle>
<circle clip-path="url(#clip792)" cx="1945.35" cy="936.563" r="14.4" fill="#009af9" fill-rule="evenodd" fill-opacity="1" stroke="#000000" stroke-opacity="1" stroke-width="3.2"></circle>
<circle clip-path="url(#clip792)" cx="1600.1" cy="1162.85" r="14.4" fill="#009af9" fill-rule="evenodd" fill-opacity="1" stroke="#000000" stroke-opacity="1" stroke-width="3.2"></circle>
<circle clip-path="url(#clip792)" cx="1887.81" cy="540.556" r="14.4" fill="#009af9" fill-rule="evenodd" fill-opacity="1" stroke="#000000" stroke-opacity="1" stroke-width="3.2"></circle>
<circle clip-path="url(#clip792)" cx="1485.01" cy="766.846" r="14.4" fill="#009af9" fill-rule="evenodd" fill-opacity="1" stroke="#000000" stroke-opacity="1" stroke-width="3.2"></circle>
<circle clip-path="url(#clip792)" cx="1427.47" cy="1049.71" r="14.4" fill="#009af9" fill-rule="evenodd" fill-opacity="1" stroke="#000000" stroke-opacity="1" stroke-width="3.2"></circle>
<circle clip-path="url(#clip792)" cx="1657.64" cy="879.991" r="14.4" fill="#009af9" fill-rule="evenodd" fill-opacity="1" stroke="#000000" stroke-opacity="1" stroke-width="3.2"></circle>
<circle clip-path="url(#clip792)" cx="1024.67" cy="1162.85" r="14.4" fill="#009af9" fill-rule="evenodd" fill-opacity="1" stroke="#000000" stroke-opacity="1" stroke-width="3.2"></circle>
<circle clip-path="url(#clip792)" cx="1082.21" cy="993.136" r="14.4" fill="#009af9" fill-rule="evenodd" fill-opacity="1" stroke="#000000" stroke-opacity="1" stroke-width="3.2"></circle>
<circle clip-path="url(#clip792)" cx="1427.47" cy="766.846" r="14.4" fill="#009af9" fill-rule="evenodd" fill-opacity="1" stroke="#000000" stroke-opacity="1" stroke-width="3.2"></circle>
<circle clip-path="url(#clip792)" cx="1485.01" cy="879.991" r="14.4" fill="#009af9" fill-rule="evenodd" fill-opacity="1" stroke="#000000" stroke-opacity="1" stroke-width="3.2"></circle>
<circle clip-path="url(#clip792)" cx="2175.52" cy="427.411" r="14.4" fill="#009af9" fill-rule="evenodd" fill-opacity="1" stroke="#000000" stroke-opacity="1" stroke-width="3.2"></circle>
<circle clip-path="url(#clip792)" cx="2175.52" cy="1106.28" r="14.4" fill="#009af9" fill-rule="evenodd" fill-opacity="1" stroke="#000000" stroke-opacity="1" stroke-width="3.2"></circle>
<circle clip-path="url(#clip792)" cx="1197.3" cy="1332.57" r="14.4" fill="#009af9" fill-rule="evenodd" fill-opacity="1" stroke="#000000" stroke-opacity="1" stroke-width="3.2"></circle>
<circle clip-path="url(#clip792)" cx="1715.18" cy="766.846" r="14.4" fill="#009af9" fill-rule="evenodd" fill-opacity="1" stroke="#000000" stroke-opacity="1" stroke-width="3.2"></circle>
<circle clip-path="url(#clip792)" cx="967.125" cy="993.136" r="14.4" fill="#009af9" fill-rule="evenodd" fill-opacity="1" stroke="#000000" stroke-opacity="1" stroke-width="3.2"></circle>
<circle clip-path="url(#clip792)" cx="2175.52" cy="993.136" r="14.4" fill="#009af9" fill-rule="evenodd" fill-opacity="1" stroke="#000000" stroke-opacity="1" stroke-width="3.2"></circle>
<circle clip-path="url(#clip792)" cx="1369.92" cy="1049.71" r="14.4" fill="#009af9" fill-rule="evenodd" fill-opacity="1" stroke="#000000" stroke-opacity="1" stroke-width="3.2"></circle>
<circle clip-path="url(#clip792)" cx="1600.1" cy="710.274" r="14.4" fill="#009af9" fill-rule="evenodd" fill-opacity="1" stroke="#000000" stroke-opacity="1" stroke-width="3.2"></circle>
<circle clip-path="url(#clip792)" cx="1887.81" cy="766.846" r="14.4" fill="#009af9" fill-rule="evenodd" fill-opacity="1" stroke="#000000" stroke-opacity="1" stroke-width="3.2"></circle>
<circle clip-path="url(#clip792)" cx="1312.38" cy="993.136" r="14.4" fill="#009af9" fill-rule="evenodd" fill-opacity="1" stroke="#000000" stroke-opacity="1" stroke-width="3.2"></circle>
<circle clip-path="url(#clip792)" cx="1254.84" cy="879.991" r="14.4" fill="#009af9" fill-rule="evenodd" fill-opacity="1" stroke="#000000" stroke-opacity="1" stroke-width="3.2"></circle>
<circle clip-path="url(#clip792)" cx="1427.47" cy="993.136" r="14.4" fill="#009af9" fill-rule="evenodd" fill-opacity="1" stroke="#000000" stroke-opacity="1" stroke-width="3.2"></circle>
<circle clip-path="url(#clip792)" cx="1887.81" cy="879.991" r="14.4" fill="#009af9" fill-rule="evenodd" fill-opacity="1" stroke="#000000" stroke-opacity="1" stroke-width="3.2"></circle>
<circle clip-path="url(#clip792)" cx="2002.9" cy="993.136" r="14.4" fill="#009af9" fill-rule="evenodd" fill-opacity="1" stroke="#000000" stroke-opacity="1" stroke-width="3.2"></circle>
<circle clip-path="url(#clip792)" cx="2290.61" cy="427.411" r="14.4" fill="#009af9" fill-rule="evenodd" fill-opacity="1" stroke="#000000" stroke-opacity="1" stroke-width="3.2"></circle>
<circle clip-path="url(#clip792)" cx="1427.47" cy="993.136" r="14.4" fill="#009af9" fill-rule="evenodd" fill-opacity="1" stroke="#000000" stroke-opacity="1" stroke-width="3.2"></circle>
<circle clip-path="url(#clip792)" cx="1369.92" cy="993.136" r="14.4" fill="#009af9" fill-rule="evenodd" fill-opacity="1" stroke="#000000" stroke-opacity="1" stroke-width="3.2"></circle>
<circle clip-path="url(#clip792)" cx="1254.84" cy="1106.28" r="14.4" fill="#009af9" fill-rule="evenodd" fill-opacity="1" stroke="#000000" stroke-opacity="1" stroke-width="3.2"></circle>
<circle clip-path="url(#clip792)" cx="2175.52" cy="879.991" r="14.4" fill="#009af9" fill-rule="evenodd" fill-opacity="1" stroke="#000000" stroke-opacity="1" stroke-width="3.2"></circle>
<circle clip-path="url(#clip792)" cx="1369.92" cy="653.701" r="14.4" fill="#009af9" fill-rule="evenodd" fill-opacity="1" stroke="#000000" stroke-opacity="1" stroke-width="3.2"></circle>
<circle clip-path="url(#clip792)" cx="1427.47" cy="823.418" r="14.4" fill="#009af9" fill-rule="evenodd" fill-opacity="1" stroke="#000000" stroke-opacity="1" stroke-width="3.2"></circle>
<circle clip-path="url(#clip792)" cx="1197.3" cy="879.991" r="14.4" fill="#009af9" fill-rule="evenodd" fill-opacity="1" stroke="#000000" stroke-opacity="1" stroke-width="3.2"></circle>
<circle clip-path="url(#clip792)" cx="1715.18" cy="823.418" r="14.4" fill="#009af9" fill-rule="evenodd" fill-opacity="1" stroke="#000000" stroke-opacity="1" stroke-width="3.2"></circle>
<circle clip-path="url(#clip792)" cx="1600.1" cy="823.418" r="14.4" fill="#009af9" fill-rule="evenodd" fill-opacity="1" stroke="#000000" stroke-opacity="1" stroke-width="3.2"></circle>
<circle clip-path="url(#clip792)" cx="1715.18" cy="823.418" r="14.4" fill="#009af9" fill-rule="evenodd" fill-opacity="1" stroke="#000000" stroke-opacity="1" stroke-width="3.2"></circle>
<circle clip-path="url(#clip792)" cx="1082.21" cy="1049.71" r="14.4" fill="#009af9" fill-rule="evenodd" fill-opacity="1" stroke="#000000" stroke-opacity="1" stroke-width="3.2"></circle>
<circle clip-path="url(#clip792)" cx="1657.64" cy="766.846" r="14.4" fill="#009af9" fill-rule="evenodd" fill-opacity="1" stroke="#000000" stroke-opacity="1" stroke-width="3.2"></circle>
<circle clip-path="url(#clip792)" cx="1600.1" cy="710.274" r="14.4" fill="#009af9" fill-rule="evenodd" fill-opacity="1" stroke="#000000" stroke-opacity="1" stroke-width="3.2"></circle>
<circle clip-path="url(#clip792)" cx="1600.1" cy="879.991" r="14.4" fill="#009af9" fill-rule="evenodd" fill-opacity="1" stroke="#000000" stroke-opacity="1" stroke-width="3.2"></circle>
<circle clip-path="url(#clip792)" cx="1369.92" cy="1162.85" r="14.4" fill="#009af9" fill-rule="evenodd" fill-opacity="1" stroke="#000000" stroke-opacity="1" stroke-width="3.2"></circle>
<circle clip-path="url(#clip792)" cx="1485.01" cy="879.991" r="14.4" fill="#009af9" fill-rule="evenodd" fill-opacity="1" stroke="#000000" stroke-opacity="1" stroke-width="3.2"></circle>
<circle clip-path="url(#clip792)" cx="1312.38" cy="653.701" r="14.4" fill="#009af9" fill-rule="evenodd" fill-opacity="1" stroke="#000000" stroke-opacity="1" stroke-width="3.2"></circle>
<circle clip-path="url(#clip792)" cx="1139.75" cy="879.991" r="14.4" fill="#009af9" fill-rule="evenodd" fill-opacity="1" stroke="#000000" stroke-opacity="1" stroke-width="3.2"></circle>
</svg>